<svg width="30" height="30" fill="none" xmlns="http://www.w3.org/2000/svg"><path d="M14.954 0c-.511 1.156-1.062 1.933-1.39 2.592-.418.859-.556 1.527.086 3.075h2.614c.68-1.554.543-2.211.111-3.07-.334-.658-.904-1.437-1.421-2.597ZM11.79 6.808l.655 1.148h4.978l.655-1.148H11.79ZM2.634 7.905c-.293.586-.583 1.026-.754 1.37-.255.517-.33.893.02 1.785h1.468c.36-.892.285-1.262.028-1.785-.173-.344-.466-.784-.762-1.37Zm24.595 0c-.288.58-.583 1.02-.753 1.37-.25.517-.328.893.02 1.785h1.473c.354-.892.282-1.262.026-1.785-.176-.344-.465-.784-.766-1.37Zm-13.37.867c.4 10.06-1.722 19.475-2.142 21.228h1.573c.046-.325.118-.765.216-1.218.098-.44.216-.886.393-1.268a2 2 0 0 1 .334-.53c.15-.159.4-.33.714-.33.334 0 .563.19.7.35.138.16.224.331.309.516.163.376.288.816.393 1.25.111.471.19.899.242 1.23h1.585c-.419-1.753-2.535-11.169-2.135-21.228H13.86ZM0 12.036l.655 1.147h3.93l.654-1.147H0Zm24.76 0 .655 1.147h3.93L30 12.036h-5.24ZM2.102 14.133c.222 6.311-1.024 12.15-1.4 13.763h2.882c.164-.586.326-1.428.451-2.6-.477-2.672-1.023-6.803-.87-11.163H2.102Zm24.596 0c.151 4.354-.393 8.479-.864 11.15.111 1.179.268 2.02.42 2.613h2.914c-.38-1.613-1.624-7.452-1.402-13.763H26.7Zm-14.11 1.575c-1.46.331-3.694.644-7.152.828.006 1.384-.105 2.295-.308 2.888h7.146c.125-1.186.236-2.435.315-3.716Zm4.724 0c.078 1.28.19 2.53.314 3.716h7.252c-.223-.586-.387-1.479-.42-2.888-3.452-.184-5.686-.497-7.146-.828ZM5.436 20.706c-.033 4.45-.433 6.757-.874 8-.055.153-.11.293-.167.414h6.32a92.892 92.892 0 0 0 1.409-8.415H5.436Zm12.334 0a95.268 95.268 0 0 0 1.409 8.414h6.249a7.527 7.527 0 0 1-.158-.42c-.419-1.244-.792-3.551-.825-7.994H17.77Z" fill="#5EA6CF"/></svg>