<svg width="92" height="92" viewBox="0 0 92 92" fill="none" xmlns="http://www.w3.org/2000/svg">
<path d="M89.6896 58.9648L90.3127 59.4909L90.0886 59.0832L90.4988 58.8637L89.6896 58.9648ZM77.3539 79.0726L77.6305 79.8398L77.6403 79.3747L78.1053 79.3897L77.3539 79.0726ZM56.617 90.3187L56.4729 91.1214L56.7139 90.7235L57.1091 90.9689L56.617 90.3187ZM33.0352 89.6896L32.5091 90.3127L32.9168 90.0886L33.1363 90.4988L33.0352 89.6896ZM12.9274 77.3539L12.1602 77.6305L12.6253 77.6403L12.6103 78.1053L12.9274 77.3539ZM1.68133 56.617L0.87864 56.4729L1.27653 56.7139L1.03107 57.1091L1.68133 56.617ZM2.31041 33.0352L1.68732 32.5091L1.91136 32.9168L1.50119 33.1363L2.31041 33.0352ZM14.6461 12.9274L14.3695 12.1602L14.3597 12.6253L13.8947 12.6103L14.6461 12.9274ZM35.383 1.68133L35.5271 0.87864L35.2861 1.27653L34.8909 1.03107L35.383 1.68133ZM58.9648 2.31041L59.4909 1.68732L59.0832 1.91136L58.8637 1.50119L58.9648 2.31041ZM79.0726 14.6461L79.8398 14.3695L79.3747 14.3597L79.3897 13.8947L79.0726 14.6461ZM90.3187 35.383L91.1214 35.5271L90.7235 35.2861L90.9689 34.8909L90.3187 35.383ZM86.7467 58.0915L86.095 58.7379L85.4992 58.297L83.7632 59.7267L79.9016 56.0602L85.1381 55.0935L85.8133 57.2387L86.5531 57.1941L86.7467 58.0915ZM75.242 76.8449L74.3543 77.0789L74.0588 76.3992L71.8405 76.7693L70.3296 71.6632L75.3478 73.4443L74.8599 75.6397L75.523 75.971L75.242 76.8449ZM55.9018 87.3335L55.0161 87.0923L55.1001 86.3559L52.9939 85.5672L54.2384 80.3898L57.6938 84.4413L56.1736 86.0987L56.5821 86.7171L55.9018 87.3335ZM33.9085 86.7467L33.262 86.095L33.703 85.4992L32.2733 83.7632L35.9398 79.9016L36.9065 85.1381L34.7613 85.8133L34.8059 86.5531L33.9085 86.7467ZM15.1551 75.242L14.9211 74.3543L15.6008 74.0588L15.2307 71.8405L20.3368 70.3296L18.5557 75.3478L16.3603 74.8599L16.029 75.523L15.1551 75.242ZM4.66656 55.9018L4.90774 55.0161L5.64415 55.1001L6.43275 52.9939L11.6103 54.2384L7.55866 57.6938L5.90133 56.1736L5.2829 56.5821L4.66656 55.9018ZM5.25327 33.9085L5.90501 33.262L6.50077 33.703L8.2368 32.2733L12.0984 35.9398L6.86192 36.9065L6.18672 34.7613L5.44689 34.8059L5.25327 33.9085ZM16.758 15.1551L17.6457 14.9211L17.9412 15.6008L20.1595 15.2307L21.6705 20.3368L16.6522 18.5557L17.1401 16.3603L16.4771 16.029L16.758 15.1551ZM36.0982 4.66656L36.9839 4.90774L36.8999 5.64415L39.0061 6.43275L37.7616 11.6103L34.3062 7.55866L35.8264 5.90133L35.4179 5.2829L36.0982 4.66656ZM58.0915 5.25327L58.7379 5.90501L58.297 6.50077L59.7267 8.2368L56.0602 12.0984L55.0935 6.86192L57.2387 6.18672L57.1941 5.44689L58.0915 5.25327ZM76.8449 16.758L77.0789 17.6457L76.3992 17.9412L76.7693 20.1595L71.6632 21.6705L73.4443 16.6522L75.6397 17.1401L75.971 16.4771L76.8449 16.758ZM87.3335 36.0982L87.0923 36.9839L86.3559 36.8999L85.5672 39.0061L80.3898 37.7616L84.4413 34.3062L86.0987 35.8264L86.7171 35.4179L87.3335 36.0982ZM78.9152 46.8781L78.5171 45.996L79.571 46.8956L78.4707 47.7377L78.9152 46.8781ZM74.9444 30.3029L74.1587 29.7379L75.5211 29.9901L74.9893 31.2696L74.9444 30.3029ZM63.218 17.9337L62.2551 17.8373L63.5611 17.3745L63.7402 18.7484L63.218 17.9337ZM46.8781 13.0848L45.996 13.4829L46.8956 12.429L47.7377 13.5293L46.8781 13.0848ZM30.3029 17.0556L29.7379 17.8413L29.9901 16.4789L31.2696 17.0107L30.3029 17.0556ZM17.9337 28.782L17.8373 29.7449L17.3745 28.4389L18.7484 28.2598L17.9337 28.782ZM13.0848 45.1219L13.4829 46.004L12.429 45.1044L13.5293 44.2623L13.0848 45.1219ZM17.0556 61.6972L17.8413 62.2621L16.4789 62.0099L17.0107 60.7304L17.0556 61.6972ZM28.782 74.0663L29.7449 74.1627L28.4389 74.6255L28.2598 73.2516L28.782 74.0663ZM45.1219 78.9152L46.004 78.5171L45.1044 79.571L44.2623 78.4707L45.1219 78.9152ZM61.6972 74.9444L62.2621 74.1587L62.0099 75.5211L60.7304 74.9893L61.6972 74.9444ZM74.0663 63.218L74.1627 62.2551L74.6255 63.5611L73.2516 63.7402L74.0663 63.218ZM80.1193 46.9102L79.3122 45.4225L79.7898 45.7657L80.3498 46.2161L80.302 46.1339L81.4309 46.9452L80.2604 47.6952L80.3125 47.6156L79.7293 48.0355L79.2341 48.3528L80.1193 46.9102ZM76.0033 29.7286L74.5605 28.8437L75.1457 28.9022L75.8559 29.0122L75.7734 28.9649L77.1566 29.1031L76.518 30.3379L76.5233 30.2429L76.2282 30.8981L75.9579 31.4206L76.0033 29.7286ZM63.8479 16.9069L62.1559 16.862L62.692 16.62L63.3621 16.3602L63.267 16.3605L64.534 15.7885L64.5983 17.1772L64.5554 17.0923L64.6274 17.8073L64.6546 18.3949L63.8479 16.9069ZM46.9102 11.8807L45.4225 12.6878L45.7657 12.2102L46.2161 11.6502L46.1339 11.6979L46.9452 10.5691L47.6952 11.7396L47.6156 11.6875L48.0355 12.2707L48.3528 12.7659L46.9102 11.8807ZM29.7286 15.9967L28.8437 17.4396L28.9022 16.8543L29.0122 16.1441L28.9649 16.2266L29.1031 14.8434L30.3379 15.482L30.2429 15.4767L30.8981 15.7718L31.4206 16.0421L29.7286 15.9967ZM16.9069 28.1521L16.862 29.8441L16.62 29.308L16.3602 28.6379L16.3605 28.733L15.7885 27.466L17.1772 27.4017L17.0923 27.4446L17.8073 27.3726L18.3949 27.3454L16.9069 28.1521ZM11.8807 45.0898L12.6878 46.5776L12.2102 46.2343L11.6502 45.7839L11.6979 45.8661L10.5691 45.0548L11.7396 44.3048L11.6875 44.3844L12.2707 43.9645L12.7659 43.6472L11.8807 45.0898ZM15.9967 62.2714L17.4396 63.1563L16.8543 63.0978L16.1441 62.9878L16.2266 63.0351L14.8434 62.8969L15.482 61.6621L15.4767 61.7571L15.7718 61.1019L16.0421 60.5794L15.9967 62.2714ZM28.1521 75.0931L29.8441 75.138L29.308 75.38L28.6379 75.6398L28.733 75.6395L27.466 76.2115L27.4017 74.8228L27.4446 74.9077L27.3726 74.1927L27.3454 73.6051L28.1521 75.0931ZM45.0898 80.1193L46.5776 79.3122L46.2343 79.7898L45.7839 80.3498L45.8661 80.302L45.0548 81.4309L44.3048 80.2604L44.3844 80.3125L43.9645 79.7293L43.6472 79.2341L45.0898 80.1193ZM62.2714 76.0033L63.1563 74.5605L63.0978 75.1457L62.9878 75.8559L63.0351 75.7734L62.8969 77.1566L61.6621 76.518L61.7571 76.5233L61.1019 76.2282L60.5794 75.9579L62.2714 76.0033ZM75.0931 63.8479L75.138 62.1559L75.38 62.692L75.6398 63.3621L75.6395 63.267L76.2115 64.534L74.8228 64.5983L74.9077 64.5554L74.1927 64.6274L73.6051 64.6546L75.0931 63.8479ZM83.0606 46.9887L81.309 44.3182L86.4042 47.0779L81.1692 49.5619L83.0606 46.9887ZM78.5897 28.3259L75.7376 26.889L81.53 26.7313L78.2383 31.5001L78.5897 28.3259ZM65.3865 14.3989L62.1981 14.5806L67.1356 11.5479L66.6693 17.3236L65.3865 14.3989ZM46.9887 8.93944L44.3182 10.691L47.0779 5.59578L49.5619 10.8308L46.9887 8.93944ZM28.3259 13.4103L26.889 16.2624L26.7313 10.47L31.5001 13.7617L28.3259 13.4103ZM14.3989 26.6135L14.5806 29.8019L11.5479 24.8644L17.3236 25.3307L14.3989 26.6135ZM8.93944 45.0113L10.691 47.6818L5.59578 44.9221L10.8308 42.4381L8.93944 45.0113ZM13.4103 63.6741L16.2624 65.111L10.47 65.2687L13.7617 60.4999L13.4103 63.6741ZM26.6135 77.6011L29.8019 77.4194L24.8644 80.4522L25.3307 74.6764L26.6135 77.6011ZM45.0113 83.0606L47.6818 81.309L44.9221 86.4042L42.4381 81.1692L45.0113 83.0606ZM63.6741 78.5897L65.111 75.7376L65.2687 81.53L60.4999 78.2383L63.6741 78.5897ZM77.6011 65.3865L77.4194 62.1981L80.4522 67.1356L74.6764 66.6693L77.6011 65.3865ZM87.5514 47.1085L81.6113 40.1599L83.7758 41.021L82.4076 39.7572L83.0137 39.9029L88.0919 42.4551L86.5422 40.751L91.3369 41.9035L86.1895 38.3592L91.8534 39.0051L87.4864 36.728L89.6447 36.8383L88.2039 36.198L92 36.1694L90.0678 35.4431L91.4612 33.9202L88.0641 35.6147L89.0584 34.3911L87.1844 35.4674L90.0455 31.4587L85.2891 34.6009L88.2718 29.1089L84.5198 32.3089L85.1291 30.0877L81.7586 34.6638L81.2843 35.0683L81.9314 33.3217L80.392 35.0701L82.5387 26.1843L73.9203 23.1367L76.2253 22.8002L74.4084 22.3898L75.0062 22.2129L80.6801 21.8841L78.4861 21.1831L83.2147 19.7839L76.9847 19.2882L82.2127 17.0156L77.2923 17.227L79.2165 16.2434L77.6487 16.4093L80.9219 14.4865L78.8854 14.8236L79.3306 12.808L77.2359 15.974L77.4852 14.4172L76.4004 16.2863L76.8739 11.3841L74.3258 16.4835L74.1629 10.236L72.5136 14.8833L71.9306 12.655L71.2998 18.3033L71.0913 18.8908L70.7783 17.0546L70.3194 19.3384L67.7356 10.5697L58.748 12.2397L60.576 10.7957L58.7973 11.3487L59.2266 10.8967L63.9759 7.77495L61.7253 8.26496L65.1208 4.68886L59.4776 7.37456L62.8689 2.79243L58.7134 5.43577L59.8881 3.62181L58.6132 4.5494L60.4865 1.24753L58.8914 2.55767L58.2691 0.589547L58.0381 4.37875L57.4756 2.90587L57.4707 5.06697L55.4296 0.584792L55.7726 6.27508L52.5078 0.945961L53.4031 5.79531L51.7841 4.15702L54.0619 9.36403L54.1751 9.97706L52.986 8.54336L53.7305 10.7507L47.1085 4.44864L40.1599 10.3887L41.021 8.22417L39.7572 9.59244L39.9029 8.9863L42.4551 3.90815L40.751 5.45779L41.9035 0.663067L38.3592 5.81055L39.0051 0.146642L36.728 4.51362L36.8383 2.35534L36.1981 3.79613L36.1694 0L35.4431 1.93215L33.9202 0.538827L35.6147 3.93587L34.3911 2.9416L35.4674 4.81561L31.4587 1.95447L34.6009 6.71089L29.1089 3.72814L32.3089 7.48019L30.0877 6.87089L34.6638 10.2414L35.0683 10.7157L33.3217 10.0686L35.0701 11.608L26.1843 9.46123L23.1367 18.0797L22.8002 15.7747L22.3898 17.5916L22.2129 16.9938L21.8841 11.3199L21.1831 13.5139L19.7839 8.78532L19.2882 15.0153L17.0156 9.78726L17.227 14.7077L16.2434 12.7835L16.4093 14.3514L14.4865 11.0781L14.8236 13.1146L12.808 12.6694L15.974 14.7641L14.4172 14.5148L16.2863 15.5996L11.3841 15.1261L16.4835 17.6742L10.236 17.837L14.8833 19.4864L12.655 20.0694L18.3033 20.7002L18.8908 20.9087L17.0546 21.2217L19.3384 21.6806L10.5697 24.2644L12.2396 33.252L10.7957 31.424L11.3487 33.2027L10.8966 32.7734L7.77493 28.0241L8.26494 30.2747L4.68884 26.8792L7.37454 32.5224L2.79241 29.131L5.43575 33.2866L3.62178 32.1119L4.5494 33.3868L1.24753 31.5136L2.55767 33.1086L0.589547 33.7309L4.37875 33.9619L2.90587 34.5244L5.06697 34.5293L0.584792 36.5704L6.27508 36.2274L0.945961 39.4922L5.79531 38.5969L4.15702 40.2159L9.36403 37.9381L9.97706 37.825L8.54336 39.014L10.7507 38.2696L4.44864 44.8915L10.3887 51.8401L8.22417 50.979L9.59244 52.2428L8.9863 52.0971L3.90815 49.5449L5.45779 51.249L0.663067 50.0965L5.81054 53.6408L0.146631 52.9949L4.51361 55.272L2.35533 55.1617L3.79612 55.802L0 55.8306L1.93215 56.5569L0.538821 58.0798L3.93587 56.3853L2.94159 57.6089L4.81561 56.5326L1.95447 60.5413L6.71089 57.3991L3.72814 62.8911L7.48019 59.6911L6.87089 61.9124L10.2414 57.3362L10.7157 56.9317L10.0686 58.6783L11.608 56.9299L9.46123 65.8157L18.0797 68.8633L15.7747 69.1999L17.5915 69.6102L16.9938 69.7871L11.3199 70.1159L13.5139 70.8169L8.78531 72.2161L15.0153 72.7118L9.78725 74.9844L14.7077 74.773L12.7835 75.7566L14.3514 75.5907L11.0781 77.5135L13.1146 77.1765L12.6694 79.192L14.764 76.026L14.5148 77.5828L15.5996 75.7137L15.1261 80.6159L17.6742 75.5165L17.837 81.764L19.4864 77.1168L20.0694 79.3451L20.7002 73.6968L20.9087 73.1093L21.2217 74.9454L21.6806 72.6616L24.2644 81.4303L33.252 79.7604L31.424 81.2043L33.2027 80.6513L32.7734 81.1034L28.0241 84.2251L30.2746 83.7351L26.8792 87.3112L32.5224 84.6255L29.131 89.2076L33.2866 86.5643L32.1119 88.3782L33.3868 87.4506L31.5136 90.7525L33.1086 89.4423L33.7309 91.4105L33.9619 87.6212L34.5244 89.0941L34.5293 86.933L36.5704 91.4152L36.2274 85.7249L39.4922 91.054L38.5969 86.2047L40.2159 87.843L37.9381 82.636L37.825 82.0229L39.014 83.4566L38.2696 81.2493L44.8915 87.5514L51.8401 81.6113L50.979 83.7758L52.2428 82.4076L52.0971 83.0137L49.5449 88.0919L51.249 86.5422L50.0965 91.3369L53.6408 86.1895L52.9949 91.8534L55.272 87.4864L55.1617 89.6447L55.802 88.2039L55.8306 92L56.5569 90.0678L58.0798 91.4612L56.3853 88.0641L57.6089 89.0584L56.5326 87.1844L60.5413 90.0455L57.3991 85.2891L62.8911 88.2718L59.6911 84.5198L61.9124 85.1291L57.3362 81.7586L56.9317 81.2843L58.6783 81.9314L56.9299 80.392L65.8157 82.5387L68.8633 73.9203L69.1999 76.2253L69.6102 74.4084L69.7871 75.0062L70.1159 80.6801L70.8169 78.4861L72.2161 83.2147L72.7118 76.9847L74.9844 82.2127L74.773 77.2923L75.7566 79.2165L75.5907 77.6487L77.5135 80.9219L77.1765 78.8854L79.192 79.3306L76.026 77.2359L77.5828 77.4852L75.7137 76.4004L80.6159 76.8739L75.5165 74.3258L81.764 74.1629L77.1168 72.5136L79.3451 71.9306L73.6968 71.2998L73.1093 71.0913L74.9454 70.7783L72.6616 70.3194L81.4303 67.7356L79.7604 58.748L81.2043 60.576L80.6513 58.7973L81.1034 59.2266L84.2251 63.9759L83.7351 61.7253L87.3112 65.1208L84.6255 59.4776L89.2076 62.8689L86.5643 58.7134L88.3782 59.8881L87.4506 58.6132L90.7525 60.4864L89.4423 58.8914L91.4105 58.2691L87.6212 58.0381L89.0941 57.4756L86.933 57.4707L91.4152 55.4296L85.7249 55.7726L91.054 52.5078L86.2047 53.4031L87.843 51.7841L82.636 54.0619L82.0229 54.1751L83.4566 52.986L81.2493 53.7304L87.5514 47.1085ZM78.5576 38.2005L80.9793 40.4374L80.4949 41.1143L82.2344 43.1491L82.0085 43.0267L80.6109 44.5471L80.1695 44.2298L79.215 45.0709L77.1784 46.6L77.2842 46.8346L77.166 47.0631L79.1182 48.6987L80.0265 49.5895L80.4843 49.2961L81.7988 50.8889L82.0308 50.7788L80.1854 52.7179L80.6329 53.4197L78.0954 55.5242L79.0742 58.6723L78.3164 59.0163L78.8054 61.6482L78.6709 61.4293L76.7004 62.0473L76.4767 61.5517L75.2296 61.8029L72.7012 62.1088L72.6756 62.3648L72.459 62.5037L73.3319 64.8963L73.6731 66.1218L74.2162 66.0966L74.5582 68.1333L74.8142 68.1539L72.2465 68.9106L72.2832 69.7421L69.0333 70.2959L68.307 73.5116L67.4786 73.4306L66.5862 75.9544L66.5792 75.6977L64.5637 75.2475L64.6178 74.7065L63.4121 74.3005L61.0695 73.3013L60.9193 73.5102L60.6623 73.5221L60.222 76.0306L59.9047 77.2625L60.3876 77.5123L59.6655 79.4471L59.8769 79.593L57.2748 78.9644L56.8908 79.7029L53.7995 78.5576L51.5626 80.9793L50.8857 80.495L48.8509 82.2344L48.9733 82.0085L47.4529 80.611L47.7702 80.1695L46.9291 79.215L45.4 77.1784L45.1654 77.2842L44.9369 77.166L43.3013 79.1183L42.4105 80.0265L42.7039 80.4843L41.1111 81.7988L41.2212 82.0308L39.2821 80.1854L38.5803 80.633L36.4758 78.0954L33.3277 79.0743L32.9837 78.3164L30.3518 78.8054L30.5707 78.671L29.9527 76.7004L30.4483 76.4767L30.1971 75.2296L29.8912 72.7013L29.6352 72.6756L29.4963 72.459L27.1037 73.3319L25.8782 73.6731L25.9034 74.2162L23.8667 74.5582L23.8461 74.8143L23.0894 72.2465L22.2579 72.2832L21.7041 69.0333L18.4884 68.307L18.5694 67.4786L16.0456 66.5862L16.3023 66.5792L16.7525 64.5637L17.2935 64.6178L17.6995 63.4122L18.6987 61.0696L18.4898 60.9194L18.4779 60.6623L15.9694 60.222L14.7375 59.9047L14.4877 60.3876L12.5529 59.6655L12.407 59.8769L13.0357 57.2749L12.2972 56.8909L13.4424 53.7995L11.0208 51.5627L11.5051 50.8857L9.76565 48.851L9.99149 48.9733L11.3891 47.4529L11.8305 47.7702L12.785 46.9291L14.8217 45.4L14.7158 45.1655L14.834 44.9369L12.8818 43.3013L11.9735 42.4106L11.5158 42.7039L10.2012 41.1112L9.96918 41.2213L11.8146 39.2821L11.3671 38.5803L13.9046 36.4758L12.9258 33.3278L13.6837 32.9837L13.1947 30.3518L13.3291 30.5707L15.2996 29.9528L15.5233 30.4483L16.7704 30.1971L19.2988 29.8912L19.3244 29.6352L19.541 29.4963L18.6681 27.1038L18.3269 25.8782L17.7838 25.9034L17.4418 23.8668L17.1858 23.8461L19.7535 23.0895L19.7168 22.2579L22.9667 21.7041L23.693 18.4884L24.5214 18.5694L25.4138 16.0456L25.4208 16.3024L27.4363 16.7525L27.3822 17.2935L28.5878 17.6995L30.9305 18.6988L31.0807 18.4899L31.3377 18.4779L31.778 15.9694L32.0953 14.7375L31.6124 14.4877L32.3345 12.5529L32.1231 12.4071L34.7252 13.0357L35.1091 12.2972L38.2005 13.4425L40.4374 11.0208L41.1143 11.5051L43.1491 9.76567L43.0267 9.99152L44.5471 11.3891L44.2298 11.8306L45.0709 12.785L46.6 14.8217L46.8346 14.7159L47.0631 14.834L48.6987 12.8818L49.5894 11.9735L49.2961 11.5158L50.8889 10.2012L50.7787 9.9692L52.7179 11.8146L53.4197 11.3671L55.5242 13.9046L58.6722 12.9258L59.0163 13.6837L61.6482 13.1947L61.4293 13.3291L62.0472 15.2996L61.5517 15.5233L61.8029 16.7704L62.1088 19.2988L62.3648 19.3244L62.5037 19.541L64.8962 18.6681L66.1218 18.327L66.0966 17.7838L68.1333 17.4418L68.1539 17.1858L68.9106 19.7536L69.7421 19.7169L70.2959 22.9667L73.5116 23.693L73.4306 24.5214L75.9544 25.4139L75.6977 25.4208L75.2475 27.4363L74.7065 27.3822L74.3005 28.5879L73.3013 30.9305L73.5102 31.0807L73.5221 31.3377L76.0306 31.778L77.2625 32.0953L77.5123 31.6124L79.4471 32.3345L79.593 32.1231L78.9644 34.7252L79.7028 35.1092L78.5576 38.2005ZM76.9779 46.8264L76.5339 46.3381L76.2601 46.5077L76.1419 46.3777L75.4766 46.7863L76.1191 47.2298L76.2442 47.1064L76.5084 47.2903L76.9779 46.8264ZM73.2409 31.2267L72.6121 31.0259L72.4599 31.3096L72.2925 31.2562L71.9206 31.9427L72.6988 32.0055L72.7454 31.836L73.0662 31.8632L73.2409 31.2267ZM62.2046 19.5855L61.5597 19.726L61.5698 20.0478L61.398 20.0853L61.4193 20.8657L62.1246 20.531L62.0802 20.361L62.3716 20.2241L62.2046 19.5855ZM46.8264 15.0221L46.3381 15.4662L46.5077 15.7399L46.3777 15.8582L46.7863 16.5234L47.2298 15.8809L47.1064 15.7558L47.2903 15.4916L46.8264 15.0221ZM31.2267 18.7591L31.0259 19.3879L31.3096 19.5401L31.2562 19.7075L31.9427 20.0794L32.0055 19.3012L31.836 19.2546L31.8632 18.9338L31.2267 18.7591ZM19.5855 29.7954L19.726 30.4403L20.0478 30.4302L20.0853 30.602L20.8657 30.5807L20.531 29.8754L20.361 29.9198L20.2241 29.6283L19.5855 29.7954ZM15.0221 45.1736L15.4662 45.6619L15.7399 45.4923L15.8582 45.6223L16.5234 45.2137L15.8809 44.7702L15.7558 44.8937L15.4916 44.7097L15.0221 45.1736ZM18.7591 60.7733L19.3879 60.9741L19.5401 60.6904L19.7075 60.7438L20.0794 60.0573L19.3012 59.9945L19.2546 60.164L18.9338 60.1368L18.7591 60.7733ZM29.7954 72.4145L30.4403 72.274L30.4302 71.9522L30.602 71.9147L30.5807 71.1343L29.8754 71.469L29.9198 71.639L29.6283 71.7759L29.7954 72.4145ZM45.1736 76.9779L45.6619 76.5339L45.4923 76.2601L45.6223 76.1419L45.2137 75.4766L44.7702 76.1191L44.8937 76.2442L44.7097 76.5084L45.1736 76.9779ZM60.7733 73.2409L60.9741 72.6121L60.6904 72.4599L60.7438 72.2925L60.0573 71.9206L59.9945 72.6988L60.164 72.7454L60.1368 73.0662L60.7733 73.2409ZM72.4145 62.2046L72.274 61.5597L71.9522 61.5698L71.9147 61.398L71.1343 61.4193L71.469 62.1246L71.639 62.0802L71.7759 62.3716L72.4145 62.2046Z" fill="url(#paint0_linear_1_161)"/>
<defs>
<linearGradient id="paint0_linear_1_161" x1="0" y1="0" x2="98.0135" y2="5.44989" gradientUnits="userSpaceOnUse">
<stop offset="0.317708" stop-color="#56CCF2"/>
<stop offset="1" stop-color="#2F80ED"/>
</linearGradient>
</defs>
</svg>
