<svg width="420" height="988" fill="none" xmlns="http://www.w3.org/2000/svg"><path d="M135.53 493.675c-.109 5.409-.233 10.817-.349 16.222 7.338-.145 14.665.343 21.993-.094.204-5.376.218-10.753.494-16.129-.276-5.376-.29-10.753-.494-16.129-7.328-.436-14.655.052-21.993-.094.115 5.407.239 10.815.349 16.224ZM378.069 649.069c18.023-1.764 32.74 3.441 41.775-15.216-15.099-8.465-18.449-5.911-43.862 7.4a547.162 547.162 0 0 0 2.087 7.816ZM378.069 338.281c18.023 1.764 32.74-3.441 41.775 15.216-15.099 8.465-18.449 5.911-43.862-7.4a547.162 547.162 0 0 1 2.087-7.816ZM369.205 517.568c-15.394 17.973-2.657 44.835 2.045 69.663 1.152 6.3.436 12.756 1.443 19.066 3.467-11.957 1.91-24.567 2.46-36.835.084-18.402 3.814-39.215 22.138-41.412 4.774-.654 8.791 2.356 12.808 4.401 1.358-24.907-27.238-30.118-40.894-14.883ZM369.205 469.782c-15.394-17.973-2.657-44.835 2.045-69.663 1.152-6.3.436-12.756 1.443-19.066 3.467 11.957 1.91 24.567 2.46 36.835.084 18.402 3.814 39.215 22.138 41.412 4.774.654 8.791-2.356 12.808-4.401 1.358 24.907-27.238 30.118-40.894 14.883ZM401.65 685.666c2.802-5.999 5.179-12.818 3.695-19.492-1.183-4.754-6.051-7.13-10.389-8.324-5.854-1.505-11.811-2.75-17.852-3.249a631.965 631.965 0 0 0-1.567 8.044c10.316 5.585 19.346 13.421 26.113 23.021ZM401.65 301.686c2.802 5.999 5.179 12.818 3.695 19.492-1.183 4.754-6.051 7.13-10.389 8.324-5.854 1.505-11.811 2.75-17.852 3.249a631.965 631.965 0 0 1-1.567-8.044c10.316-5.585 19.346-13.421 26.113-23.021Z" fill="#fff" fill-opacity=".03"/><path d="M370.066 669.266c-7.172-4.463-15.465-6.341-23.467-8.718-5.843-1.702-11.936-2.294-17.945-3.186 19.069-12.123 33.721-25.606 37.997-50.805 5.061-46.37-44.019-70.146-68.595-43.924-12.247 12.019-12.06 35.257 2.19 45.667 13.874 10.911 39.095-1.051 30.006-19.533-2.117 2.252-3.768 5.2-6.798 6.373-4.826 2.221-11.624.592-13.586-4.733-3.653-7.431 1.204-17.146 9.217-18.952 18.043-5.115 40.866 17.041 23.498 50.234-12.019 17.944-37.237 31.956-75.081 27.546-19.097-1.972-36.856-10.732-52.248-21.858-1.474 3.155-1.557 6.86-3.57 9.777-1.214 1.816-2.647 3.467-3.985 5.2 53.169 35.254 78.347 25.801 118.465 30.556 18.536 1.449 46.241 11.105 50.743 30.96 6.494 27.207-21.243 42-34.5 26.228-5.065-5.916-1.412-17.675 7.078-17.655 5.501.176 7.11 6.196 8.822 10.358 10.392-6.286 6.05-27.413-14.043-26.29-16.431 1.225-29.226 19.77-21.225 38.496 8.424 18.082 30.626 25.446 49.352 17.219 19.004-8.334 29.071-31.853 23.384-51.563-3.902-13.379-13.617-24.65-25.709-31.397ZM370.066 318.084c-7.172 4.463-15.465 6.341-23.467 8.718-5.843 1.702-11.936 2.294-17.945 3.186 19.069 12.123 33.721 25.606 37.997 50.805 5.061 46.37-44.019 70.146-68.595 43.924-12.247-12.019-12.06-35.257 2.19-45.667 13.874-10.911 39.095 1.051 30.006 19.533-2.117-2.252-3.768-5.2-6.798-6.373-4.826-2.221-11.624-.592-13.586 4.733-3.653 7.431 1.204 17.146 9.217 18.952 18.043 5.115 40.866-17.041 23.498-50.234-12.019-17.944-37.237-31.956-75.081-27.546-19.097 1.972-36.856 10.732-52.248 21.858-1.474-3.155-1.557-6.86-3.57-9.777-1.214-1.816-2.647-3.467-3.985-5.2 53.169-35.254 78.347-25.801 118.465-30.556 18.536-1.449 46.241-11.105 50.743-30.96 6.494-27.207-21.243-42-34.5-26.228-5.065 5.916-1.412 17.675 7.078 17.655 5.501-.177 7.11-6.196 8.822-10.358 10.392 6.286 6.05 27.413-14.043 26.29-16.431-1.225-29.226-19.77-21.225-38.496 8.424-18.082 30.626-25.446 49.352-17.219 19.004 8.334 29.071 31.853 23.384 51.563-3.902 13.379-13.617 24.65-25.709 31.397Z" fill="#fff" fill-opacity=".03"/><path d="M373.668 636.261c8.232-5.871 22.411-14.456 17.416-24.339-2.553-4.567-7.234-7.265-11.5-9.995-2.148 10.265-6.425 19.948-12.216 28.667a271.303 271.303 0 0 1 6.3 5.667ZM373.668 351.089c8.232 5.871 22.411 14.456 17.416 24.339-2.553 4.567-7.234 7.265-11.5 9.995-2.148-10.265-6.425-19.948-12.216-28.667a271.303 271.303 0 0 0 6.3-5.667ZM196.872 658.69l-4.224 4.629c5.138 6.155 10.69 11.936 15.869 18.049 6.56 7.296 12.413 15.185 18.848 22.574 56.127 68.405 55.925 72.928 70.141 90.775 28.516 38.189 48.389 36.698 61.91 42.948 7.566 2.813 14.219 7.431 20.831 11.967.529-.996 1.059-1.982 1.567-2.958-17.618-25.649-12.938-33.212-21.92-47.899-15.161-28.186-45.39-41.953-87.879-77.105-55.59-44.702-58.781-49.663-75.143-62.98ZM196.872 328.66l-4.224-4.629c5.138-6.155 10.69-11.936 15.869-18.049 6.56-7.296 12.413-15.185 18.848-22.574 56.127-68.405 55.925-72.928 70.141-90.775 28.516-38.189 48.389-36.698 61.91-42.948 7.566-2.813 14.219-7.431 20.831-11.967.529.996 1.059 1.982 1.567 2.958-17.618 25.649-12.938 33.212-21.92 47.899-15.161 28.186-45.39 41.953-87.879 77.105-55.59 44.702-58.781 49.663-75.143 62.98ZM362.552 635.338c-12.684 14.93-10.558 12.097-21.069 19.211 4.401.789 8.874 1.048 13.212 2.148 4.961 1.142 9.632 3.217 14.562 4.494 4.342-11.548 1.572-19.35-6.705-25.853ZM362.552 352.012c-12.684-14.93-10.558-12.097-21.069-19.211 4.401-.789 8.874-1.048 13.212-2.148 4.961-1.142 9.632-3.217 14.562-4.494 4.342 11.548 1.572 19.35-6.705 25.853ZM332.889 543.474c.872 2.097 3.529 2.097 5.335 2.948 8.895 2.667 16.202 8.698 22.688 15.112-7.456-25.092-2.93-25.004-3.799-33.991-7.93-7.068-18.319-10.607-28.49-13.026-.695 9.798.281 19.897 4.266 28.957ZM332.889 443.877c.872-2.097 3.529-2.097 5.335-2.948 8.895-2.667 16.202-8.698 22.688-15.112-7.456 25.092-2.93 25.004-3.799 33.991-7.93 7.068-18.319 10.607-28.49 13.026-.695-9.798.281-19.897 4.266-28.957ZM202.322 653.044c2.875 3.145 6.715 5.179 9.87 8.013 11.811 10.14 24.764 18.817 37.063 28.334 14.003 10.54 38.177 25.781 55.403 22.201 8.293-2.242 16.347-8.936 17.271-17.924.727-4.805-1.391-9.393-3.601-13.513-5.47 3.197-11.303 5.947-17.655 6.757-34.718 3.418-72.803-20.572-99.275-43.031.239 3.029-.353 6.34.924 9.163ZM202.322 334.307c2.875-3.145 6.715-5.179 9.87-8.013 11.811-10.14 24.764-18.817 37.063-28.334 14.003-10.54 38.177-25.781 55.403-22.201 8.293 2.242 16.347 8.936 17.271 17.924.727 4.805-1.391 9.393-3.601 13.513-5.47-3.197-11.303-5.947-17.655-6.757-34.718-3.418-72.803 20.572-99.275 43.031.239-3.029-.353-6.34.924-9.163ZM242.716 575.825c2.712-2.615 59.852-59.622 60.852-60.665-6.806-.507-183.135-.386-184.175-.384-.623 7.13-.706 14.313-.55 21.474 31.804.886 103.494-.507 133.038.519-4.93 5.252-10.016 10.358-15.07 15.485-5.235 5.061-4.249 4.457-12.901 4.525-22.294-.342-44.588.291-66.882-.197-.083-5.127-.125-10.244-.228-15.361-7.255-.135-14.52-.467-21.775.052-.135 12.33-.602 24.66-.426 36.991 116.392-.035 103.92 1.207 108.117-2.439ZM242.716 411.526c2.712 2.615 59.852 59.622 60.852 60.665-6.806.507-183.135.386-184.175.384-.623-7.13-.706-14.313-.55-21.474 31.804-.886 103.494.507 133.038-.519-4.93-5.252-10.016-10.358-15.07-15.485-5.235-5.061-4.249-4.457-12.901-4.525-22.294.342-44.588-.291-66.882.197-.083 5.127-.125 10.244-.228 15.361-7.255.135-14.52.467-21.775-.052-.135-12.33-.602-24.66-.426-36.991 116.392.035 103.92-1.207 108.117 2.439ZM225.145 595.835c-2.138 9.559 1.318 20.54 9.891 25.813 9.611 5.843 23.529 4.92 31.459-3.415 7.089-6.736 10.971-16.077 12.849-25.522 4.895-26.723 13.786-32.652 23.861-41.412-10.068 2.657-18.329 9.953-23.986 18.495-10.152 13.799-26.569 40.641-43.56 35.673-5.034-1.121-7.494-5.978-10.514-9.632ZM225.145 391.515c-2.138-9.559 1.318-20.54 9.891-25.813 9.611-5.843 23.529-4.92 31.459 3.415 7.089 6.736 10.971 16.077 12.849 25.522 4.895 26.723 13.786 32.652 23.861 41.412-10.068-2.657-18.329-9.953-23.986-18.495-10.152-13.799-26.569-40.641-43.56-35.673-5.034 1.121-7.494 5.978-10.514 9.632ZM243.308 789.175c-8.916 4.837-15.33 14.925-14.468 25.221.395 6.685 7.758 17.612 21.401 14.883 2.989-.581 3.965-3.664 5.065-6.072-3.062-1.142-7.151-1.1-9.113-4.141-2.408-4.858.561-11.375 5.708-12.984 9.59-3.658 21.619 8.633 16.098 22.387-7.768 16.824-26.627 17.897-38.848 10.68-8.926-4.992-14.261-14.344-17.945-23.55-12.904-34.825.35-67.748-17.447-110.162-5.21-11.043-10.286-22.294-17.655-32.102-4.089 3.861-9.3 5.926-14.769 6.923 4.442 7.276 9.102 14.458 12.559 22.284 15.705 32.878 11.69 78.264-13.897 99.825-20.22 15.997-48.866 14.027-55.974-8.137-2.429-8.168 1.329-18.827 10.036-21.308 7.805-2.366 16.44 5.366 14.52 13.358-.581 4.048-4.681 5.625-7.535 7.836 1.065 5.472 16.555 3.697 21.557-5.999 8.654-16.053-2.699-32.34-22.502-35.154-22.014-1.996-43.892 22.464-32.548 50.328 12.44 30.904 66.832 47.182 102.451-8.926 2.032 28.764 15.407 59.542 43.176 66.809 27.901 6.503 47.36-10.435 52.819-25.138 11.37-27.676-14.603-60.156-42.689-46.861ZM243.308 198.175c-8.916-4.836-15.33-14.925-14.468-25.221.395-6.685 7.758-17.612 21.401-14.883 2.989.581 3.965 3.664 5.065 6.072-3.062 1.142-7.151 1.1-9.113 4.141-2.408 4.858.561 11.375 5.708 12.984 9.59 3.659 21.619-8.633 16.098-22.387-7.768-16.824-26.627-17.897-38.848-10.68-8.926 4.992-14.261 14.344-17.945 23.55-12.904 34.825.35 67.748-17.447 110.162-5.21 11.043-10.286 22.294-17.655 32.102-4.089-3.861-9.3-5.926-14.769-6.923 4.442-7.276 9.102-14.458 12.559-22.284 15.705-32.878 11.69-78.264-13.897-99.825-20.22-15.997-48.866-14.027-55.974 8.137-2.429 8.168 1.329 18.827 10.036 21.308 7.805 2.366 16.44-5.366 14.52-13.358-.581-4.048-4.681-5.625-7.535-7.836 1.065-5.472 16.555-3.697 21.557 5.999 8.654 16.053-2.699 32.341-22.502 35.154-22.014 1.996-43.892-22.464-32.548-50.328 12.44-30.904 66.832-47.182 102.451 8.926 2.032-28.764 15.407-59.542 43.176-66.809 27.901-6.503 47.36 10.435 52.819 25.138 11.37 27.676-14.603 60.156-42.689 46.861Z" fill="#fff" fill-opacity=".03"/><path d="M214.786 781.577c4.39 2.719 9.445 5.2 14.759 4.37 7.39-.768 13.264-6.393 16.627-12.693 10.96-24.127-22.359-63.136-55.278-105.419-2.418-3.861-7.618-3.083-11.5-3.882 4.779 7.966 33.261 37.97 40.904 74.21 5.485 26.95.768 34.147-5.512 43.414ZM214.786 205.773c4.39-2.719 9.445-5.2 14.759-4.37 7.39.768 13.264 6.393 16.627 12.693 10.96 24.127-22.359 63.136-55.278 105.419-2.418 3.861-7.618 3.083-11.5 3.882 4.779-7.966 33.261-37.97 40.904-74.21 5.485-26.949.768-34.147-5.512-43.414ZM196.883 838.132c-2.823.529-5.646 1.09-8.49 1.588 1.09 7.301 3.489 26.501 10.711 28.438 7.141 2.252 14.406-.872 20.903-3.664-9.465-7.036-17.893-15.672-23.124-26.362Z" fill="#fff" fill-opacity=".03"/><path d="M201.45 639.417c8.712-2.924 12.964-17.204-.042-23.799 3.02-.457 6.279-.768 8.708-2.813 4.037-3.041 4.681-8.407 5.719-12.984-10.026-.374-20.104-.799-30.13-.374-1.93 2.252-1.474 5.698-2.252 8.469-2.823 17.914-16.108 33.638-33.379 39.232-5.418 2.003-11.199 2.418-16.855 3.321.042 10.099.28 20.197.311 30.307 4.245-.228 8.957-.633 12.123-3.83 2.584-2.179 3.259-5.615 4.006-8.729 1.277 1.609 2.47 3.332 4.131 4.587 5.688 4.204 14.966 3.031 18.599-3.332 2.833-4.016 1.214-8.988.125-13.285 3.986 2.667 8.656 5.407 13.648 4.307 6.124-1.868 10.14-8.853 8.542-15.081-.789-2.699-2.709-4.847-4.297-7.11 3.601.781 7.369 2.099 11.043 1.114ZM201.45 347.933c8.712 2.924 12.964 17.204-.042 23.799 3.02.457 6.279.768 8.708 2.813 4.037 3.041 4.681 8.407 5.719 12.984-10.026.374-20.104.799-30.13.374-1.93-2.252-1.474-5.698-2.252-8.469-2.823-17.914-16.108-33.638-33.379-39.232-5.418-2.003-11.199-2.418-16.855-3.321.042-10.099.28-20.197.311-30.307 4.245.228 8.957.633 12.123 3.83 2.584 2.179 3.259 5.615 4.006 8.729 1.277-1.609 2.47-3.332 4.131-4.587 5.688-4.204 14.966-3.031 18.599 3.332 2.833 4.016 1.214 8.988.125 13.285 3.986-2.667 8.656-5.407 13.648-4.307 6.124 1.868 10.14 8.853 8.542 15.081-.789 2.699-2.709 4.847-4.297 7.11 3.601-.781 7.369-2.099 11.043-1.114ZM193.749 835.475c-1.443-5.74-3.84-11.209-4.972-17.021-.924-4.152-1.11-8.407-1.744-12.59-8.247 11.646-6.018 10.092-19.917 21.412 5.076 9.279 17.281 11.199 26.633 8.199ZM175.067 838.061c-10.236 21.709-17.897 26.966-8.21 44.048 17.585-5.139 15.17-20.555 16.783-41.724a205.4 205.4 0 0 1-8.573-2.324Z" fill="#fff" fill-opacity=".03"/><path d="M180.09 599.167c-5.117-.405-10.254-.342-15.382-.259-1.406 6.171-2.243 19.609-17.634 27.608-4.266 2.2-9.123 2.512-13.804 3.062.592 5.366-1.297 11.334 1.266 16.285 24.818.084 45.954-22.219 45.554-46.696ZM180.09 388.184c-5.117.405-10.254.342-15.382.259-1.406-6.171-2.243-19.609-17.634-27.608-4.266-2.2-9.123-2.512-13.804-3.062.592-5.366-1.297-11.334 1.266-16.285 24.818-.084 45.954 22.219 45.554 46.696ZM150.209 854.936c9.85-1.754 15.319-11.23 20.841-18.61-2.366-2.429-4.276-5.428-7.182-7.276-8.947 5.449-18.215 10.732-28.698 12.496 3.715 5.512 7.441 13.12 15.039 13.39Z" fill="#fff" fill-opacity=".03"/><path d="M133.862 626.038c13.617.055 25.883-9.723 26.632-26.497-8.853-.758-17.758-.529-26.643-.841-.477 9.102-.508 18.236.011 27.338ZM133.862 361.312c13.617-.055 25.883 9.723 26.632 26.497-8.853.758-17.758.529-26.643.841-.477-9.102-.508-18.236.011-27.338ZM139.922 702.396c1.455 21.945-39.66 38.513-49.674 52.061-3.508 4.805-7.42 9.829-8.075 15.952 3.996-3.726 6.757-8.552 10.66-12.372 14.099-12.925 33.932-13.05 43.31-16.835 32.999-12.401 26.025-44.677 7.141-50.681-4.338-1.245-9.87-3.363-13.856-.228 4.412 3.032 9.778 6.239 10.494 12.103ZM139.922 284.954c1.455-21.945-39.66-38.513-49.674-52.061-3.508-4.805-7.42-9.829-8.075-15.952 3.996 3.726 6.757 8.552 10.66 12.372 14.099 12.925 33.932 13.05 43.31 16.835 32.999 12.401 26.025 44.677 7.141 50.681-4.338 1.245-9.87 3.363-13.856.228 4.412-3.032 9.778-6.239 10.494-12.103ZM58.717 826.653c-20.028 6.93-24.136 31.824-11.5 41.993 4.971 4.079 11.417 5.823 17.665 6.746-2.169-4.276-5.428-8.334-5.563-13.347-.398-10.131 10.8-20.185 26.103-22.034 17.748-1.926 47.351 1.685 54.355-3.705-6.944-.633-14.001.26-20.893-1.131-19.77-3.732-45.02-14.399-60.167-8.522ZM8.737 493.675c-.372 28.176-.95 56.35-1.074 84.537 12.538.758 25.117.104 37.665.166.342-7.193-.062-14.406.332-21.599-5.657.145-11.334.104-17-.156.27-20.976.238-41.973 1.015-62.949-.777-20.976-.746-41.973-1.016-62.949a238.637 238.637 0 0 1 17.001-.156c-.394-7.193.01-14.406-.332-21.599-12.548.062-25.128-.592-37.665.166.124 28.189.702 56.363 1.074 84.539ZM93.601 493.841c.301 20.934-.675 41.869-.685 62.813-5.013.176-10.036.26-15.049.581-.322 6.954-.259 13.939-.093 20.903 11.811.633 23.633.239 35.454.239 1.109-28.215 1.248-56.464 1.385-84.703-.137-28.239-.276-56.488-1.385-84.703-11.822 0-23.643-.395-35.454.239-.166 6.964-.228 13.949.093 20.903 5.013.322 10.036.405 15.05.581.01 20.945.985 41.879.684 62.813-.665.073-.665.263 0 .334Z" fill="#fff" fill-opacity=".03"/><path d="M26.65 900.48c.707-134.402 1.328-247.196 1.741-279.372 21.308-.104 42.626.415 63.934-.031.135 23.643-.125 47.297-.332 70.94.01 1.899-.415 3.882-1.95 5.148-6.239 6.196-12.31 12.579-18.963 18.329-.28-29.071.218-58.143.26-87.214-7.225-.311-14.459-.021-21.683.125-.467 46.186-.633 92.383-.747 138.57 20.914-20.571 41.33-41.651 62.263-62.191 1.225-1.204 2.076-2.771 1.962-4.525-.239-33.763.519-67.536.363-101.309-1.045-.01-89.139-.454-105.74.457-.388 17.474-1.248 135.26-2.186 279.998-144.738.939-262.524 1.799-279.998 2.185-.911 16.602-.467 104.696-.457 105.741 33.773.156 67.546-.602 101.309-.363 1.754.114 3.321-.737 4.525-1.962 20.54-20.934 41.62-41.35 62.191-62.263-46.186.114-92.383.28-138.57.747-.145 7.224-.436 14.458-.125 21.682 29.071-.042 58.143-.54 87.214-.259-5.75 6.653-12.133 12.725-18.329 18.962-1.266 1.536-3.249 1.962-5.148 1.951-23.643.208-47.297.467-70.94.332.446-21.308-.073-42.626.031-63.934 32.178-.415 144.972-1.035 279.374-1.744ZM26.65 86.87c-134.404-.708-247.197-1.329-279.373-1.742-.104-21.308.415-42.626-.031-63.934 23.643-.135 47.297.125 70.94.332 1.899-.01 3.882.415 5.148 1.951 6.196 6.238 12.579 12.31 18.329 18.962-29.071.28-58.143-.218-87.214-.259-.311 7.224-.021 14.458.125 21.682 46.186.467 92.383.633 138.57.747-20.571-20.914-41.651-41.329-62.191-62.263-1.204-1.225-2.771-2.076-4.525-1.962-33.763.24-67.536-.519-101.309-.363-.01 1.045-.454 89.14.457 105.741 17.474.387 135.26 1.247 279.998 2.185.94 144.738 1.8 262.524 2.185 279.998 16.602.911 104.696.467 105.741.457.156-33.773-.602-67.546-.363-101.309.114-1.754-.737-3.321-1.962-4.525-20.934-20.54-41.35-41.62-62.263-62.191.114 46.186.28 92.383.747 138.57 7.224.145 14.458.436 21.682.125-.042-29.071-.54-58.143-.259-87.214 6.653 5.75 12.725 12.133 18.962 18.329 1.536 1.266 1.962 3.249 1.951 5.148.208 23.643.467 47.297.332 70.94-21.308-.446-42.626.073-63.934-.031-.415-32.178-1.035-144.972-1.744-279.374Z" fill="#fff" fill-opacity=".03"/><path d="M80.67 798.941c-.924-2.045-1.027-5.324-3.757-5.75-9.258-2.055-18.765-2.927-28.252-2.989 4.146 16.113 3.94 15.286 12.797 29.238 21.54-2.505 21.204.454 35.475 4.017-7.316-6.716-13.326-14.936-16.263-24.516ZM80.67 188.41c-.924 2.045-1.027 5.324-3.757 5.75-9.258 2.055-18.765 2.927-28.252 2.989 4.146-16.113 3.94-15.285 12.797-29.237 21.54 2.505 21.204-.455 35.475-4.017-7.316 6.715-13.326 14.935-16.263 24.515ZM71.557 593.78c.861-19.149.021-38.329.965-57.479 5.138-.249 10.275-.291 15.413-.291.581-6.985.81-13.991.654-20.997-12.507 0-25.013.457-37.53.031-.342 26.238-1.1 52.466-.675 78.714 7.068-.216 14.115.261 21.173.022ZM71.557 393.57c.861 19.149.021 38.329.965 57.479 5.138.249 10.275.291 15.413.291.581 6.985.81 13.991.654 20.997-12.507 0-25.013-.457-37.53-.031-.342-26.238-1.1-52.466-.675-78.714 7.068.216 14.115-.261 21.173-.022Z" fill="#fff" fill-opacity=".03"/></svg>