<svg width="420" height="988" viewBox="0 0 420 988" fill="none" xmlns="http://www.w3.org/2000/svg">
<path d="M135.53 493.675C135.421 499.084 135.297 504.492 135.181 509.897C142.519 509.752 149.846 510.24 157.174 509.803C157.378 504.427 157.392 499.05 157.668 493.674C157.392 488.298 157.378 482.921 157.174 477.545C149.846 477.109 142.519 477.597 135.181 477.451C135.296 482.858 135.42 488.266 135.53 493.675Z" fill="white" fill-opacity="0.03"/>
<path d="M378.069 649.069C396.092 647.305 410.809 652.51 419.844 633.853C404.745 625.388 401.395 627.942 375.982 641.253C376.657 643.859 377.353 646.464 378.069 649.069Z" fill="white" fill-opacity="0.03"/>
<path d="M378.069 338.281C396.092 340.045 410.809 334.84 419.844 353.497C404.745 361.962 401.395 359.408 375.982 346.097C376.657 343.491 377.353 340.886 378.069 338.281Z" fill="white" fill-opacity="0.03"/>
<path d="M369.205 517.568C353.811 535.541 366.548 562.403 371.25 587.231C372.402 593.531 371.686 599.987 372.693 606.297C376.16 594.34 374.603 581.73 375.153 569.462C375.237 551.06 378.967 530.247 397.291 528.05C402.065 527.396 406.082 530.406 410.099 532.451C411.457 507.544 382.861 502.333 369.205 517.568Z" fill="white" fill-opacity="0.03"/>
<path d="M369.205 469.782C353.811 451.809 366.548 424.947 371.25 400.119C372.402 393.819 371.686 387.363 372.693 381.053C376.16 393.01 374.603 405.62 375.153 417.888C375.237 436.29 378.967 457.103 397.291 459.3C402.065 459.954 406.082 456.944 410.099 454.899C411.457 479.806 382.861 485.017 369.205 469.782Z" fill="white" fill-opacity="0.03"/>
<path d="M401.65 685.666C404.452 679.667 406.829 672.848 405.345 666.174C404.162 661.42 399.294 659.044 394.956 657.85C389.102 656.345 383.145 655.1 377.104 654.601C376.564 657.268 376.045 659.957 375.537 662.645C385.853 668.23 394.883 676.066 401.65 685.666Z" fill="white" fill-opacity="0.03"/>
<path d="M401.65 301.686C404.452 307.685 406.829 314.504 405.345 321.178C404.162 325.932 399.294 328.308 394.956 329.502C389.102 331.007 383.145 332.252 377.104 332.751C376.564 330.084 376.045 327.395 375.537 324.707C385.853 319.122 394.883 311.286 401.65 301.686Z" fill="white" fill-opacity="0.03"/>
<path d="M370.066 669.266C362.894 664.803 354.601 662.925 346.599 660.548C340.756 658.846 334.663 658.254 328.654 657.362C347.723 645.239 362.375 631.756 366.651 606.557C371.712 560.187 322.632 536.411 298.056 562.633C285.809 574.652 285.996 597.89 300.246 608.3C314.12 619.211 339.341 607.249 330.252 588.767C328.135 591.019 326.484 593.967 323.454 595.14C318.628 597.361 311.83 595.732 309.868 590.407C306.215 582.976 311.072 573.261 319.085 571.455C337.128 566.34 359.951 588.496 342.583 621.689C330.564 639.633 305.346 653.645 267.502 649.235C248.405 647.263 230.646 638.503 215.254 627.377C213.78 630.532 213.697 634.237 211.684 637.154C210.47 638.97 209.037 640.621 207.699 642.354C260.868 677.608 286.046 668.155 326.164 672.91C344.7 674.359 372.405 684.015 376.907 703.87C383.401 731.077 355.664 745.87 342.407 730.098C337.342 724.182 340.995 712.423 349.485 712.443C354.986 712.619 356.595 718.639 358.307 722.801C368.699 716.515 364.357 695.388 344.264 696.511C327.833 697.736 315.038 716.281 323.039 735.007C331.463 753.089 353.665 760.453 372.391 752.226C391.395 743.892 401.462 720.373 395.775 700.663C391.873 687.284 382.158 676.013 370.066 669.266Z" fill="white" fill-opacity="0.03"/>
<path d="M370.066 318.084C362.894 322.547 354.601 324.425 346.599 326.802C340.756 328.504 334.663 329.096 328.654 329.988C347.723 342.111 362.375 355.594 366.651 380.793C371.712 427.163 322.632 450.939 298.056 424.717C285.809 412.698 285.996 389.46 300.246 379.05C314.12 368.139 339.341 380.101 330.252 398.583C328.135 396.331 326.484 393.383 323.454 392.21C318.628 389.989 311.83 391.618 309.868 396.943C306.215 404.374 311.072 414.089 319.085 415.895C337.128 421.01 359.951 398.854 342.583 365.661C330.564 347.717 305.346 333.705 267.502 338.115C248.405 340.087 230.646 348.847 215.254 359.973C213.78 356.818 213.697 353.113 211.684 350.196C210.47 348.38 209.037 346.729 207.699 344.996C260.868 309.742 286.046 319.195 326.164 314.44C344.7 312.991 372.405 303.335 376.907 283.48C383.401 256.273 355.664 241.48 342.407 257.252C337.342 263.168 340.995 274.927 349.485 274.907C354.986 274.73 356.595 268.711 358.307 264.549C368.699 270.835 364.357 291.962 344.264 290.839C327.833 289.614 315.038 271.069 323.039 252.343C331.463 234.261 353.665 226.897 372.391 235.124C391.395 243.458 401.462 266.977 395.775 286.687C391.873 300.066 382.158 311.337 370.066 318.084Z" fill="white" fill-opacity="0.03"/>
<path d="M373.668 636.261C381.9 630.39 396.079 621.805 391.084 611.922C388.531 607.355 383.85 604.657 379.584 601.927C377.436 612.192 373.159 621.875 367.368 630.594C369.496 632.452 371.603 634.341 373.668 636.261Z" fill="white" fill-opacity="0.03"/>
<path d="M373.668 351.089C381.9 356.96 396.079 365.545 391.084 375.428C388.531 379.995 383.85 382.693 379.584 385.423C377.436 375.158 373.159 365.475 367.368 356.756C369.496 354.898 371.603 353.009 373.668 351.089Z" fill="white" fill-opacity="0.03"/>
<path d="M196.872 658.69C195.471 660.226 194.059 661.773 192.648 663.319C197.786 669.474 203.338 675.255 208.517 681.368C215.077 688.664 220.93 696.553 227.365 703.942C283.492 772.347 283.29 776.87 297.506 794.717C326.022 832.906 345.895 831.415 359.416 837.665C366.982 840.478 373.635 845.096 380.247 849.632C380.776 848.636 381.306 847.65 381.814 846.674C364.196 821.025 368.876 813.462 359.894 798.775C344.733 770.589 314.504 756.822 272.015 721.67C216.425 676.968 213.234 672.007 196.872 658.69Z" fill="white" fill-opacity="0.03"/>
<path d="M196.872 328.66C195.471 327.124 194.059 325.577 192.648 324.031C197.786 317.876 203.338 312.095 208.517 305.982C215.077 298.686 220.93 290.797 227.365 283.408C283.492 215.003 283.29 210.48 297.506 192.633C326.022 154.444 345.895 155.935 359.416 149.685C366.982 146.872 373.635 142.254 380.247 137.718C380.776 138.714 381.306 139.7 381.814 140.676C364.196 166.325 368.876 173.888 359.894 188.575C344.733 216.761 314.504 230.528 272.015 265.68C216.425 310.382 213.234 315.343 196.872 328.66Z" fill="white" fill-opacity="0.03"/>
<path d="M362.552 635.338C349.868 650.268 351.994 647.435 341.483 654.549C345.884 655.338 350.357 655.597 354.695 656.697C359.656 657.839 364.327 659.914 369.257 661.191C373.599 649.643 370.829 641.841 362.552 635.338Z" fill="white" fill-opacity="0.03"/>
<path d="M362.552 352.012C349.868 337.082 351.994 339.915 341.483 332.801C345.884 332.012 350.357 331.753 354.695 330.653C359.656 329.511 364.327 327.436 369.257 326.159C373.599 337.707 370.829 345.509 362.552 352.012Z" fill="white" fill-opacity="0.03"/>
<path d="M332.889 543.474C333.761 545.571 336.418 545.571 338.224 546.422C347.119 549.089 354.426 555.12 360.912 561.534C353.456 536.442 357.982 536.53 357.113 527.543C349.183 520.475 338.794 516.936 328.623 514.517C327.928 524.315 328.904 534.414 332.889 543.474Z" fill="white" fill-opacity="0.03"/>
<path d="M332.889 443.877C333.761 441.78 336.418 441.78 338.224 440.929C347.119 438.262 354.426 432.231 360.912 425.817C353.456 450.909 357.982 450.821 357.113 459.808C349.183 466.876 338.794 470.415 328.623 472.834C327.928 463.036 328.904 452.937 332.889 443.877Z" fill="white" fill-opacity="0.03"/>
<path d="M202.322 653.044C205.197 656.189 209.037 658.223 212.192 661.057C224.003 671.197 236.956 679.874 249.255 689.391C263.258 699.931 287.432 715.172 304.658 711.592C312.951 709.35 321.005 702.656 321.929 693.668C322.656 688.863 320.538 684.275 318.328 680.155C312.858 683.352 307.025 686.102 300.673 686.912C265.955 690.33 227.87 666.34 201.398 643.881C201.637 646.91 201.045 650.221 202.322 653.044Z" fill="white" fill-opacity="0.03"/>
<path d="M202.322 334.307C205.197 331.162 209.037 329.128 212.192 326.294C224.003 316.154 236.956 307.477 249.255 297.96C263.258 287.42 287.432 272.179 304.658 275.759C312.951 278.001 321.005 284.695 321.929 293.683C322.656 298.488 320.538 303.076 318.328 307.196C312.858 303.999 307.025 301.249 300.673 300.439C265.955 297.021 227.87 321.011 201.398 343.47C201.637 340.441 201.045 337.13 202.322 334.307Z" fill="white" fill-opacity="0.03"/>
<path d="M242.716 575.825C245.428 573.21 302.568 516.203 303.568 515.16C296.762 514.653 120.433 514.774 119.393 514.776C118.77 521.906 118.687 529.089 118.843 536.25C150.647 537.136 222.337 535.743 251.881 536.769C246.951 542.021 241.865 547.127 236.811 552.254C231.576 557.315 232.562 556.711 223.91 556.779C201.616 556.437 179.322 557.07 157.028 556.582C156.945 551.455 156.903 546.338 156.8 541.221C149.545 541.086 142.28 540.754 135.025 541.273C134.89 553.603 134.423 565.933 134.599 578.264C250.991 578.229 238.519 579.471 242.716 575.825Z" fill="white" fill-opacity="0.03"/>
<path d="M242.716 411.526C245.428 414.141 302.568 471.148 303.568 472.191C296.762 472.698 120.433 472.577 119.393 472.575C118.77 465.445 118.687 458.262 118.843 451.101C150.647 450.215 222.337 451.608 251.881 450.582C246.951 445.33 241.865 440.224 236.811 435.097C231.576 430.036 232.562 430.64 223.91 430.572C201.616 430.914 179.322 430.281 157.028 430.769C156.945 435.896 156.903 441.013 156.8 446.13C149.545 446.265 142.28 446.597 135.025 446.078C134.89 433.748 134.423 421.418 134.599 409.087C250.991 409.122 238.519 407.88 242.716 411.526Z" fill="white" fill-opacity="0.03"/>
<path d="M225.145 595.835C223.007 605.394 226.463 616.375 235.036 621.648C244.647 627.491 258.565 626.568 266.495 618.233C273.584 611.497 277.466 602.156 279.344 592.711C284.239 565.988 293.13 560.059 303.205 551.299C293.137 553.956 284.876 561.252 279.219 569.794C269.067 583.593 252.65 610.435 235.659 605.467C230.625 604.346 228.165 599.489 225.145 595.835Z" fill="white" fill-opacity="0.03"/>
<path d="M225.145 391.515C223.007 381.956 226.463 370.975 235.036 365.702C244.647 359.859 258.565 360.782 266.495 369.117C273.584 375.853 277.466 385.194 279.344 394.639C284.239 421.362 293.13 427.291 303.205 436.051C293.137 433.394 284.876 426.098 279.219 417.556C269.067 403.757 252.65 376.915 235.659 381.883C230.625 383.004 228.165 387.861 225.145 391.515Z" fill="white" fill-opacity="0.03"/>
<path d="M243.308 789.175C234.392 794.012 227.978 804.1 228.84 814.396C229.235 821.081 236.598 832.008 250.241 829.279C253.23 828.698 254.206 825.615 255.306 823.207C252.244 822.065 248.155 822.107 246.193 819.066C243.785 814.208 246.754 807.691 251.901 806.082C261.491 802.424 273.52 814.715 267.999 828.469C260.231 845.293 241.372 846.366 229.151 839.149C220.225 834.157 214.89 824.805 211.206 815.599C198.302 780.774 211.556 747.851 193.759 705.437C188.549 694.394 183.473 683.143 176.104 673.335C172.015 677.196 166.804 679.261 161.335 680.258C165.777 687.534 170.437 694.716 173.894 702.542C189.599 735.42 185.584 780.806 159.997 802.367C139.777 818.364 111.131 816.394 104.023 794.23C101.594 786.062 105.352 775.403 114.059 772.922C121.864 770.556 130.499 778.288 128.579 786.28C127.998 790.328 123.898 791.905 121.044 794.116C122.109 799.588 137.599 797.813 142.601 788.117C151.255 772.064 139.902 755.777 120.099 752.963C98.085 750.967 76.207 775.427 87.551 803.291C99.991 834.195 154.383 850.473 190.002 794.365C192.034 823.129 205.409 853.907 233.178 861.174C261.079 867.677 280.538 850.739 285.997 836.036C297.367 808.36 271.394 775.88 243.308 789.175Z" fill="white" fill-opacity="0.03"/>
<path d="M243.308 198.175C234.392 193.339 227.978 183.25 228.84 172.954C229.235 166.269 236.598 155.342 250.241 158.071C253.23 158.652 254.206 161.735 255.306 164.143C252.244 165.285 248.155 165.243 246.193 168.284C243.785 173.142 246.754 179.659 251.901 181.268C261.491 184.927 273.52 172.635 267.999 158.881C260.231 142.057 241.372 140.984 229.151 148.201C220.225 153.193 214.89 162.545 211.206 171.751C198.302 206.576 211.556 239.499 193.759 281.913C188.549 292.956 183.473 304.207 176.104 314.015C172.015 310.154 166.804 308.089 161.335 307.092C165.777 299.816 170.437 292.634 173.894 284.808C189.599 251.93 185.584 206.544 159.997 184.983C139.777 168.986 111.131 170.956 104.023 193.12C101.594 201.288 105.352 211.947 114.059 214.428C121.864 216.794 130.499 209.062 128.579 201.07C127.998 197.022 123.898 195.445 121.044 193.234C122.109 187.762 137.599 189.537 142.601 199.233C151.255 215.286 139.902 231.574 120.099 234.387C98.085 236.383 76.207 211.923 87.551 184.059C99.991 153.155 154.383 136.877 190.002 192.985C192.034 164.221 205.409 133.443 233.178 126.176C261.079 119.673 280.538 136.611 285.997 151.314C297.367 178.99 271.394 211.47 243.308 198.175Z" fill="white" fill-opacity="0.03"/>
<path d="M214.786 781.577C219.176 784.296 224.231 786.777 229.545 785.947C236.935 785.179 242.809 779.554 246.172 773.254C257.132 749.127 223.813 710.118 190.894 667.835C188.476 663.974 183.276 664.752 179.394 663.953C184.173 671.919 212.655 701.923 220.298 738.163C225.783 765.113 221.066 772.31 214.786 781.577Z" fill="white" fill-opacity="0.03"/>
<path d="M214.786 205.773C219.176 203.054 224.231 200.573 229.545 201.403C236.935 202.171 242.809 207.796 246.172 214.096C257.132 238.223 223.813 277.232 190.894 319.515C188.476 323.376 183.276 322.598 179.394 323.397C184.173 315.431 212.655 285.427 220.298 249.187C225.783 222.238 221.066 215.04 214.786 205.773Z" fill="white" fill-opacity="0.03"/>
<path d="M196.883 838.132C194.06 838.661 191.237 839.222 188.393 839.72C189.483 847.021 191.882 866.221 199.104 868.158C206.245 870.41 213.51 867.286 220.007 864.494C210.542 857.458 202.114 848.822 196.883 838.132Z" fill="white" fill-opacity="0.03"/>
<path d="M201.45 639.417C210.162 636.493 214.414 622.213 201.408 615.618C204.428 615.161 207.687 614.85 210.116 612.805C214.153 609.764 214.797 604.398 215.835 599.821C205.809 599.447 195.731 599.022 185.705 599.447C183.775 601.699 184.231 605.145 183.453 607.916C180.63 625.83 167.345 641.554 150.074 647.148C144.656 649.151 138.875 649.566 133.219 650.469C133.261 660.568 133.499 670.666 133.53 680.776C137.775 680.548 142.487 680.143 145.653 676.946C148.237 674.767 148.912 671.331 149.659 668.217C150.936 669.826 152.129 671.549 153.79 672.804C159.478 677.008 168.756 675.835 172.389 669.472C175.222 665.456 173.603 660.484 172.514 656.187C176.5 658.854 181.17 661.594 186.162 660.494C192.286 658.626 196.302 651.641 194.704 645.413C193.915 642.714 191.995 640.566 190.407 638.303C194.008 639.084 197.776 640.402 201.45 639.417Z" fill="white" fill-opacity="0.03"/>
<path d="M201.45 347.933C210.162 350.857 214.414 365.137 201.408 371.732C204.428 372.189 207.687 372.5 210.116 374.545C214.153 377.586 214.797 382.952 215.835 387.529C205.809 387.903 195.731 388.328 185.705 387.903C183.775 385.651 184.231 382.205 183.453 379.434C180.63 361.52 167.345 345.796 150.074 340.202C144.656 338.199 138.875 337.784 133.219 336.881C133.261 326.782 133.499 316.684 133.53 306.574C137.775 306.802 142.487 307.207 145.653 310.404C148.237 312.583 148.912 316.019 149.659 319.133C150.936 317.524 152.129 315.801 153.79 314.546C159.478 310.342 168.756 311.515 172.389 317.878C175.222 321.894 173.603 326.866 172.514 331.163C176.5 328.496 181.17 325.756 186.162 326.856C192.286 328.724 196.302 335.709 194.704 341.937C193.915 344.636 191.995 346.784 190.407 349.047C194.008 348.266 197.776 346.948 201.45 347.933Z" fill="white" fill-opacity="0.03"/>
<path d="M193.749 835.475C192.306 829.735 189.909 824.266 188.777 818.454C187.853 814.302 187.667 810.047 187.033 805.864C178.786 817.51 181.015 815.956 167.116 827.276C172.192 836.555 184.397 838.475 193.749 835.475Z" fill="white" fill-opacity="0.03"/>
<path d="M175.067 838.061C164.831 859.77 157.17 865.027 166.857 882.109C184.442 876.97 182.027 861.554 183.64 840.385C180.765 839.669 177.91 838.901 175.067 838.061Z" fill="white" fill-opacity="0.03"/>
<path d="M180.09 599.167C174.973 598.762 169.836 598.825 164.708 598.908C163.302 605.079 162.465 618.517 147.074 626.516C142.808 628.716 137.951 629.028 133.27 629.578C133.862 634.944 131.973 640.912 134.536 645.863C159.354 645.947 180.49 623.644 180.09 599.167Z" fill="white" fill-opacity="0.03"/>
<path d="M180.09 388.184C174.973 388.589 169.836 388.526 164.708 388.443C163.302 382.272 162.465 368.834 147.074 360.835C142.808 358.635 137.951 358.323 133.27 357.773C133.862 352.407 131.973 346.439 134.536 341.488C159.354 341.404 180.49 363.707 180.09 388.184Z" fill="white" fill-opacity="0.03"/>
<path d="M150.209 854.936C160.059 853.182 165.528 843.706 171.05 836.326C168.684 833.897 166.774 830.898 163.868 829.05C154.921 834.499 145.653 839.782 135.17 841.546C138.885 847.058 142.611 854.666 150.209 854.936Z" fill="white" fill-opacity="0.03"/>
<path d="M133.862 626.038C147.479 626.093 159.745 616.315 160.494 599.541C151.641 598.783 142.736 599.012 133.851 598.7C133.374 607.802 133.343 616.936 133.862 626.038Z" fill="white" fill-opacity="0.03"/>
<path d="M133.862 361.312C147.479 361.257 159.745 371.035 160.494 387.809C151.641 388.567 142.736 388.338 133.851 388.65C133.374 379.548 133.343 370.414 133.862 361.312Z" fill="white" fill-opacity="0.03"/>
<path d="M139.922 702.396C141.377 724.341 100.262 740.909 90.2482 754.457C86.7402 759.262 82.8272 764.286 82.1732 770.409C86.1692 766.683 88.9303 761.857 92.8323 758.037C106.932 745.112 126.765 744.987 136.143 741.202C169.142 728.801 162.168 696.525 143.284 690.521C138.946 689.276 133.414 687.158 129.428 690.293C133.84 693.325 139.206 696.532 139.922 702.396Z" fill="white" fill-opacity="0.03"/>
<path d="M139.922 284.954C141.377 263.009 100.262 246.441 90.2482 232.893C86.7402 228.088 82.8272 223.064 82.1732 216.941C86.1692 220.667 88.9303 225.493 92.8323 229.313C106.932 242.238 126.765 242.363 136.143 246.148C169.142 258.549 162.168 290.825 143.284 296.829C138.946 298.074 133.414 300.192 129.428 297.057C133.84 294.025 139.206 290.818 139.922 284.954Z" fill="white" fill-opacity="0.03"/>
<path d="M58.7173 826.653C38.6893 833.583 34.5813 858.477 47.2173 868.646C52.1883 872.725 58.6344 874.469 64.8824 875.392C62.7134 871.116 59.4544 867.058 59.3194 862.045C58.9214 851.914 70.1194 841.86 85.4224 840.011C103.17 838.085 132.773 841.696 139.777 836.306C132.833 835.673 125.776 836.566 118.884 835.175C99.1133 831.443 73.8643 820.776 58.7173 826.653Z" fill="white" fill-opacity="0.03"/>
<path d="M8.73718 493.675C8.36518 521.851 7.78718 550.025 7.66318 578.212C20.2012 578.97 32.7802 578.316 45.3282 578.378C45.6702 571.185 45.2662 563.972 45.6602 556.779C40.0032 556.924 34.3262 556.883 28.6592 556.623C28.9292 535.647 28.8982 514.65 29.6752 493.674C28.8982 472.698 28.9292 451.701 28.6592 430.725C34.3262 430.466 40.0032 430.424 45.6602 430.569C45.2662 423.376 45.6702 416.163 45.3282 408.97C32.7802 409.032 20.2002 408.378 7.66318 409.136C7.78718 437.325 8.36518 465.499 8.73718 493.675Z" fill="white" fill-opacity="0.03"/>
<path d="M93.6013 493.841C93.9023 514.775 92.9263 535.71 92.9163 556.654C87.9033 556.83 82.8803 556.914 77.8673 557.235C77.5453 564.189 77.6083 571.174 77.7743 578.138C89.5853 578.771 101.407 578.377 113.228 578.377C114.337 550.162 114.476 521.913 114.613 493.674C114.476 465.435 114.337 437.186 113.228 408.971C101.406 408.971 89.5853 408.576 77.7743 409.21C77.6083 416.174 77.5463 423.159 77.8673 430.113C82.8803 430.435 87.9033 430.518 92.9163 430.694C92.9263 451.639 93.9023 472.573 93.6013 493.507C92.9363 493.58 92.9363 493.77 93.6013 493.841Z" fill="white" fill-opacity="0.03"/>
<path d="M26.6492 900.48C27.3572 766.078 27.9782 653.284 28.3912 621.108C49.6992 621.004 71.0172 621.523 92.3252 621.077C92.4602 644.72 92.2002 668.374 91.9932 692.017C92.0032 693.916 91.5782 695.899 90.0422 697.165C83.8042 703.361 77.7322 709.744 71.0802 715.494C70.8002 686.423 71.2982 657.351 71.3392 628.28C64.1152 627.969 56.8812 628.259 49.6572 628.405C49.1902 674.591 49.0242 720.788 48.9102 766.975C69.8242 746.404 90.2392 725.324 111.173 704.784C112.398 703.58 113.249 702.013 113.135 700.259C112.896 666.496 113.654 632.723 113.498 598.95C112.453 598.94 24.3592 598.496 7.75718 599.407C7.37018 616.881 6.51019 734.667 5.57218 879.405C-139.166 880.344 -256.952 881.204 -274.426 881.59C-275.337 898.192 -274.893 986.286 -274.883 987.331C-241.11 987.487 -207.337 986.729 -173.574 986.968C-171.82 987.082 -170.253 986.231 -169.049 985.006C-148.509 964.072 -127.429 943.656 -106.858 922.743C-153.044 922.857 -199.241 923.023 -245.428 923.49C-245.573 930.714 -245.864 937.948 -245.553 945.172C-216.482 945.13 -187.41 944.632 -158.339 944.913C-164.089 951.566 -170.472 957.638 -176.668 963.875C-177.934 965.411 -179.917 965.837 -181.816 965.826C-205.459 966.034 -229.113 966.293 -252.756 966.158C-252.31 944.85 -252.829 923.532 -252.725 902.224C-220.547 901.809 -107.753 901.189 26.6492 900.48Z" fill="white" fill-opacity="0.03"/>
<path d="M26.6491 86.8704C-107.754 86.1624 -220.547 85.5414 -252.723 85.1283C-252.827 63.8204 -252.308 42.5024 -252.754 21.1944C-229.111 21.0594 -205.457 21.3194 -181.814 21.5264C-179.915 21.5164 -177.932 21.9413 -176.666 23.4773C-170.47 29.7153 -164.087 35.7873 -158.337 42.4394C-187.408 42.7193 -216.48 42.2213 -245.551 42.1803C-245.862 49.4043 -245.572 56.6384 -245.426 63.8624C-199.24 64.3294 -153.043 64.4953 -106.856 64.6093C-127.427 43.6953 -148.507 23.2803 -169.047 2.34633C-170.251 1.12133 -171.818 0.270359 -173.572 0.384358C-207.335 0.623358 -241.108 -0.134648 -274.881 0.0213519C-274.891 1.06635 -275.335 89.1604 -274.424 105.762C-256.95 106.149 -139.164 107.009 5.57413 107.947C6.51314 252.685 7.37313 370.471 7.75913 387.945C24.3611 388.856 112.455 388.412 113.5 388.402C113.656 354.629 112.898 320.856 113.137 287.093C113.251 285.339 112.4 283.772 111.175 282.568C90.2411 262.028 69.8251 240.948 48.9121 220.377C49.0261 266.563 49.1921 312.76 49.6591 358.947C56.8831 359.092 64.1171 359.383 71.3411 359.072C71.2991 330.001 70.8011 300.929 71.0821 271.858C77.7351 277.608 83.8071 283.991 90.0441 290.187C91.5801 291.453 92.0061 293.436 91.9951 295.335C92.2031 318.978 92.4621 342.632 92.3271 366.275C71.0191 365.829 49.7011 366.348 28.3931 366.244C27.9781 334.066 27.3581 221.272 26.6491 86.8704Z" fill="white" fill-opacity="0.03"/>
<path d="M80.6696 798.941C79.7456 796.896 79.6426 793.617 76.9126 793.191C67.6546 791.136 58.1476 790.264 48.6606 790.202C52.8066 806.315 52.6006 805.488 61.4576 819.44C82.9976 816.935 82.6616 819.894 96.9326 823.457C89.6166 816.741 83.6066 808.521 80.6696 798.941Z" fill="white" fill-opacity="0.03"/>
<path d="M80.6696 188.41C79.7456 190.455 79.6426 193.734 76.9126 194.16C67.6546 196.215 58.1476 197.087 48.6606 197.149C52.8066 181.036 52.6006 181.864 61.4576 167.912C82.9976 170.417 82.6616 167.457 96.9326 163.895C89.6166 170.61 83.6066 178.83 80.6696 188.41Z" fill="white" fill-opacity="0.03"/>
<path d="M71.557 593.78C72.418 574.631 71.578 555.451 72.522 536.301C77.66 536.052 82.797 536.01 87.935 536.01C88.516 529.025 88.745 522.019 88.589 515.013C76.082 515.013 63.576 515.47 51.059 515.044C50.717 541.282 49.959 567.51 50.384 593.758C57.452 593.542 64.499 594.019 71.557 593.78Z" fill="white" fill-opacity="0.03"/>
<path d="M71.557 393.57C72.418 412.719 71.578 431.899 72.522 451.049C77.66 451.298 82.797 451.34 87.935 451.34C88.516 458.325 88.745 465.331 88.589 472.337C76.082 472.337 63.576 471.88 51.059 472.306C50.717 446.068 49.959 419.84 50.384 393.592C57.452 393.808 64.499 393.331 71.557 393.57Z" fill="white" fill-opacity="0.03"/>
</svg>
