<svg width="371" height="988" viewBox="0 0 371 988" fill="none" xmlns="http://www.w3.org/2000/svg">
<path d="M284.314 493.677C284.423 488.268 284.547 482.86 284.663 477.455C277.325 477.6 269.998 477.112 262.67 477.549C262.466 482.925 262.452 488.302 262.176 493.678C262.452 499.054 262.466 504.431 262.67 509.807C269.998 510.243 277.325 509.755 284.663 509.901C284.548 504.494 284.424 499.086 284.314 493.677Z" fill="white" fill-opacity="0.03"/>
<path d="M41.775 338.283C23.752 340.047 9.035 334.842 0 353.499C15.099 361.964 18.449 359.41 43.862 346.099C43.187 343.493 42.491 340.888 41.775 338.283Z" fill="white" fill-opacity="0.03"/>
<path d="M41.775 649.071C23.752 647.307 9.035 652.512 0 633.855C15.099 625.39 18.449 627.944 43.862 641.255C43.187 643.861 42.491 646.466 41.775 649.071Z" fill="white" fill-opacity="0.03"/>
<path d="M50.639 469.784C66.033 451.811 53.296 424.949 48.594 400.121C47.442 393.821 48.158 387.365 47.151 381.055C43.684 393.012 45.241 405.622 44.691 417.89C44.607 436.292 40.877 457.105 22.553 459.302C17.779 459.956 13.762 456.946 9.74495 454.901C8.38695 479.808 36.983 485.019 50.639 469.784Z" fill="white" fill-opacity="0.03"/>
<path d="M50.639 517.57C66.033 535.543 53.296 562.405 48.594 587.233C47.442 593.533 48.158 599.989 47.151 606.299C43.684 594.342 45.241 581.732 44.691 569.464C44.607 551.062 40.877 530.249 22.553 528.052C17.779 527.398 13.762 530.408 9.74495 532.453C8.38695 507.546 36.983 502.335 50.639 517.57Z" fill="white" fill-opacity="0.03"/>
<path d="M18.1939 301.687C15.3919 307.686 13.0149 314.505 14.4989 321.179C15.6819 325.933 20.5499 328.309 24.8879 329.503C30.7419 331.008 36.6989 332.253 42.7399 332.752C43.2799 330.085 43.7989 327.396 44.3069 324.708C33.9909 319.123 24.9609 311.287 18.1939 301.687Z" fill="white" fill-opacity="0.03"/>
<path d="M18.1939 685.667C15.3919 679.668 13.0149 672.849 14.4989 666.175C15.6819 661.421 20.5499 659.045 24.8879 657.851C30.7419 656.346 36.6989 655.101 42.7399 654.602C43.2799 657.269 43.7989 659.958 44.3069 662.646C33.9909 668.231 24.9609 676.067 18.1939 685.667Z" fill="white" fill-opacity="0.03"/>
<path d="M49.7777 318.086C56.9497 322.549 65.2427 324.427 73.2447 326.804C79.0877 328.506 85.1807 329.098 91.1897 329.99C72.1207 342.113 57.4687 355.596 53.1927 380.795C48.1317 427.165 97.2117 450.941 121.788 424.719C134.035 412.7 133.848 389.462 119.598 379.052C105.724 368.141 80.5027 380.103 89.5917 398.585C91.7087 396.333 93.3597 393.385 96.3897 392.212C101.216 389.991 108.014 391.62 109.976 396.945C113.629 404.376 108.772 414.091 100.759 415.897C82.7157 421.012 59.8927 398.856 77.2607 365.663C89.2797 347.719 114.498 333.707 152.342 338.117C171.439 340.089 189.198 348.849 204.59 359.975C206.064 356.82 206.147 353.115 208.16 350.198C209.374 348.382 210.807 346.731 212.145 344.998C158.976 309.744 133.798 319.197 93.6797 314.442C75.1437 312.993 47.4387 303.337 42.9367 283.482C36.4427 256.275 64.1797 241.482 77.4367 257.254C82.5017 263.17 78.8487 274.929 70.3587 274.909C64.8577 274.733 63.2487 268.713 61.5367 264.551C51.1447 270.837 55.4867 291.964 75.5797 290.841C92.0107 289.616 104.806 271.071 96.8047 252.345C88.3807 234.263 66.1787 226.899 47.4527 235.126C28.4487 243.46 18.3817 266.979 24.0687 286.689C27.9707 300.068 37.6857 311.339 49.7777 318.086Z" fill="white" fill-opacity="0.03"/>
<path d="M49.7777 669.268C56.9497 664.805 65.2427 662.927 73.2447 660.55C79.0877 658.848 85.1807 658.256 91.1897 657.364C72.1207 645.241 57.4687 631.758 53.1927 606.559C48.1317 560.189 97.2117 536.413 121.788 562.635C134.035 574.654 133.848 597.892 119.598 608.302C105.724 619.213 80.5027 607.251 89.5917 588.769C91.7087 591.021 93.3597 593.969 96.3897 595.142C101.216 597.363 108.014 595.734 109.976 590.409C113.629 582.978 108.772 573.263 100.759 571.457C82.7157 566.342 59.8927 588.498 77.2607 621.691C89.2797 639.635 114.498 653.647 152.342 649.237C171.439 647.265 189.198 638.505 204.59 627.379C206.064 630.534 206.147 634.239 208.16 637.156C209.374 638.972 210.807 640.623 212.145 642.356C158.976 677.61 133.798 668.157 93.6797 672.912C75.1437 674.361 47.4387 684.017 42.9367 703.872C36.4427 731.079 64.1797 745.872 77.4367 730.1C82.5017 724.184 78.8487 712.425 70.3587 712.445C64.8577 712.622 63.2487 718.641 61.5367 722.803C51.1447 716.517 55.4867 695.39 75.5797 696.513C92.0107 697.738 104.806 716.283 96.8047 735.009C88.3807 753.091 66.1787 760.455 47.4527 752.228C28.4487 743.894 18.3817 720.375 24.0687 700.665C27.9707 687.286 37.6857 676.015 49.7777 669.268Z" fill="white" fill-opacity="0.03"/>
<path d="M46.1758 351.091C37.9438 356.962 23.7648 365.547 28.7598 375.43C31.3128 379.997 35.9938 382.695 40.2598 385.425C42.4078 375.16 46.6848 365.477 52.4758 356.758C50.3478 354.9 48.2408 353.011 46.1758 351.091Z" fill="white" fill-opacity="0.03"/>
<path d="M46.1758 636.263C37.9438 630.392 23.7648 621.807 28.7598 611.924C31.3128 607.357 35.9938 604.659 40.2598 601.929C42.4078 612.194 46.6848 621.877 52.4758 630.596C50.3478 632.454 48.2408 634.343 46.1758 636.263Z" fill="white" fill-opacity="0.03"/>
<path d="M222.971 328.662C224.372 327.126 225.784 325.579 227.195 324.033C222.057 317.878 216.505 312.097 211.326 305.984C204.766 298.688 198.913 290.799 192.478 283.41C136.351 215.005 136.553 210.482 122.337 192.635C93.8213 154.446 73.9483 155.937 60.4273 149.687C52.8613 146.874 46.2083 142.256 39.5963 137.72C39.0673 138.716 38.5373 139.702 38.0293 140.678C55.6473 166.327 50.9673 173.89 59.9493 188.577C75.1103 216.763 105.339 230.53 147.828 265.682C203.418 310.384 206.609 315.345 222.971 328.662Z" fill="white" fill-opacity="0.03"/>
<path d="M222.971 658.692C224.372 660.228 225.784 661.775 227.195 663.321C222.057 669.476 216.505 675.257 211.326 681.37C204.766 688.666 198.913 696.555 192.478 703.944C136.351 772.349 136.553 776.872 122.337 794.719C93.8213 832.908 73.9483 831.417 60.4273 837.667C52.8613 840.48 46.2083 845.098 39.5963 849.634C39.0673 848.638 38.5373 847.652 38.0293 846.676C55.6473 821.027 50.9673 813.464 59.9493 798.777C75.1103 770.591 105.339 756.824 147.828 721.672C203.418 676.97 206.609 672.009 222.971 658.692Z" fill="white" fill-opacity="0.03"/>
<path d="M57.2921 352.014C69.9761 337.084 67.8501 339.917 78.3611 332.803C73.9601 332.014 69.4871 331.755 65.1491 330.655C60.1881 329.513 55.5171 327.438 50.5871 326.161C46.2451 337.709 49.0151 345.511 57.2921 352.014Z" fill="white" fill-opacity="0.03"/>
<path d="M57.2921 635.34C69.9761 650.27 67.8501 647.437 78.3611 654.551C73.9601 655.34 69.4871 655.599 65.1491 656.699C60.1881 657.841 55.5171 659.916 50.5871 661.193C46.2451 649.645 49.0151 641.843 57.2921 635.34Z" fill="white" fill-opacity="0.03"/>
<path d="M86.9546 443.879C86.0826 441.782 83.4256 441.782 81.6196 440.931C72.7246 438.264 65.4176 432.233 58.9316 425.819C66.3876 450.911 61.8616 450.823 62.7306 459.81C70.6606 466.878 81.0496 470.417 91.2206 472.836C91.9156 463.038 90.9396 452.939 86.9546 443.879Z" fill="white" fill-opacity="0.03"/>
<path d="M86.9546 543.475C86.0826 545.572 83.4256 545.572 81.6196 546.423C72.7246 549.09 65.4176 555.121 58.9316 561.535C66.3876 536.443 61.8616 536.531 62.7306 527.544C70.6606 520.476 81.0496 516.937 91.2206 514.518C91.9156 524.316 90.9396 534.415 86.9546 543.475Z" fill="white" fill-opacity="0.03"/>
<path d="M217.522 334.308C214.647 331.163 210.807 329.129 207.652 326.295C195.841 316.155 182.888 307.478 170.589 297.961C156.586 287.421 132.412 272.18 115.186 275.76C106.893 278.002 98.8392 284.696 97.9152 293.684C97.1882 298.489 99.3062 303.077 101.516 307.197C106.986 304 112.819 301.25 119.171 300.44C153.889 297.022 191.974 321.012 218.446 343.471C218.207 340.442 218.799 337.131 217.522 334.308Z" fill="white" fill-opacity="0.03"/>
<path d="M217.522 653.046C214.647 656.191 210.807 658.225 207.652 661.059C195.841 671.199 182.888 679.876 170.589 689.393C156.586 699.933 132.412 715.174 115.186 711.594C106.893 709.352 98.8392 702.658 97.9152 693.67C97.1882 688.865 99.3062 684.277 101.516 680.157C106.986 683.354 112.819 686.104 119.171 686.914C153.889 690.332 191.974 666.342 218.446 643.883C218.207 646.912 218.799 650.223 217.522 653.046Z" fill="white" fill-opacity="0.03"/>
<path d="M177.127 411.527C174.415 414.142 117.275 471.149 116.275 472.192C123.081 472.699 299.41 472.578 300.45 472.576C301.073 465.446 301.156 458.263 301 451.102C269.196 450.216 197.506 451.609 167.962 450.583C172.892 445.331 177.978 440.225 183.032 435.098C188.267 430.037 187.281 430.641 195.933 430.573C218.227 430.915 240.521 430.282 262.815 430.77C262.898 435.897 262.94 441.014 263.043 446.131C270.298 446.266 277.563 446.598 284.818 446.079C284.953 433.749 285.42 421.419 285.244 409.088C168.852 409.123 181.324 407.881 177.127 411.527Z" fill="white" fill-opacity="0.03"/>
<path d="M177.127 575.827C174.415 573.212 117.275 516.205 116.275 515.162C123.081 514.655 299.41 514.776 300.45 514.778C301.073 521.908 301.156 529.091 301 536.252C269.196 537.138 197.506 535.745 167.962 536.771C172.892 542.023 177.978 547.129 183.032 552.256C188.267 557.317 187.281 556.713 195.933 556.781C218.227 556.439 240.521 557.072 262.815 556.584C262.898 551.457 262.94 546.34 263.043 541.223C270.298 541.088 277.563 540.756 284.818 541.275C284.953 553.605 285.42 565.935 285.244 578.266C168.852 578.231 181.324 579.473 177.127 575.827Z" fill="white" fill-opacity="0.03"/>
<path d="M194.699 391.517C196.837 381.958 193.381 370.977 184.808 365.704C175.197 359.861 161.279 360.784 153.349 369.119C146.26 375.855 142.378 385.196 140.5 394.641C135.605 421.364 126.714 427.293 116.639 436.053C126.707 433.396 134.968 426.1 140.625 417.558C150.777 403.759 167.194 376.917 184.185 381.885C189.219 383.006 191.679 387.863 194.699 391.517Z" fill="white" fill-opacity="0.03"/>
<path d="M194.699 595.837C196.837 605.396 193.381 616.377 184.808 621.65C175.197 627.493 161.279 626.57 153.349 618.235C146.26 611.499 142.378 602.158 140.5 592.713C135.605 565.99 126.714 560.061 116.639 551.301C126.707 553.958 134.968 561.254 140.625 569.796C150.777 583.595 167.194 610.437 184.185 605.469C189.219 604.348 191.679 599.491 194.699 595.837Z" fill="white" fill-opacity="0.03"/>
<path d="M176.536 198.178C185.452 193.341 191.866 183.253 191.004 172.957C190.609 166.272 183.246 155.345 169.603 158.074C166.614 158.655 165.638 161.738 164.538 164.146C167.6 165.288 171.689 165.246 173.651 168.287C176.059 173.145 173.09 179.662 167.943 181.271C158.353 184.929 146.324 172.638 151.845 158.884C159.613 142.06 178.472 140.987 190.693 148.204C199.619 153.196 204.954 162.548 208.638 171.754C221.542 206.579 208.288 239.502 226.085 281.916C231.295 292.959 236.371 304.21 243.74 314.018C247.829 310.157 253.04 308.092 258.509 307.095C254.067 299.819 249.407 292.637 245.95 284.811C230.245 251.933 234.26 206.547 259.847 184.986C280.067 168.989 308.713 170.958 315.821 193.122C318.25 201.29 314.492 211.95 305.785 214.431C297.98 216.797 289.345 209.065 291.265 201.073C291.846 197.025 295.946 195.448 298.8 193.237C297.735 187.765 282.245 189.54 277.243 199.236C268.589 215.289 279.942 231.576 299.745 234.39C321.759 236.386 343.637 211.926 332.293 184.062C319.853 153.158 265.461 136.88 229.842 192.988C227.81 164.224 214.435 133.446 186.666 126.179C158.765 119.676 139.306 136.614 133.847 151.317C122.477 178.993 148.45 211.473 176.536 198.178Z" fill="white" fill-opacity="0.03"/>
<path d="M176.536 789.177C185.452 794.013 191.866 804.102 191.004 814.398C190.609 821.083 183.246 832.01 169.603 829.281C166.614 828.7 165.638 825.617 164.538 823.209C167.6 822.067 171.689 822.109 173.651 819.068C176.059 814.21 173.09 807.693 167.943 806.084C158.353 802.425 146.324 814.717 151.845 828.471C159.613 845.295 178.472 846.368 190.693 839.151C199.619 834.159 204.954 824.807 208.638 815.601C221.542 780.776 208.288 747.853 226.085 705.439C231.295 694.396 236.371 683.145 243.74 673.337C247.829 677.198 253.04 679.263 258.509 680.26C254.067 687.536 249.407 694.718 245.95 702.544C230.245 735.422 234.26 780.808 259.847 802.369C280.067 818.366 308.713 816.396 315.821 794.232C318.25 786.064 314.492 775.405 305.785 772.924C297.98 770.558 289.345 778.29 291.265 786.282C291.846 790.33 295.946 791.907 298.8 794.118C297.735 799.59 282.245 797.815 277.243 788.119C268.589 772.066 279.942 755.778 299.745 752.965C321.759 750.969 343.637 775.429 332.293 803.293C319.853 834.197 265.461 850.475 229.842 794.367C227.81 823.131 214.435 853.909 186.666 861.176C158.765 867.679 139.306 850.741 133.847 836.038C122.477 808.362 148.45 775.882 176.536 789.177Z" fill="white" fill-opacity="0.03"/>
<path d="M205.057 205.775C200.667 203.056 195.612 200.575 190.298 201.405C182.908 202.173 177.034 207.798 173.671 214.098C162.711 238.225 196.03 277.234 228.949 319.517C231.367 323.378 236.567 322.6 240.449 323.399C235.67 315.433 207.188 285.429 199.545 249.189C194.06 222.239 198.777 215.042 205.057 205.775Z" fill="white" fill-opacity="0.03"/>
<path d="M205.057 781.579C200.667 784.298 195.612 786.779 190.298 785.949C182.908 785.181 177.034 779.556 173.671 773.256C162.711 749.129 196.03 710.12 228.949 667.837C231.367 663.976 236.567 664.754 240.449 663.955C235.67 671.921 207.188 701.925 199.545 738.165C194.06 765.114 198.777 772.312 205.057 781.579Z" fill="white" fill-opacity="0.03"/>
<path d="M222.961 149.22C225.784 148.691 228.607 148.13 231.451 147.632C230.361 140.331 227.962 121.131 220.74 119.194C213.599 116.942 206.334 120.066 199.837 122.858C209.302 129.894 217.73 138.53 222.961 149.22Z" fill="white" fill-opacity="0.03"/>
<path d="M218.394 347.935C209.682 350.859 205.43 365.139 218.436 371.734C215.416 372.191 212.157 372.502 209.728 374.547C205.691 377.588 205.047 382.954 204.009 387.531C214.035 387.905 224.113 388.33 234.139 387.905C236.069 385.653 235.613 382.207 236.391 379.436C239.214 361.522 252.499 345.798 269.77 340.204C275.188 338.201 280.969 337.786 286.625 336.883C286.583 326.784 286.345 316.686 286.314 306.576C282.069 306.804 277.357 307.209 274.191 310.406C271.607 312.585 270.932 316.021 270.185 319.135C268.908 317.526 267.715 315.803 266.054 314.548C260.366 310.344 251.088 311.517 247.455 317.88C244.622 321.896 246.241 326.868 247.33 331.165C243.344 328.498 238.674 325.758 233.682 326.858C227.558 328.726 223.542 335.711 225.14 341.939C225.929 344.638 227.849 346.786 229.437 349.049C225.836 348.268 222.068 346.95 218.394 347.935Z" fill="white" fill-opacity="0.03"/>
<path d="M218.394 639.419C209.682 636.495 205.43 622.215 218.436 615.62C215.416 615.163 212.157 614.852 209.728 612.807C205.691 609.766 205.047 604.4 204.009 599.823C214.035 599.449 224.113 599.024 234.139 599.449C236.069 601.701 235.613 605.147 236.391 607.918C239.214 625.832 252.499 641.556 269.77 647.15C275.188 649.153 280.969 649.568 286.625 650.471C286.583 660.57 286.345 670.668 286.314 680.778C282.069 680.55 277.357 680.145 274.191 676.948C271.607 674.769 270.932 671.333 270.185 668.219C268.908 669.828 267.715 671.551 266.054 672.806C260.366 677.01 251.088 675.837 247.455 669.474C244.622 665.458 246.241 660.486 247.33 656.189C243.344 658.856 238.674 661.596 233.682 660.496C227.558 658.628 223.542 651.643 225.14 645.415C225.929 642.716 227.849 640.568 229.437 638.305C225.836 639.086 222.068 640.404 218.394 639.419Z" fill="white" fill-opacity="0.03"/>
<path d="M226.095 151.877C227.538 157.617 229.935 163.086 231.067 168.898C231.991 173.05 232.177 177.305 232.811 181.488C241.058 169.842 238.829 171.396 252.728 160.076C247.652 150.797 235.447 148.877 226.095 151.877Z" fill="white" fill-opacity="0.03"/>
<path d="M244.777 149.292C255.013 127.583 262.674 122.326 252.987 105.244C235.402 110.383 237.817 125.799 236.204 146.968C239.079 147.684 241.934 148.452 244.777 149.292Z" fill="white" fill-opacity="0.03"/>
<path d="M239.754 388.185C244.871 388.59 250.008 388.527 255.136 388.444C256.542 382.273 257.379 368.835 272.77 360.836C277.036 358.636 281.893 358.324 286.574 357.774C285.982 352.408 287.871 346.44 285.308 341.489C260.49 341.405 239.354 363.708 239.754 388.185Z" fill="white" fill-opacity="0.03"/>
<path d="M239.754 599.169C244.871 598.764 250.008 598.827 255.136 598.91C256.542 605.081 257.379 618.519 272.77 626.518C277.036 628.718 281.893 629.03 286.574 629.58C285.982 634.946 287.871 640.914 285.308 645.865C260.49 645.949 239.354 623.646 239.754 599.169Z" fill="white" fill-opacity="0.03"/>
<path d="M269.635 132.416C259.785 134.17 254.316 143.646 248.794 151.026C251.16 153.455 253.07 156.454 255.976 158.302C264.923 152.853 274.191 147.57 284.674 145.806C280.959 140.294 277.233 132.686 269.635 132.416Z" fill="white" fill-opacity="0.03"/>
<path d="M285.982 361.314C272.365 361.259 260.099 371.037 259.35 387.811C268.203 388.569 277.108 388.34 285.993 388.652C286.47 379.55 286.501 370.416 285.982 361.314Z" fill="white" fill-opacity="0.03"/>
<path d="M285.982 626.04C272.365 626.095 260.099 616.317 259.35 599.543C268.203 598.785 277.108 599.014 285.993 598.702C286.47 607.804 286.501 616.938 285.982 626.04Z" fill="white" fill-opacity="0.03"/>
<path d="M279.921 284.956C278.466 263.011 319.582 246.443 329.596 232.895C333.104 228.09 337.017 223.066 337.671 216.943C333.675 220.669 330.913 225.495 327.011 229.315C312.911 242.24 293.079 242.365 283.701 246.15C250.702 258.551 257.675 290.827 276.559 296.831C280.897 298.076 286.43 300.194 290.416 297.059C286.004 294.027 280.637 290.82 279.921 284.956Z" fill="white" fill-opacity="0.03"/>
<path d="M279.921 702.398C278.466 724.343 319.582 740.911 329.596 754.459C333.104 759.264 337.017 764.288 337.671 770.411C333.675 766.685 330.913 761.859 327.011 758.039C312.911 745.114 293.079 744.989 283.701 741.204C250.702 728.803 257.675 696.527 276.559 690.523C280.897 689.278 286.43 687.16 290.416 690.295C286.004 693.327 280.637 696.534 279.921 702.398Z" fill="white" fill-opacity="0.03"/>
<path d="M361.126 160.699C381.154 153.769 385.262 128.875 372.626 118.706C367.655 114.627 361.209 112.883 354.961 111.96C357.13 116.236 360.389 120.294 360.524 125.307C360.922 135.438 349.724 145.492 334.421 147.341C316.673 149.267 287.07 145.656 280.066 151.046C287.01 151.679 294.067 150.786 300.959 152.177C320.73 155.909 345.979 166.576 361.126 160.699Z" fill="white" fill-opacity="0.03"/>
<path d="M326.242 493.511C325.941 472.577 326.917 451.642 326.927 430.698C331.94 430.522 336.963 430.438 341.976 430.117C342.298 423.163 342.235 416.178 342.069 409.214C330.258 408.581 318.436 408.975 306.615 408.975C305.506 437.19 305.367 465.439 305.23 493.678C305.367 521.917 305.506 550.166 306.615 578.381C318.437 578.381 330.258 578.776 342.069 578.142C342.235 571.178 342.297 564.193 341.976 557.239C336.963 556.917 331.94 556.834 326.927 556.658C326.917 535.713 325.941 514.779 326.242 493.845C326.907 493.772 326.907 493.582 326.242 493.511Z" fill="white" fill-opacity="0.03"/>
<path d="M393.195 86.8721C392.487 221.274 391.866 334.068 391.453 366.244C370.145 366.348 348.827 365.829 327.519 366.275C327.384 342.632 327.644 318.978 327.851 295.335C327.841 293.436 328.266 291.453 329.802 290.187C336.04 283.991 342.112 277.608 348.764 271.858C349.044 300.929 348.546 330.001 348.505 359.072C355.729 359.383 362.963 359.093 370.187 358.947C370.654 312.761 370.82 266.564 370.934 220.377C350.02 240.948 329.605 262.028 308.671 282.568C307.446 283.772 306.595 285.339 306.709 287.093C306.948 320.856 306.19 354.629 306.346 388.402C307.391 388.412 395.485 388.856 412.087 387.945C412.474 370.471 413.334 252.685 414.272 107.947C559.01 107.008 676.796 106.148 694.27 105.762C695.181 89.1601 694.737 1.06616 694.727 0.0211487C660.954 -0.134857 627.181 0.623199 593.418 0.384186C591.664 0.270172 590.097 1.12109 588.893 2.3461C568.353 23.2801 547.273 43.6962 526.702 64.6092C572.888 64.4951 619.085 64.3292 665.272 63.8622C665.417 56.6382 665.708 49.4042 665.397 42.1802C636.326 42.2222 607.254 42.7201 578.183 42.4391C583.933 35.7861 590.316 29.7142 596.512 23.4772C597.778 21.9412 599.761 21.5152 601.66 21.5262C625.303 21.3181 648.957 21.0591 672.6 21.1941C672.154 42.5021 672.673 63.8202 672.569 85.1282C640.391 85.5432 527.597 86.1631 393.195 86.8721Z" fill="white" fill-opacity="0.03"/>
<path d="M393.195 900.482C527.598 901.19 640.391 901.811 672.567 902.224C672.671 923.532 672.152 944.85 672.598 966.158C648.955 966.293 625.301 966.033 601.658 965.826C599.759 965.836 597.776 965.411 596.51 963.875C590.314 957.637 583.931 951.565 578.181 944.913C607.252 944.633 636.324 945.131 665.395 945.172C665.706 937.948 665.416 930.714 665.27 923.49C619.084 923.023 572.887 922.857 526.7 922.743C547.271 943.657 568.351 964.072 588.891 985.006C590.095 986.231 591.662 987.082 593.416 986.968C627.179 986.729 660.952 987.487 694.725 987.331C694.735 986.286 695.179 898.192 694.268 881.59C676.794 881.203 559.008 880.343 414.27 879.405C413.331 734.667 412.471 616.881 412.085 599.407C395.483 598.496 307.389 598.94 306.344 598.95C306.188 632.723 306.946 666.496 306.707 700.259C306.593 702.013 307.444 703.58 308.669 704.784C329.603 725.324 350.019 746.404 370.932 766.975C370.818 720.789 370.652 674.592 370.185 628.405C362.961 628.26 355.727 627.969 348.503 628.28C348.545 657.351 349.043 686.423 348.762 715.494C342.109 709.744 336.037 703.361 329.8 697.165C328.264 695.899 327.838 693.916 327.849 692.017C327.641 668.374 327.382 644.72 327.517 621.077C348.825 621.523 370.143 621.004 391.451 621.108C391.866 653.286 392.486 766.08 393.195 900.482Z" fill="white" fill-opacity="0.03"/>
<path d="M339.174 188.411C340.098 190.456 340.201 193.735 342.931 194.161C352.189 196.216 361.696 197.088 371.183 197.15C367.037 181.037 367.243 181.864 358.386 167.912C336.846 170.417 337.182 167.458 322.911 163.895C330.227 170.611 336.237 178.831 339.174 188.411Z" fill="white" fill-opacity="0.03"/>
<path d="M339.174 798.943C340.098 796.898 340.201 793.619 342.931 793.193C352.189 791.138 361.696 790.266 371.183 790.204C367.037 806.317 367.243 805.489 358.386 819.441C336.846 816.936 337.182 819.896 322.911 823.458C330.227 816.743 336.237 808.523 339.174 798.943Z" fill="white" fill-opacity="0.03"/>
<path d="M348.287 393.572C347.426 412.721 348.266 431.901 347.322 451.051C342.184 451.3 337.047 451.342 331.909 451.342C331.328 458.327 331.099 465.333 331.255 472.339C343.762 472.339 356.268 471.882 368.785 472.308C369.127 446.07 369.885 419.842 369.46 393.594C362.392 393.81 355.345 393.333 348.287 393.572Z" fill="white" fill-opacity="0.03"/>
<path d="M348.287 593.782C347.426 574.633 348.266 555.453 347.322 536.303C342.184 536.054 337.047 536.012 331.909 536.012C331.328 529.027 331.099 522.021 331.255 515.015C343.762 515.015 356.268 515.472 368.785 515.046C369.127 541.284 369.885 567.512 369.46 593.76C362.392 593.544 355.345 594.021 348.287 593.782Z" fill="white" fill-opacity="0.03"/>
</svg>
