<svg width="30" height="30" fill="none" xmlns="http://www.w3.org/2000/svg"><path d="M28.91.029c-.649-.13-1.296.195-1.535.781-.375.815-3.989 4.398-7.09 4.529-1.774.065-3.41-1.108-5.149-2.346C12.886 1.43 10.398-.33 7.193.257 2.455 1.104.24 5.176.136 5.37c-.136.26-.17.587-.102.88l1.364 5.831L5.386 28.99c.137.62.716 1.01 1.33 1.01.102 0 .204 0 .307-.033.75-.162 1.193-.847 1.022-1.563l-2.318-9.871c.614-.913 2.353-3.16 5.08-3.747 1.636-.358 2.932.065 4.432.521 1.67.522 3.58 1.14 6.034.62C26.42 14.786 29.898 8.921 30 1.298c0-.619-.443-1.14-1.09-1.27Zm-8.25 13.356c-1.706.359-3.035-.065-4.57-.553-1.67-.522-3.544-1.14-5.897-.62-2.318.49-4.057 1.792-5.25 3.03l-.136-.586-2.012-8.47c.58-.847 2.182-2.867 4.875-3.356 2.046-.358 3.784.847 5.796 2.28 1.943 1.369 4.193 2.933 6.886 2.835 2.284-.098 4.637-1.368 6.477-2.802-.784 3.91-2.795 7.493-6.17 8.242Z" fill="#688494"/></svg>