<svg width="30" height="30" fill="none" xmlns="http://www.w3.org/2000/svg"><path d="M15.926 0s-2.727 1.687-3.541 2.583c-.815.897-1.416 6.595-1.416 6.595l.08-.01a6.852 6.852 0 0 0-2.336 2.517C4.792 12.73 3.053 15.4 3.053 15.4L0 14.757l1.541 2.7s1.522.776 3.37 1.246c1.352-.305 3.929.47 4.585.679a6.84 6.84 0 0 0 2.144 1.7c.006.035.01.069.018.106.767 3.545 3.276 5.305 3.276 5.305L14.996 30l3.077-3.062.571-2.905-1.124-2.813a6.849 6.849 0 0 0 3.312-3.183l4.371-1.33 2.378-1.631 2.419.38s-1.322-1.665-2.221-2.554c-.871-.86-6.743-1.342-7.133-1.373a6.849 6.849 0 0 0-2.65-2.599l.08.007-1.458-4-1.365-1.378L15.926 0Zm8.514 3.902-1.39 2.68s-2.37-.235-4.343.698l.326.776 2.686 2.608 1.567.148s2.03-2.754 1.931-4.146c-.085-1.193-.777-2.764-.777-2.764Zm-17.637.897c-.938-.007-4.46.731-4.46.731L5.84 7.409l.183 2.298.865 1.456 1.564-1.056s.896-1.236 1.202-1.549c.115-.876.33-2.327.33-2.327S7.537 4.806 6.803 4.8Zm8.004 4.496h.018c1.442 0 2.825.6 3.845 1.668a5.834 5.834 0 0 1 1.592 4.026c0 1.51-.573 2.959-1.593 4.027a5.316 5.316 0 0 1-3.844 1.668c-1.442 0-2.825-.6-3.845-1.668a5.834 5.834 0 0 1-1.593-4.027c0-1.507.571-2.953 1.587-4.02a5.317 5.317 0 0 1 3.833-1.674ZM14.8 10.66s-1.751 4.157-1.686 5.136c.065.986 1.857 3.892 1.857 3.892s1.43-1.91 1.538-2.894c.103-.947-.694-4.865-1.709-6.133Zm8.188 8.128-1.283.4s-2.068 2.313-2.893 2.843c.659 1.356 1.375 2.075 3.327 2.82a207.58 207.58 0 0 1 3.981-.102l-2.498-2.267.041-2.163-.675-1.531Zm-16.633.984-1.548 2.964.365 3.262s1.053-1.52 1.754-2.27c1.39-.134 2.824-.462 3.877-1.435-.852-.701-2.691-2.345-2.691-2.345l-1.757-.176Z" fill="#688494"/></svg>