<svg width="30" height="30" fill="none" xmlns="http://www.w3.org/2000/svg"><path d="M12.514 0c-.083 0-.164.003-.242.008-.124.008-.239.024-.348.046L9.708 3.9c.27-.07.553-.107.844-.107 1.357 0 2.53.811 3.067 1.974l2.483-4.307c-.288-.366-.932-.83-1.709-1.113A5.705 5.705 0 0 0 12.514 0Zm5.431 1.113c-.1-.002-.194.003-.283.012l-2.821 4.898c.305-.092.63-.143.964-.143a3.39 3.39 0 0 1 3.023 1.875l2.735-4.747c-.261-.44-.882-.995-1.634-1.367-.661-.328-1.406-.517-1.984-.528ZM7.65 2.976c-.69.014-1.353.259-2.06.776-.66.483-1.34 1.215-2.045 2.18l3.03 1.033 2.196-3.81a3.384 3.384 0 0 0-1.121-.18ZM22.307 4.09l-2.839 4.93a3.31 3.31 0 0 1 1.073-.18 3.36 3.36 0 0 1 2.972 1.81l2.343-4.063c-.226-.54-.817-1.222-1.533-1.716-.69-.477-1.486-.76-2.015-.781Zm-11.755.889c-1.221 0-2.2.98-2.2 2.206 0 1.225.979 2.206 2.2 2.206 1.22 0 2.198-.98 2.198-2.206a2.193 2.193 0 0 0-2.198-2.206Zm-8 1.868c-.65 3.206-.587 6.482.385 9.273l.035.101.012-.014.451.649c.056.08.115.16.177.24-.053-2.616.666-5.666 2.372-9.078l-3.432-1.17Zm13.253.219a2.191 2.191 0 0 0-2.198 2.204c0 1.225.977 2.206 2.198 2.206 1.22 0 2.2-.98 2.2-2.206a2.193 2.193 0 0 0-2.2-2.204Zm10.726.805-2.647 4.595-.01.117a3.13 3.13 0 0 1 .851-.12c1.35 0 2.508.86 2.96 2.06L30 10.509c-.217-.563-.8-1.276-1.507-1.798-.673-.496-1.447-.8-1.962-.839Zm-19.244.204c-2.114 4.048-2.747 7.49-2.402 10.195.008.067.018.131.028.197 1.27 1.138 2.989 2.28 4.83 3.283 2.546 1.386 5.33 2.532 7.482 3.182 2.663-.968 5.341-2.952 7.55-6.124l-.05.002a3.177 3.177 0 0 1-3.154-3.406c-.325.105-.67.164-1.03.164a3.37 3.37 0 0 1-3.352-3.206c-.423.192-.891.3-1.384.3a3.394 3.394 0 0 1-3.31-2.704c-.55.39-1.222.619-1.943.619a3.399 3.399 0 0 1-3.265-2.502Zm13.254 1.95a2.167 2.167 0 0 0-2.172 2.179c0 1.21.966 2.178 2.172 2.178 1.206 0 2.17-.968 2.17-2.178s-.964-2.178-2.17-2.178Zm4.184 3.627c-1.1 0-1.98.882-1.98 1.986s.88 1.986 1.98 1.986 1.98-.882 1.98-1.986-.88-1.986-1.98-1.986ZM2.956 18.168c-.47.614-.898 1.217-1.289 1.808.204.581.64 1.234 1.31 1.902.88.881 2.142 1.78 3.662 2.607 2.635 1.434 6.048 2.657 9.633 3.335.195-.568.37-1.165.521-1.794-2.24-.682-5.019-1.82-7.615-3.233-2.496-1.36-4.795-2.93-6.222-4.625Zm-2.04 3.004c-.28.477-.537.944-.767 1.402.092.576.504 1.282 1.241 2.014.776.77 1.89 1.561 3.237 2.29 2.604 1.406 6.07 2.584 9.645 3.122h1.101c.164-.338.323-.688.474-1.052-3.63-.705-7.063-1.944-9.774-3.42-1.594-.867-2.938-1.817-3.933-2.81-.5-.502-.918-1.017-1.223-1.546ZM0 24.824v2.164c.066.147.202.348.436.57.333.316.835.662 1.447.986 1.196.633 2.815 1.185 4.475 1.456h2.687c-1.825-.577-3.52-1.29-4.98-2.08-1.42-.767-2.62-1.605-3.509-2.489A8.329 8.329 0 0 1 0 24.824Zm0 3.922V30h2.176c-.295-.13-.579-.266-.845-.407A8.787 8.787 0 0 1 0 28.746Z" fill="#5EA6CF"/></svg>