<svg width="129" height="65" fill="none" xmlns="http://www.w3.org/2000/svg"><path d="M10.225.672V22H5.962V.672h4.263Zm5.302 0v3.56H.762V.671h14.765ZM23.98 4.48 19.395 22h-4.527L21.533.672h2.827l-.38 3.808ZM27.598 22 22.983 4.48 22.56.672h2.87L32.154 22h-4.555Zm.16-7.954v3.56h-9.623v-3.56h9.624ZM34.205.672h6.84c1.427 0 2.643.244 3.648.732a5.184 5.184 0 0 1 2.315 2.168c.537.957.806 2.139.806 3.545 0 1.153-.157 2.139-.47 2.96-.312.81-.756 1.488-1.332 2.035a6.613 6.613 0 0 1-2.066 1.29l-1.303.776H37.09l-.015-3.56h3.853c.586 0 1.07-.127 1.45-.38.39-.264.679-.63.864-1.1.196-.478.293-1.034.293-1.67 0-.673-.088-1.25-.263-1.728-.166-.488-.435-.86-.806-1.113-.361-.264-.835-.396-1.421-.396h-2.549V22h-4.292V.672ZM43.887 22l-3.911-9.507 4.497-.014 3.999 9.316V22h-4.585ZM58.565.672V22h-4.263V.672h4.263Zm5.302 0v3.56H49.102V.671h14.765ZM72.32 4.48 67.734 22h-4.526L69.873.672H72.7l-.38 3.808ZM75.937 22 71.323 4.48 70.898.672h2.871L80.493 22h-4.555Zm.162-7.954v3.56h-9.624v-3.56h9.624ZM82.544.672h6.84c1.427 0 2.642.244 3.648.732a5.183 5.183 0 0 1 2.315 2.168c.537.957.805 2.139.805 3.545 0 1.153-.156 2.139-.468 2.96-.313.81-.757 1.488-1.333 2.035a6.615 6.615 0 0 1-2.066 1.29l-1.304.776H85.43l-.015-3.56h3.853c.585 0 1.069-.127 1.45-.38.39-.264.678-.63.864-1.1.195-.478.293-1.034.293-1.67 0-.673-.088-1.25-.264-1.728-.166-.488-.434-.86-.805-1.113-.362-.264-.835-.396-1.421-.396h-2.55V22h-4.291V.672ZM92.227 22l-3.912-9.507 4.498-.014 3.998 9.316V22h-4.584ZM101.602.672l3.252 9.61 3.222-9.61h4.673l-5.742 13.579V22h-4.321v-7.749L96.943.671h4.659Zm18.676 3.808L115.693 22h-4.526L117.832.672h2.827l-.381 3.808ZM123.896 22l-4.614-17.52-.425-3.808h2.872L128.452 22h-4.556Zm.162-7.954v3.56h-9.624v-3.56h9.624ZM10.942 58.252l6.144-32.643h4.06l1.213 5.063L15.768 64h-4.404l-.422-5.748ZM8.833 25.609l4.957 32.722L12.946 64H8.095L1.213 25.61h7.62ZM26.815 58.2l4.931-32.59h7.594L32.51 64h-4.877l-.818-5.8Zm-3.322-32.59 6.197 32.828L29.188 64h-4.403L18.22 30.62l1.239-5.01h4.034Zm32.854 6.856L48.094 64h-8.148l11.997-38.39h5.09l-.686 6.855ZM62.859 64l-8.305-31.535-.765-6.856h5.168L71.06 64h-8.2Zm.29-14.317v6.407H45.826v-6.407H63.15Zm11.602-24.074h12.313c2.567 0 4.755.44 6.566 1.319 1.81.879 3.2 2.18 4.166 3.902.967 1.723 1.45 3.85 1.45 6.38 0 2.075-.281 3.85-.844 5.327-.562 1.46-1.362 2.68-2.4 3.665-1.036.967-2.275 1.74-3.717 2.32L89.94 49.92h-9.994l-.026-6.407h6.934c1.055 0 1.925-.229 2.61-.686.704-.474 1.223-1.134 1.556-1.977.352-.862.528-1.864.528-3.006 0-1.213-.158-2.25-.475-3.112-.299-.879-.782-1.547-1.45-2.004-.65-.474-1.503-.711-2.558-.711h-4.587V64H74.75V25.61ZM92.18 64l-7.04-17.112 8.094-.027 7.199 16.77V64H92.18Zm28.687-10.099c0-.685-.061-1.31-.184-1.872a3.55 3.55 0 0 0-.791-1.555c-.387-.475-.958-.95-1.714-1.424-.739-.475-1.705-.967-2.901-1.477a68.952 68.952 0 0 1-4.139-1.898 19.477 19.477 0 0 1-3.613-2.373 10.311 10.311 0 0 1-2.557-3.164c-.615-1.23-.923-2.672-.923-4.325 0-1.617.29-3.085.87-4.403a9.598 9.598 0 0 1 2.531-3.375c1.09-.95 2.365-1.679 3.824-2.188 1.476-.51 3.12-.765 4.93-.765 2.461 0 4.588.51 6.381 1.53 1.811 1.019 3.208 2.416 4.192 4.192 1.002 1.775 1.503 3.814 1.503 6.117h-7.699c0-1.09-.158-2.048-.474-2.874-.299-.844-.783-1.503-1.451-1.978-.668-.474-1.529-.712-2.584-.712-.984 0-1.801.203-2.452.607a3.62 3.62 0 0 0-1.424 1.608c-.298.668-.448 1.424-.448 2.268 0 .633.15 1.204.448 1.714.317.492.747.94 1.292 1.344.545.387 1.187.765 1.925 1.134.756.37 1.582.73 2.479 1.081 1.74.686 3.278 1.442 4.614 2.268 1.336.809 2.452 1.722 3.349 2.742a10.31 10.31 0 0 1 2.03 3.401c.457 1.266.685 2.707.685 4.325 0 1.6-.281 3.058-.843 4.377a9.346 9.346 0 0 1-2.4 3.375c-1.054.931-2.329 1.652-3.823 2.162-1.477.51-3.129.764-4.957.764-1.775 0-3.454-.246-5.036-.738-1.582-.51-2.98-1.274-4.193-2.294-1.195-1.037-2.135-2.347-2.821-3.929-.685-1.6-1.028-3.489-1.028-5.669h7.725c0 1.16.115 2.154.343 2.98.229.808.58 1.459 1.055 1.951a4.635 4.635 0 0 0 1.74 1.081c.703.229 1.503.343 2.4.343 1.019 0 1.828-.193 2.425-.58a3.24 3.24 0 0 0 1.319-1.556c.263-.65.395-1.389.395-2.215Z" fill="#5C5C5C"/></svg>