<svg width="30" height="18" fill="none" xmlns="http://www.w3.org/2000/svg"><path d="M27.242 12.86c.094-.074.227-.01.243.106.008.074.015.147.015.22C27.5 15.226 23.336 18 15 18S2.5 15.225 2.5 13.195c0-.073.007-.148.016-.213a.157.157 0 0 1 .09-.126.147.147 0 0 1 .151.02c2.07 1.53 6.15 2.84 12.243 2.84 6.101 0 10.18-1.31 12.242-2.856ZM15 11.787c-6.758 0-11.235-1.58-13.422-3.405a.15.15 0 0 0-.13-.033.15.15 0 0 0-.104.083c-.114.222-.173.469-.171.72 0 2.25 4.608 5.254 13.827 5.254 9.219 0 13.829-2.995 13.829-5.254 0-.255-.055-.491-.173-.72a.155.155 0 0 0-.105-.084.148.148 0 0 0-.13.034C26.234 10.207 21.76 11.787 15 11.787ZM30 4.42c0 2.595-5 6.057-15 6.057S0 7.015 0 4.42C0 1.826 5 0 15 0s15 1.826 15 4.42Zm-4.375-.409c0-1.302-3.539-2.046-10.625-2.046S4.375 2.71 4.375 4.01c0 1.302 3.539 3.193 10.625 3.193S25.625 5.313 25.625 4.01Z" fill="#688494"/></svg>