<svg width="487" height="114" viewBox="0 0 487 114" fill="none" xmlns="http://www.w3.org/2000/svg">
<path d="M14.7064 104.088C14.685 104.28 14.6744 104.547 14.6744 104.888L14.7064 104.088ZM29.0104 100.92C30.397 101.197 31.4317 101.667 32.1144 102.328C32.8184 102.968 33.1704 103.896 33.1704 105.112V105.176C33.1704 106.349 32.861 107.299 32.2424 108.024C31.6237 108.728 30.6424 109.251 29.2984 109.592C27.9757 109.912 26.205 110.072 23.9864 110.072H10.6744V92.6H24.4344H24.9784C27.133 92.6 28.7864 92.9627 29.9384 93.688C31.1117 94.4134 31.6984 95.4694 31.6984 96.856V96.984C31.6984 98.008 31.4744 98.84 31.0264 99.48C30.5997 100.12 29.9277 100.6 29.0104 100.92ZM27.7944 97.56C27.7944 96.8774 27.613 96.3867 27.2504 96.088C26.8877 95.7894 26.4184 95.608 25.8424 95.544C25.2877 95.4587 24.4664 95.416 23.3784 95.416H14.7064V99.832L22.8984 99.896H23.3784C24.4664 99.896 25.277 99.864 25.8104 99.8C26.365 99.736 26.8344 99.544 27.2184 99.224C27.6024 98.8827 27.7944 98.328 27.7944 97.56ZM23.9224 107.096C25.1384 107.096 26.0664 107.064 26.7064 107C27.3677 106.915 27.901 106.712 28.3064 106.392C28.7117 106.051 28.9144 105.517 28.9144 104.792C28.9144 104.067 28.7117 103.544 28.3064 103.224C27.901 102.904 27.3677 102.712 26.7064 102.648C26.0664 102.563 25.1384 102.52 23.9224 102.52H23.8584H14.7064V107.096H23.9224ZM46.6526 97.144C49.81 97.144 52.1246 97.688 53.5966 98.776C55.09 99.864 55.8366 101.475 55.8366 103.608V103.704C55.8366 105.731 55.2393 107.299 54.0446 108.408C52.8713 109.496 50.8553 110.04 47.9966 110.04C47.3993 110.04 46.962 110.029 46.6846 110.008V110.04H35.6766L35.5806 92.6H39.5806L39.6126 97.144H46.5886H46.6526ZM57.7566 110.04V92.6H61.7566V110.04H57.7566ZM47.2926 107.032C48.0606 107.032 48.7646 106.979 49.4046 106.872C50.0446 106.744 50.642 106.424 51.1966 105.912C51.7513 105.379 52.0286 104.557 52.0286 103.448C52.0286 102.339 51.7513 101.539 51.1966 101.048C50.642 100.536 50.066 100.237 49.4686 100.152C48.8926 100.067 48.1673 100.024 47.2926 100.024H47.2286H39.6126L39.6446 107.032H47.2926ZM64.6431 92.6H86.4031V110.04H82.4031V96.152H68.6431V110.04H64.6431V92.6ZM100.212 91.864C102.303 91.864 104.18 92.2694 105.844 93.08C107.529 93.8907 108.841 95.0214 109.78 96.472C110.74 97.9014 111.22 99.512 111.22 101.304C111.22 103.075 110.74 104.685 109.78 106.136C108.841 107.565 107.529 108.685 105.844 109.496C104.18 110.307 102.303 110.712 100.212 110.712C98.2068 110.712 96.3188 110.307 94.5481 109.496C92.7988 108.664 91.4015 107.533 90.3561 106.104C89.3108 104.653 88.7881 103.053 88.7881 101.304C88.7881 99.5334 89.3108 97.9334 90.3561 96.504C91.4015 95.0534 92.7988 93.9227 94.5481 93.112C96.2975 92.28 98.1855 91.864 100.212 91.864ZM100.244 107.832C102.207 107.832 103.86 107.309 105.204 106.264C106.548 105.197 107.22 103.544 107.22 101.304C107.22 99.064 106.548 97.4107 105.204 96.344C103.86 95.2774 102.207 94.744 100.244 94.744C99.0068 94.744 97.8228 94.968 96.6921 95.416C95.5615 95.864 94.6335 96.5787 93.9081 97.56C93.2041 98.5414 92.8521 99.7894 92.8521 101.304C92.8521 102.819 93.2041 104.067 93.9081 105.048C94.6335 106.008 95.5508 106.712 96.6601 107.16C97.7908 107.608 98.9855 107.832 100.244 107.832ZM136.204 92.664V110.04H132.204V95.96H121.26C121.004 99.3094 120.759 101.688 120.524 103.096C120.289 104.504 119.905 105.667 119.372 106.584C118.753 107.523 118.017 108.248 117.164 108.76C116.311 109.272 115.5 109.624 114.732 109.816C113.985 110.008 113.612 110.083 113.612 110.04V106.04C114.743 106.04 115.596 105.464 116.172 104.312C116.62 103.139 116.929 102.061 117.1 101.08C117.292 100.077 117.409 99.032 117.452 97.944C117.495 96.856 117.516 95.096 117.516 92.664H136.204ZM156.617 99.672V92.6H160.521V110.04H156.617V102.776H142.985V110.04H139.081V92.6H142.985V99.672H156.617ZM185.089 101.56H166.913C166.977 102.648 167.286 103.672 167.841 104.632C168.396 105.571 169.217 106.339 170.305 106.936C171.393 107.533 172.716 107.832 174.273 107.832C175.617 107.832 176.801 107.597 177.825 107.128C178.87 106.637 179.67 106.04 180.225 105.336C180.801 104.611 181.089 103.917 181.089 103.256H185.089C185.089 104.365 184.662 105.496 183.809 106.648C182.956 107.8 181.708 108.76 180.065 109.528C178.422 110.296 176.47 110.68 174.209 110.68C172.182 110.68 170.305 110.285 168.577 109.496C166.849 108.685 165.473 107.565 164.449 106.136C163.425 104.685 162.913 103.043 162.913 101.208C162.913 99.3307 163.404 97.6774 164.385 96.248C165.388 94.7974 166.742 93.688 168.449 92.92C170.177 92.1307 172.097 91.736 174.209 91.736C176.364 91.736 178.252 92.12 179.873 92.888C181.516 93.656 182.785 94.744 183.681 96.152C184.598 97.5387 185.068 99.1707 185.089 101.048V101.56ZM174.273 94.616C172.438 94.616 170.956 95.0214 169.825 95.832C168.694 96.6427 167.884 97.7094 167.393 99.032H180.833C180.47 97.7094 179.756 96.6427 178.689 95.832C177.644 95.0214 176.172 94.616 174.273 94.616ZM205.023 99.672V92.6H208.927V110.04H205.023V102.776H191.391V110.04H187.487V92.6H191.391V99.672H205.023ZM229.335 99.672V92.6H233.239V110.04H229.335V102.776H215.703V110.04H211.799V92.6H215.703V99.672H229.335ZM247.184 97.144C250.341 97.144 252.656 97.688 254.128 98.776C255.621 99.864 256.368 101.475 256.368 103.608V103.704C256.368 105.731 255.771 107.299 254.576 108.408C253.403 109.496 251.387 110.04 248.528 110.04C247.931 110.04 247.493 110.029 247.216 110.008V110.04H236.208L236.112 92.6H240.112L240.144 97.144H247.12H247.184ZM258.288 110.04V92.6H262.288V110.04H258.288ZM247.824 107.032C248.592 107.032 249.296 106.979 249.936 106.872C250.576 106.744 251.173 106.424 251.728 105.912C252.283 105.379 252.56 104.557 252.56 103.448C252.56 102.339 252.283 101.539 251.728 101.048C251.173 100.536 250.597 100.237 250 100.152C249.424 100.067 248.699 100.024 247.824 100.024H247.76H240.144L240.176 107.032H247.824ZM282.358 92.6H287.35L279.478 101.4L287.35 110.04H282.358L275.702 102.84L269.046 110.04H264.054L271.958 101.4L264.054 92.6H269.046L275.702 99.896L282.358 92.6ZM321.483 104.44C321.462 106.616 320.47 108.216 318.507 109.24C316.545 110.243 313.985 110.744 310.827 110.744C308.523 110.744 306.539 110.445 304.875 109.848C303.233 109.229 301.974 108.365 301.099 107.256C300.246 106.147 299.819 104.867 299.819 103.416H303.819C303.819 104.781 304.491 105.795 305.835 106.456C307.201 107.117 308.865 107.459 310.827 107.48C312.641 107.501 314.187 107.267 315.467 106.776C316.747 106.285 317.387 105.496 317.387 104.408C317.387 103.896 317.291 103.533 317.099 103.32C316.929 103.085 316.47 102.915 315.723 102.808C314.998 102.68 313.793 102.616 312.107 102.616H307.755V99.672H312.107C313.707 99.672 314.923 99.5334 315.755 99.256C316.609 98.9787 317.035 98.4454 317.035 97.656C317.035 96.9307 316.427 96.3974 315.211 96.056C314.017 95.6934 312.555 95.512 310.827 95.512C308.865 95.4694 307.201 95.6507 305.835 96.056C304.491 96.4614 303.819 97.1334 303.819 98.072H299.819C299.819 95.8107 300.961 94.2747 303.243 93.464C305.526 92.6534 308.054 92.248 310.827 92.248C313.601 92.248 315.99 92.5787 317.995 93.24C320.022 93.9014 321.035 95.3094 321.035 97.464C321.035 99.1494 320.427 100.323 319.211 100.984C320.726 101.645 321.483 102.787 321.483 104.408V104.44ZM334.773 91.832C337.461 91.832 339.872 92.344 342.005 93.368C344.138 94.392 345.205 96.1947 345.205 98.776V110.04H341.653L341.205 106.68C340.906 107.299 340.277 107.896 339.317 108.472C338.378 109.027 337.237 109.475 335.893 109.816C334.57 110.157 333.205 110.328 331.797 110.328C330.154 110.328 328.373 109.987 326.453 109.304C324.533 108.621 323.573 107.128 323.573 104.824C323.573 103.309 323.989 102.157 324.821 101.368C325.653 100.557 326.56 100.035 327.541 99.8C328.522 99.544 329.397 99.416 330.165 99.416C333.856 99.416 336.405 99.3947 337.813 99.352C339.242 99.288 340.17 99.1707 340.597 99C341.024 98.808 341.248 98.4774 341.269 98.008V97.72C341.248 97.1867 340.928 96.696 340.309 96.248C339.712 95.7787 338.912 95.4054 337.909 95.128C336.906 94.8507 335.84 94.712 334.709 94.712C332.789 94.6694 331.157 94.936 329.813 95.512C328.469 96.088 327.797 97.016 327.797 98.296H323.765C323.765 96.6534 324.352 95.352 325.525 94.392C326.698 93.432 328.117 92.7707 329.781 92.408C331.445 92.024 333.109 91.832 334.773 91.832ZM333.333 106.808C336.32 106.808 338.378 106.2 339.509 104.984C340.661 103.768 341.237 102.392 341.237 100.856C340.192 101.645 338.058 102.04 334.837 102.04C333.066 102.04 331.69 102.093 330.709 102.2C329.749 102.307 329.034 102.52 328.565 102.84C328.096 103.139 327.84 103.587 327.797 104.184C327.861 104.995 328.298 105.635 329.109 106.104C329.941 106.573 331.349 106.808 333.333 106.808ZM356.465 100.376L369.681 110.008H363.505L352.081 101.56V110.04H348.081V92.6H352.081V99.288L362.513 92.664H368.785L356.465 100.376ZM381.054 91.832C383.742 91.832 386.153 92.344 388.286 93.368C390.42 94.392 391.486 96.1947 391.486 98.776V110.04H387.934L387.486 106.68C387.188 107.299 386.558 107.896 385.598 108.472C384.66 109.027 383.518 109.475 382.174 109.816C380.852 110.157 379.486 110.328 378.078 110.328C376.436 110.328 374.654 109.987 372.734 109.304C370.814 108.621 369.854 107.128 369.854 104.824C369.854 103.309 370.27 102.157 371.102 101.368C371.934 100.557 372.841 100.035 373.822 99.8C374.804 99.544 375.678 99.416 376.446 99.416C380.137 99.416 382.686 99.3947 384.094 99.352C385.524 99.288 386.452 99.1707 386.878 99C387.305 98.808 387.529 98.4774 387.55 98.008V97.72C387.529 97.1867 387.209 96.696 386.59 96.248C385.993 95.7787 385.193 95.4054 384.19 95.128C383.188 94.8507 382.121 94.712 380.99 94.712C379.07 94.6694 377.438 94.936 376.094 95.512C374.75 96.088 374.078 97.016 374.078 98.296H370.046C370.046 96.6534 370.633 95.352 371.806 94.392C372.98 93.432 374.398 92.7707 376.062 92.408C377.726 92.024 379.39 91.832 381.054 91.832ZM379.614 106.808C382.601 106.808 384.66 106.2 385.79 104.984C386.942 103.768 387.518 102.392 387.518 100.856C386.473 101.645 384.34 102.04 381.118 102.04C379.348 102.04 377.972 102.093 376.99 102.2C376.03 102.307 375.316 102.52 374.846 102.84C374.377 103.139 374.121 103.587 374.078 104.184C374.142 104.995 374.58 105.635 375.39 106.104C376.222 106.573 377.63 106.808 379.614 106.808ZM415.546 104.44C415.525 106.616 414.533 108.216 412.57 109.24C410.607 110.243 408.047 110.744 404.89 110.744C402.586 110.744 400.602 110.445 398.938 109.848C397.295 109.229 396.037 108.365 395.162 107.256C394.309 106.147 393.882 104.867 393.882 103.416H397.882C397.882 104.781 398.554 105.795 399.898 106.456C401.263 107.117 402.927 107.459 404.89 107.48C406.703 107.501 408.25 107.267 409.53 106.776C410.81 106.285 411.45 105.496 411.45 104.408C411.45 103.896 411.354 103.533 411.162 103.32C410.991 103.085 410.533 102.915 409.786 102.808C409.061 102.68 407.855 102.616 406.17 102.616H401.818V99.672H406.17C407.77 99.672 408.986 99.5334 409.818 99.256C410.671 98.9787 411.098 98.4454 411.098 97.656C411.098 96.9307 410.49 96.3974 409.274 96.056C408.079 95.6934 406.618 95.512 404.89 95.512C402.927 95.4694 401.263 95.6507 399.898 96.056C398.554 96.4614 397.882 97.1334 397.882 98.072H393.882C393.882 95.8107 395.023 94.2747 397.306 93.464C399.589 92.6534 402.117 92.248 404.89 92.248C407.663 92.248 410.053 92.5787 412.058 93.24C414.085 93.9014 415.098 95.3094 415.098 97.464C415.098 99.1494 414.49 100.323 413.274 100.984C414.789 101.645 415.546 102.787 415.546 104.408V104.44ZM428.9 91.864C430.99 91.864 432.868 92.2694 434.532 93.08C436.217 93.8907 437.529 95.0214 438.468 96.472C439.428 97.9014 439.908 99.512 439.908 101.304C439.908 103.075 439.428 104.685 438.468 106.136C437.529 107.565 436.217 108.685 434.532 109.496C432.868 110.307 430.99 110.712 428.9 110.712C426.894 110.712 425.006 110.307 423.236 109.496C421.486 108.664 420.089 107.533 419.044 106.104C417.998 104.653 417.476 103.053 417.476 101.304C417.476 99.5334 417.998 97.9334 419.044 96.504C420.089 95.0534 421.486 93.9227 423.236 93.112C424.985 92.28 426.873 91.864 428.9 91.864ZM428.932 107.832C430.894 107.832 432.548 107.309 433.892 106.264C435.236 105.197 435.908 103.544 435.908 101.304C435.908 99.064 435.236 97.4107 433.892 96.344C432.548 95.2774 430.894 94.744 428.932 94.744C427.694 94.744 426.51 94.968 425.38 95.416C424.249 95.864 423.321 96.5787 422.596 97.56C421.892 98.5414 421.54 99.7894 421.54 101.304C421.54 102.819 421.892 104.067 422.596 105.048C423.321 106.008 424.238 106.712 425.348 107.16C426.478 107.608 427.673 107.832 428.932 107.832ZM446.331 104.088C446.31 104.28 446.299 104.547 446.299 104.888L446.331 104.088ZM460.635 100.92C462.022 101.197 463.057 101.667 463.739 102.328C464.443 102.968 464.795 103.896 464.795 105.112V105.176C464.795 106.349 464.486 107.299 463.867 108.024C463.249 108.728 462.267 109.251 460.923 109.592C459.601 109.912 457.83 110.072 455.611 110.072H442.299V92.6H456.059H456.603C458.758 92.6 460.411 92.9627 461.563 93.688C462.737 94.4134 463.323 95.4694 463.323 96.856V96.984C463.323 98.008 463.099 98.84 462.651 99.48C462.225 100.12 461.553 100.6 460.635 100.92ZM459.419 97.56C459.419 96.8774 459.238 96.3867 458.875 96.088C458.513 95.7894 458.043 95.608 457.467 95.544C456.913 95.4587 456.091 95.416 455.003 95.416H446.331V99.832L454.523 99.896H455.003C456.091 99.896 456.902 99.864 457.435 99.8C457.99 99.736 458.459 99.544 458.843 99.224C459.227 98.8827 459.419 98.328 459.419 97.56ZM455.547 107.096C456.763 107.096 457.691 107.064 458.331 107C458.993 106.915 459.526 106.712 459.931 106.392C460.337 106.051 460.539 105.517 460.539 104.792C460.539 104.067 460.337 103.544 459.931 103.224C459.526 102.904 458.993 102.712 458.331 102.648C457.691 102.563 456.763 102.52 455.547 102.52H455.483H446.331V107.096H455.547Z" fill="white"/>
<path d="M22.337 51.76C26.257 51.76 29.3904 52.12 31.737 52.84C34.1104 53.5334 35.8037 54.5734 36.817 55.96C37.857 57.3467 38.377 59.1067 38.377 61.24V61.36C38.377 64.24 37.2037 66.5734 34.857 68.36C32.537 70.1467 28.777 71.0534 23.577 71.08H2.09703V41.48H36.137V48H11.377V51.76H22.337ZM21.977 64.12C24.2437 64.12 25.8704 63.9067 26.857 63.48C27.8437 63.0267 28.337 62.1334 28.337 60.8C28.337 59.92 28.097 59.2667 27.617 58.84C27.1637 58.3867 26.497 58.1067 25.617 58C24.7637 57.8667 23.5504 57.8 21.977 57.8H21.937H11.377V64.04C16.3904 64.04 19.5904 64.0667 20.977 64.12H21.977ZM59.0564 40.8C62.7097 40.8 66.0031 41.48 68.9364 42.84C71.8964 44.1734 74.2031 46.0267 75.8564 48.4C77.5364 50.7467 78.3764 53.4 78.3764 56.36C78.3764 59.2934 77.5364 61.9334 75.8564 64.28C74.2031 66.6267 71.9097 68.48 68.9764 69.84C66.0431 71.1734 62.7497 71.84 59.0964 71.84C55.5764 71.84 52.3231 71.1734 49.3364 69.84C46.3497 68.48 43.9764 66.6267 42.2164 64.28C40.4831 61.9067 39.6164 59.2667 39.6164 56.36C39.6164 53.4267 40.4831 50.7734 42.2164 48.4C43.9764 46.0267 46.3364 44.1734 49.2964 42.84C52.2831 41.48 55.5364 40.8 59.0564 40.8ZM59.0964 64.36C60.5897 64.36 62.0164 64.04 63.3764 63.4C64.7631 62.76 65.8831 61.84 66.7364 60.64C67.5897 59.44 68.0164 58.0134 68.0164 56.36C68.0164 54.7067 67.5764 53.28 66.6964 52.08C65.8431 50.8534 64.7231 49.9334 63.3364 49.32C61.9497 48.68 60.5097 48.36 59.0164 48.36C57.4964 48.36 56.0564 48.68 54.6964 49.32C53.3364 49.96 52.2297 50.8934 51.3764 52.12C50.5497 53.32 50.1364 54.7334 50.1364 56.36C50.1364 58.0134 50.5631 59.44 51.4164 60.64C52.2697 61.84 53.3764 62.76 54.7364 63.4C56.1231 64.04 57.5764 64.36 59.0964 64.36ZM114.531 41.44V71.04H104.651V48.44H94.8911C94.3044 51.9334 93.6911 54.9334 93.0511 57.44C92.4111 59.92 91.5044 62.52 90.3311 65.24C89.1311 67.7734 87.4511 69.3867 85.2911 70.08C83.1578 70.7467 81.4778 71.0667 80.2511 71.04C79.0511 71.04 78.3711 71.04 78.2111 71.04V63.08C79.4911 63.08 80.4644 62.84 81.1311 62.36C81.7978 61.8534 82.2778 61.16 82.5711 60.28C84.3044 54.6267 85.4111 48.3467 85.8911 41.44H114.531ZM146.16 59.52H127.68V64.04L149.52 63.88V71.04H117.8V41.44H149.52L149.56 48.6H127.68V52.52H146.16V59.52ZM180.613 59.52H162.133V64.04L183.973 63.88V71.04H152.253V41.44H183.973L184.013 48.6H162.133V52.52H180.613V59.52ZM225.866 3.8147e-05V71.04H203.594V24.96H187.562V12.096C193.898 12.096 198.602 11.36 201.674 9.88804C204.81 8.41604 206.73 6.84804 207.434 5.18403C208.138 3.45603 208.49 1.72803 208.49 3.8147e-05H225.866ZM317.721 46.176L293.145 45.696L317.721 46.176ZM317.721 46.272C317.529 53.248 315.001 58.752 310.137 62.784C305.273 66.752 299.577 69.472 293.049 70.944C286.585 72.352 280.217 73.056 273.945 73.056C268.185 73.056 262.233 72.256 256.089 70.656C249.945 69.056 244.665 66.336 240.249 62.496C235.897 58.656 233.721 53.632 233.721 47.424H255.993C255.993 50.688 257.721 53.152 261.177 54.816C264.633 56.416 268.825 57.312 273.753 57.504C279.129 57.76 283.705 56.96 287.481 55.104C291.257 53.248 293.145 50.144 293.145 45.792C293.145 41.44 291.609 38.144 288.537 35.904C285.465 33.664 280.537 32.544 273.753 32.544C268.633 32.544 264.345 33.44 260.889 35.232C257.497 36.96 255.801 39.424 255.801 42.624V42.816L234.009 42.912V3.8147e-05H314.361V14.4H255.801V27.072C259.321 24.768 263.545 23.136 268.473 22.176C273.465 21.216 278.713 20.736 284.217 20.736C290.745 20.736 296.537 21.76 301.593 23.808C306.649 25.792 310.585 28.704 313.401 32.544C316.281 36.384 317.721 40.928 317.721 46.176V46.272ZM350.825 49.44V41.44H385.785L350.825 49.44ZM385.785 41.44V49.48H373.305V71.04H363.465V49.48H350.825V41.44H385.785ZM409.936 50.56C412.47 50.56 414.683 50.96 416.576 51.76C418.47 52.56 419.936 53.7334 420.976 55.28C422.043 56.8267 422.576 58.68 422.576 60.84V61C422.576 62.9734 422.043 64.72 420.976 66.24C419.936 67.76 418.456 68.9467 416.536 69.8C414.643 70.6267 412.456 71.04 409.976 71.04H388.456V41.44H398.336V50.56H409.936ZM423.976 71.04V41.44H433.816V71.04H423.976ZM408.736 64.64C410.39 64.64 411.616 64.3867 412.416 63.88C413.243 63.3734 413.656 62.3467 413.656 60.8C413.656 59.7067 413.456 58.8934 413.056 58.36C412.656 57.8267 412.123 57.48 411.456 57.32C410.79 57.16 409.883 57.08 408.736 57.08H408.696H398.336V64.6C401.483 64.6 403.683 64.6134 404.936 64.64C406.216 64.64 407.083 64.64 407.536 64.64H408.736ZM436.289 56.28C436.289 53.32 437.156 50.6534 438.889 48.28C440.649 45.9067 443.036 44.0534 446.049 42.72C449.089 41.36 452.449 40.68 456.129 40.68C459.436 40.68 462.423 41.2134 465.089 42.28C467.756 43.32 469.943 44.8 471.649 46.72C473.356 48.6134 474.489 50.84 475.049 53.4H464.809C464.409 52.3334 463.729 51.4134 462.769 50.64C461.836 49.84 460.783 49.24 459.609 48.84C458.436 48.44 457.289 48.24 456.169 48.24C454.596 48.24 453.063 48.56 451.569 49.2C450.103 49.84 448.903 50.7734 447.969 52C447.063 53.2 446.609 54.6267 446.609 56.28C446.609 57.9334 447.063 59.3734 447.969 60.6C448.876 61.8 450.049 62.72 451.489 63.36C452.956 63.9734 454.516 64.28 456.169 64.28C458.009 64.28 459.703 63.84 461.249 62.96C462.823 62.08 463.983 60.8267 464.729 59.2H475.009C474.423 61.7334 473.276 63.96 471.569 65.88C469.863 67.7734 467.689 69.24 465.049 70.28C462.409 71.32 459.436 71.84 456.129 71.84C452.476 71.84 449.129 71.16 446.089 69.8C443.076 68.44 440.689 66.5734 438.929 64.2C437.169 61.8267 436.289 59.1867 436.289 56.28ZM476.879 63.64H485.559V71.04H476.879V63.64Z" fill="#E86C00"/>
</svg>
