<svg width="485" height="272" viewBox="0 0 485 272" fill="none" xmlns="http://www.w3.org/2000/svg">
<path d="M38.5018 210.68C38.4591 212.216 38.0965 213.667 37.4138 215.032C36.7311 216.376 35.7498 217.475 34.4698 218.328C33.2111 219.16 31.7285 219.576 30.0218 219.576C26.3311 219.576 23.5151 218.659 21.5738 216.824V225.08H17.5738V201.56H20.9018L21.4138 204.12C23.4191 202.157 26.2885 201.176 30.0218 201.176C31.6645 201.176 33.1151 201.581 34.3738 202.392C35.6538 203.203 36.6565 204.312 37.3818 205.72C38.1071 207.128 38.4805 208.707 38.5018 210.456V210.552V210.68ZM27.7818 216.76C29.1685 216.76 30.3418 216.44 31.3018 215.8C32.2831 215.139 33.0191 214.328 33.5098 213.368C34.0218 212.387 34.2885 211.437 34.3098 210.52C34.2885 209.432 34.0431 208.397 33.5738 207.416C33.1258 206.413 32.4111 205.592 31.4298 204.952C30.4698 204.291 29.2538 203.96 27.7818 203.96C26.5658 203.96 25.4885 204.269 24.5498 204.888C23.6111 205.485 22.8751 206.275 22.3418 207.256C21.8298 208.216 21.5738 209.229 21.5738 210.296C21.5738 211.469 21.8298 212.547 22.3418 213.528C22.8538 214.509 23.5791 215.299 24.5178 215.896C25.4778 216.472 26.5658 216.76 27.7818 216.76ZM51.9538 200.792C54.6418 200.792 57.0525 201.304 59.1858 202.328C61.3191 203.352 62.3858 205.155 62.3858 207.736V219H58.8338L58.3858 215.64C58.0871 216.259 57.4578 216.856 56.4978 217.432C55.5591 217.987 54.4178 218.435 53.0738 218.776C51.7511 219.117 50.3858 219.288 48.9778 219.288C47.3351 219.288 45.5538 218.947 43.6338 218.264C41.7138 217.581 40.7538 216.088 40.7538 213.784C40.7538 212.269 41.1698 211.117 42.0018 210.328C42.8338 209.517 43.7405 208.995 44.7218 208.76C45.7031 208.504 46.5778 208.376 47.3458 208.376C51.0365 208.376 53.5858 208.355 54.9938 208.312C56.4231 208.248 57.3511 208.131 57.7778 207.96C58.2045 207.768 58.4285 207.437 58.4498 206.968V206.68C58.4285 206.147 58.1085 205.656 57.4898 205.208C56.8925 204.739 56.0925 204.365 55.0898 204.088C54.0871 203.811 53.0205 203.672 51.8898 203.672C49.9698 203.629 48.3378 203.896 46.9938 204.472C45.6498 205.048 44.9778 205.976 44.9778 207.256H40.9458C40.9458 205.613 41.5325 204.312 42.7058 203.352C43.8791 202.392 45.2978 201.731 46.9618 201.368C48.6258 200.984 50.2898 200.792 51.9538 200.792ZM50.5138 215.768C53.5005 215.768 55.5591 215.16 56.6898 213.944C57.8418 212.728 58.4178 211.352 58.4178 209.816C57.3725 210.605 55.2391 211 52.0178 211C50.2471 211 48.8711 211.053 47.8898 211.16C46.9298 211.267 46.2151 211.48 45.7458 211.8C45.2765 212.099 45.0205 212.547 44.9778 213.144C45.0418 213.955 45.4791 214.595 46.2898 215.064C47.1218 215.533 48.5298 215.768 50.5138 215.768ZM87.2133 210.936V210.968C87.192 216.664 83.608 219.512 76.4613 219.512C73.048 219.512 70.36 218.755 68.3973 217.24C66.4346 215.725 65.24 213.272 64.8133 209.88C64.792 209.539 64.7813 209.048 64.7813 208.408C64.7813 204.931 65.432 202.317 66.7333 200.568C68.056 198.797 69.656 197.667 71.5333 197.176C73.4106 196.685 75.5973 196.44 78.0933 196.44H78.1573C79.096 196.483 80.2266 196.44 81.5493 196.312C82.872 196.184 83.5333 195.853 83.5333 195.32L87.8533 195.352C87.8533 197.059 87.128 198.232 85.6773 198.872C84.2266 199.512 82.4773 199.832 80.4293 199.832C79.5546 199.832 78.6906 199.789 77.8373 199.704L77.1333 199.672C74.5733 199.672 72.5146 200.195 70.9573 201.24C69.4213 202.285 68.5573 204.035 68.3653 206.488C69.24 205.336 70.488 204.579 72.1093 204.216C73.7306 203.832 75.5866 203.64 77.6773 203.64C80.536 203.64 82.8293 204.28 84.5573 205.56C86.3066 206.819 87.192 208.6 87.2133 210.904V210.936ZM76.3973 215.832C77.3573 215.832 78.2853 215.779 79.1813 215.672C80.0773 215.544 80.984 215.139 81.9013 214.456C82.8186 213.752 83.2773 212.653 83.2773 211.16C83.32 209.304 82.7333 208.003 81.5173 207.256C80.3226 206.509 78.8186 206.147 77.0053 206.168C74.3386 206.211 72.3973 206.52 71.1813 207.096C69.9866 207.672 69.3146 208.536 69.1653 209.688C69.144 209.837 69.1333 210.061 69.1333 210.36C69.1333 212.451 69.88 213.891 71.3733 214.68C72.888 215.448 74.5626 215.832 76.3973 215.832ZM101.362 200.824C103.452 200.824 105.33 201.229 106.994 202.04C108.679 202.851 109.991 203.981 110.93 205.432C111.89 206.861 112.37 208.472 112.37 210.264C112.37 212.035 111.89 213.645 110.93 215.096C109.991 216.525 108.679 217.645 106.994 218.456C105.33 219.267 103.452 219.672 101.362 219.672C99.3562 219.672 97.4682 219.267 95.6975 218.456C93.9482 217.624 92.5509 216.493 91.5055 215.064C90.4602 213.613 89.9375 212.013 89.9375 210.264C89.9375 208.493 90.4602 206.893 91.5055 205.464C92.5509 204.013 93.9482 202.883 95.6975 202.072C97.4469 201.24 99.3349 200.824 101.362 200.824ZM101.394 216.792C103.356 216.792 105.01 216.269 106.354 215.224C107.698 214.157 108.37 212.504 108.37 210.264C108.37 208.024 107.698 206.371 106.354 205.304C105.01 204.237 103.356 203.704 101.394 203.704C100.156 203.704 98.9722 203.928 97.8415 204.376C96.7109 204.824 95.7829 205.539 95.0575 206.52C94.3535 207.501 94.0015 208.749 94.0015 210.264C94.0015 211.779 94.3535 213.027 95.0575 214.008C95.7829 214.968 96.7002 215.672 97.8095 216.12C98.9402 216.568 100.135 216.792 101.394 216.792ZM134.64 201.56V205.112H125.968V219H121.968V205.112H113.168V201.56H134.64ZM148.391 200.792C151.079 200.792 153.49 201.304 155.623 202.328C157.757 203.352 158.823 205.155 158.823 207.736V219H155.271L154.823 215.64C154.525 216.259 153.895 216.856 152.935 217.432C151.997 217.987 150.855 218.435 149.511 218.776C148.189 219.117 146.823 219.288 145.415 219.288C143.773 219.288 141.991 218.947 140.071 218.264C138.151 217.581 137.191 216.088 137.191 213.784C137.191 212.269 137.607 211.117 138.439 210.328C139.271 209.517 140.178 208.995 141.159 208.76C142.141 208.504 143.015 208.376 143.783 208.376C147.474 208.376 150.023 208.355 151.431 208.312C152.861 208.248 153.789 208.131 154.215 207.96C154.642 207.768 154.866 207.437 154.887 206.968V206.68C154.866 206.147 154.546 205.656 153.927 205.208C153.33 204.739 152.53 204.365 151.527 204.088C150.525 203.811 149.458 203.672 148.327 203.672C146.407 203.629 144.775 203.896 143.431 204.472C142.087 205.048 141.415 205.976 141.415 207.256H137.383C137.383 205.613 137.97 204.312 139.143 203.352C140.317 202.392 141.735 201.731 143.399 201.368C145.063 200.984 146.727 200.792 148.391 200.792ZM146.951 215.768C149.938 215.768 151.997 215.16 153.127 213.944C154.279 212.728 154.855 211.352 154.855 209.816C153.81 210.605 151.677 211 148.455 211C146.685 211 145.309 211.053 144.327 211.16C143.367 211.267 142.653 211.48 142.183 211.8C141.714 212.099 141.458 212.547 141.415 213.144C141.479 213.955 141.917 214.595 142.727 215.064C143.559 215.533 144.967 215.768 146.951 215.768ZM183.395 210.52H165.219C165.283 211.608 165.592 212.632 166.147 213.592C166.701 214.531 167.523 215.299 168.611 215.896C169.699 216.493 171.021 216.792 172.579 216.792C173.923 216.792 175.107 216.557 176.131 216.088C177.176 215.597 177.976 215 178.531 214.296C179.107 213.571 179.395 212.877 179.395 212.216H183.395C183.395 213.325 182.968 214.456 182.115 215.608C181.261 216.76 180.013 217.72 178.371 218.488C176.728 219.256 174.776 219.64 172.515 219.64C170.488 219.64 168.611 219.245 166.883 218.456C165.155 217.645 163.779 216.525 162.755 215.096C161.731 213.645 161.219 212.003 161.219 210.168C161.219 208.291 161.709 206.637 162.691 205.208C163.693 203.757 165.048 202.648 166.755 201.88C168.483 201.091 170.403 200.696 172.515 200.696C174.669 200.696 176.557 201.08 178.179 201.848C179.821 202.616 181.091 203.704 181.987 205.112C182.904 206.499 183.373 208.131 183.395 210.008V210.52ZM172.579 203.576C170.744 203.576 169.261 203.981 168.131 204.792C167 205.603 166.189 206.669 165.699 207.992H179.139C178.776 206.669 178.061 205.603 176.995 204.792C175.949 203.981 174.477 203.576 172.579 203.576ZM215.809 201.56V219H211.809V205.08L203.105 219H198.785L189.793 205.432V219H185.793V201.56H191.553L200.961 215.736L210.337 201.56H215.809ZM229.406 210.296C229.406 208.504 229.897 206.893 230.878 205.464C231.881 204.013 233.246 202.883 234.974 202.072C236.724 201.261 238.665 200.856 240.798 200.856C243.87 200.856 246.249 201.496 247.934 202.776C249.62 204.056 250.868 205.848 251.678 208.152H247.646C247.454 207.384 247.049 206.659 246.43 205.976C245.812 205.293 245.022 204.749 244.062 204.344C243.102 203.939 242.046 203.736 240.894 203.736C239.316 203.736 237.972 204.024 236.862 204.6C235.753 205.176 234.91 205.965 234.334 206.968C233.78 207.949 233.502 209.059 233.502 210.296C233.502 211.363 233.769 212.408 234.302 213.432C234.836 214.456 235.657 215.299 236.766 215.96C237.876 216.6 239.252 216.899 240.894 216.856C242.068 216.856 243.134 216.653 244.094 216.248C245.054 215.821 245.833 215.277 246.43 214.616C247.049 213.933 247.444 213.219 247.614 212.472H251.646C251.497 213.667 250.889 214.829 249.822 215.96C248.777 217.069 247.444 217.976 245.822 218.68C244.222 219.384 242.548 219.736 240.798 219.736C238.772 219.736 236.884 219.331 235.134 218.52C233.385 217.688 231.988 216.547 230.942 215.096C229.918 213.645 229.406 212.045 229.406 210.296ZM273.645 209.336L286.861 218.968H280.685L269.261 210.52V219H265.261V201.56H269.261V208.248L279.693 201.624H285.965L273.645 209.336ZM309.564 210.68C309.522 212.216 309.159 213.667 308.476 215.032C307.794 216.376 306.812 217.475 305.532 218.328C304.274 219.16 302.791 219.576 301.084 219.576C297.394 219.576 294.578 218.659 292.636 216.824V225.08H288.636V201.56H291.964L292.476 204.12C294.482 202.157 297.351 201.176 301.084 201.176C302.727 201.176 304.178 201.581 305.436 202.392C306.716 203.203 307.719 204.312 308.444 205.72C309.17 207.128 309.543 208.707 309.564 210.456V210.552V210.68ZM298.844 216.76C300.231 216.76 301.404 216.44 302.364 215.8C303.346 215.139 304.082 214.328 304.572 213.368C305.084 212.387 305.351 211.437 305.372 210.52C305.351 209.432 305.106 208.397 304.636 207.416C304.188 206.413 303.474 205.592 302.492 204.952C301.532 204.291 300.316 203.96 298.844 203.96C297.628 203.96 296.551 204.269 295.612 204.888C294.674 205.485 293.938 206.275 293.404 207.256C292.892 208.216 292.636 209.229 292.636 210.296C292.636 211.469 292.892 212.547 293.404 213.528C293.916 214.509 294.642 215.299 295.58 215.896C296.54 216.472 297.628 216.76 298.844 216.76ZM333.03 201.56L322.79 222.936C322.278 223.896 321.392 224.525 320.134 224.824C318.896 225.144 317.35 225.304 315.494 225.304L315.462 221.368C316.443 221.368 317.136 221.272 317.542 221.08C317.947 220.909 318.15 220.653 318.15 220.312C318.15 220.077 318.064 219.789 317.894 219.448C317.744 219.128 317.648 218.925 317.606 218.84L308.614 201.56H313.126L321.158 218.264L328.518 201.56H333.03ZM334.949 201.56H356.709V219H352.709V205.112H338.949V219H334.949V201.56ZM377.11 208.632V201.56H381.014V219H377.11V211.736H363.478V219H359.574V201.56H363.478V208.632H377.11ZM394.958 206.104C398.116 206.104 400.43 206.648 401.902 207.736C403.396 208.824 404.142 210.435 404.142 212.568V212.664C404.142 214.691 403.545 216.259 402.35 217.368C401.177 218.456 399.161 219 396.302 219C395.705 219 395.268 218.989 394.99 218.968V219H383.982L383.886 201.56H387.886L387.918 206.104H394.894H394.958ZM406.062 219V201.56H410.062V219H406.062ZM395.598 215.992C396.366 215.992 397.07 215.939 397.71 215.832C398.35 215.704 398.948 215.384 399.502 214.872C400.057 214.339 400.334 213.517 400.334 212.408C400.334 211.299 400.057 210.499 399.502 210.008C398.948 209.496 398.372 209.197 397.774 209.112C397.198 209.027 396.473 208.984 395.598 208.984H395.534H387.918L387.95 215.992H395.598ZM442.965 201.56V219H438.965V205.08L430.261 219H425.941L416.949 205.432V219H412.949V201.56H418.709L428.117 215.736L437.493 201.56H442.965ZM449.855 214.744L463.263 201.56H467.263V219H463.263V205.816L449.855 219H445.855V201.56H449.855V214.744ZM21.664 237.4C21.6427 239.576 20.6507 241.176 18.688 242.2C16.7254 243.203 14.1654 243.704 11.008 243.704C8.70404 243.704 6.72004 243.405 5.05604 242.808C3.41337 242.189 2.15471 241.325 1.28004 240.216C0.426706 239.107 3.91006e-05 237.827 3.91006e-05 236.376H4.00004C4.00004 237.741 4.67204 238.755 6.01604 239.416C7.38137 240.077 9.04537 240.419 11.008 240.44C12.8214 240.461 14.368 240.227 15.648 239.736C16.928 239.245 17.568 238.456 17.568 237.368C17.568 236.856 17.472 236.493 17.28 236.28C17.1094 236.045 16.6507 235.875 15.904 235.768C15.1787 235.64 13.9734 235.576 12.288 235.576H7.93604V232.632H12.288C13.888 232.632 15.104 232.493 15.936 232.216C16.7894 231.939 17.216 231.405 17.216 230.616C17.216 229.891 16.608 229.357 15.392 229.016C14.1974 228.653 12.736 228.472 11.008 228.472C9.04537 228.429 7.38137 228.611 6.01604 229.016C4.67204 229.421 4.00004 230.093 4.00004 231.032H3.91006e-05C3.91006e-05 228.771 1.14137 227.235 3.42404 226.424C5.70671 225.613 8.23471 225.208 11.008 225.208C13.7814 225.208 16.1707 225.539 18.176 226.2C20.2027 226.861 21.216 228.269 21.216 230.424C21.216 232.109 20.608 233.283 19.392 233.944C20.9067 234.605 21.664 235.747 21.664 237.368V237.4ZM34.9538 224.792C37.6418 224.792 40.0525 225.304 42.1858 226.328C44.3191 227.352 45.3858 229.155 45.3858 231.736V243H41.8338L41.3858 239.64C41.0871 240.259 40.4578 240.856 39.4978 241.432C38.5591 241.987 37.4178 242.435 36.0738 242.776C34.7511 243.117 33.3858 243.288 31.9778 243.288C30.3351 243.288 28.5538 242.947 26.6338 242.264C24.7138 241.581 23.7538 240.088 23.7538 237.784C23.7538 236.269 24.1698 235.117 25.0018 234.328C25.8338 233.517 26.7405 232.995 27.7218 232.76C28.7031 232.504 29.5778 232.376 30.3458 232.376C34.0365 232.376 36.5858 232.355 37.9938 232.312C39.4231 232.248 40.3511 232.131 40.7778 231.96C41.2045 231.768 41.4285 231.437 41.4498 230.968V230.68C41.4285 230.147 41.1085 229.656 40.4898 229.208C39.8925 228.739 39.0925 228.365 38.0898 228.088C37.0871 227.811 36.0205 227.672 34.8898 227.672C32.9698 227.629 31.3378 227.896 29.9938 228.472C28.6498 229.048 27.9778 229.976 27.9778 231.256H23.9458C23.9458 229.613 24.5325 228.312 25.7058 227.352C26.8791 226.392 28.2978 225.731 29.9618 225.368C31.6258 224.984 33.2898 224.792 34.9538 224.792ZM33.5138 239.768C36.5005 239.768 38.5591 239.16 39.6898 237.944C40.8418 236.728 41.4178 235.352 41.4178 233.816C40.3725 234.605 38.2391 235 35.0178 235C33.2471 235 31.8711 235.053 30.8898 235.16C29.9298 235.267 29.2151 235.48 28.7458 235.8C28.2765 236.099 28.0205 236.547 27.9778 237.144C28.0418 237.955 28.4791 238.595 29.2898 239.064C30.1218 239.533 31.5298 239.768 33.5138 239.768ZM52.2933 237.048C52.272 237.24 52.2613 237.507 52.2613 237.848L52.2933 237.048ZM66.5973 233.88C67.984 234.157 69.0186 234.627 69.7013 235.288C70.4053 235.928 70.7573 236.856 70.7573 238.072V238.136C70.7573 239.309 70.448 240.259 69.8293 240.984C69.2106 241.688 68.2293 242.211 66.8853 242.552C65.5626 242.872 63.792 243.032 61.5733 243.032H48.2613V225.56H62.0213H62.5653C64.72 225.56 66.3733 225.923 67.5253 226.648C68.6986 227.373 69.2853 228.429 69.2853 229.816V229.944C69.2853 230.968 69.0613 231.8 68.6133 232.44C68.1866 233.08 67.5146 233.56 66.5973 233.88ZM65.3813 230.52C65.3813 229.837 65.2 229.347 64.8373 229.048C64.4746 228.749 64.0053 228.568 63.4293 228.504C62.8746 228.419 62.0533 228.376 60.9653 228.376H52.2933V232.792L60.4853 232.856H60.9653C62.0533 232.856 62.864 232.824 63.3973 232.76C63.952 232.696 64.4213 232.504 64.8053 232.184C65.1893 231.843 65.3813 231.288 65.3813 230.52ZM61.5093 240.056C62.7253 240.056 63.6533 240.024 64.2933 239.96C64.9546 239.875 65.488 239.672 65.8933 239.352C66.2986 239.011 66.5013 238.477 66.5013 237.752C66.5013 237.027 66.2986 236.504 65.8933 236.184C65.488 235.864 64.9546 235.672 64.2933 235.608C63.6533 235.523 62.7253 235.48 61.5093 235.48H61.4453H52.2933V240.056H61.5093ZM84.1115 224.824C86.2022 224.824 88.0795 225.229 89.7435 226.04C91.4289 226.851 92.7409 227.981 93.6795 229.432C94.6395 230.861 95.1195 232.472 95.1195 234.264C95.1195 236.035 94.6395 237.645 93.6795 239.096C92.7409 240.525 91.4289 241.645 89.7435 242.456C88.0795 243.267 86.2022 243.672 84.1115 243.672C82.1062 243.672 80.2182 243.267 78.4475 242.456C76.6982 241.624 75.3009 240.493 74.2555 239.064C73.2102 237.613 72.6875 236.013 72.6875 234.264C72.6875 232.493 73.2102 230.893 74.2555 229.464C75.3009 228.013 76.6982 226.883 78.4475 226.072C80.1969 225.24 82.0849 224.824 84.1115 224.824ZM84.1435 240.792C86.1062 240.792 87.7595 240.269 89.1035 239.224C90.4475 238.157 91.1195 236.504 91.1195 234.264C91.1195 232.024 90.4475 230.371 89.1035 229.304C87.7595 228.237 86.1062 227.704 84.1435 227.704C82.9062 227.704 81.7222 227.928 80.5915 228.376C79.4609 228.824 78.5329 229.539 77.8075 230.52C77.1035 231.501 76.7515 232.749 76.7515 234.264C76.7515 235.779 77.1035 237.027 77.8075 238.008C78.5329 238.968 79.4502 239.672 80.5595 240.12C81.6902 240.568 82.8849 240.792 84.1435 240.792ZM120.71 239.704H123.878V246.072H119.91V243.032L99.75 243V246.072H95.75V239.704H97.35C98.502 238.253 99.334 236.952 99.846 235.8C100.379 234.627 100.731 233.315 100.902 231.864C101.073 230.392 101.158 228.291 101.158 225.56H120.678L120.71 239.704ZM104.838 228.664C104.817 230.584 104.731 232.152 104.582 233.368C104.433 234.563 104.155 235.651 103.75 236.632C103.345 237.613 102.747 238.637 101.958 239.704H116.678V228.696L104.838 228.664ZM137.173 224.792C139.861 224.792 142.271 225.304 144.405 226.328C146.538 227.352 147.605 229.155 147.605 231.736V243H144.053L143.605 239.64C143.306 240.259 142.677 240.856 141.717 241.432C140.778 241.987 139.637 242.435 138.293 242.776C136.97 243.117 135.605 243.288 134.197 243.288C132.554 243.288 130.773 242.947 128.853 242.264C126.933 241.581 125.973 240.088 125.973 237.784C125.973 236.269 126.389 235.117 127.221 234.328C128.053 233.517 128.959 232.995 129.941 232.76C130.922 232.504 131.797 232.376 132.565 232.376C136.255 232.376 138.805 232.355 140.213 232.312C141.642 232.248 142.57 232.131 142.997 231.96C143.423 231.768 143.647 231.437 143.669 230.968V230.68C143.647 230.147 143.327 229.656 142.709 229.208C142.111 228.739 141.311 228.365 140.309 228.088C139.306 227.811 138.239 227.672 137.109 227.672C135.189 227.629 133.557 227.896 132.213 228.472C130.869 229.048 130.197 229.976 130.197 231.256H126.165C126.165 229.613 126.751 228.312 127.925 227.352C129.098 226.392 130.517 225.731 132.181 225.368C133.845 224.984 135.509 224.792 137.173 224.792ZM135.733 239.768C138.719 239.768 140.778 239.16 141.909 237.944C143.061 236.728 143.637 235.352 143.637 233.816C142.591 234.605 140.458 235 137.237 235C135.466 235 134.09 235.053 133.109 235.16C132.149 235.267 131.434 235.48 130.965 235.8C130.495 236.099 130.239 236.547 130.197 237.144C130.261 237.955 130.698 238.595 131.509 239.064C132.341 239.533 133.749 239.768 135.733 239.768ZM180.496 225.56V243H176.496V229.08L167.792 243H163.472L154.48 229.432V243H150.48V225.56H156.24L165.648 239.736L175.024 225.56H180.496ZM198.574 238.744L211.982 225.56H215.982V243H211.982V229.816L198.574 243H194.574V225.56H198.574V238.744ZM238.427 233.336L251.643 242.968H245.467L234.043 234.52V243H230.043V225.56H234.043V232.248L244.475 225.624H250.747L238.427 233.336ZM261.487 224.824C263.577 224.824 265.455 225.229 267.119 226.04C268.804 226.851 270.116 227.981 271.055 229.432C272.015 230.861 272.495 232.472 272.495 234.264C272.495 236.035 272.015 237.645 271.055 239.096C270.116 240.525 268.804 241.645 267.119 242.456C265.455 243.267 263.577 243.672 261.487 243.672C259.481 243.672 257.593 243.267 255.823 242.456C254.073 241.624 252.676 240.493 251.631 239.064C250.585 237.613 250.063 236.013 250.063 234.264C250.063 232.493 250.585 230.893 251.631 229.464C252.676 228.013 254.073 226.883 255.823 226.072C257.572 225.24 259.46 224.824 261.487 224.824ZM261.519 240.792C263.481 240.792 265.135 240.269 266.479 239.224C267.823 238.157 268.495 236.504 268.495 234.264C268.495 232.024 267.823 230.371 266.479 229.304C265.135 228.237 263.481 227.704 261.519 227.704C260.281 227.704 259.097 227.928 257.967 228.376C256.836 228.824 255.908 229.539 255.183 230.52C254.479 231.501 254.127 232.749 254.127 234.264C254.127 235.779 254.479 237.027 255.183 238.008C255.908 238.968 256.825 239.672 257.935 240.12C259.065 240.568 260.26 240.792 261.519 240.792ZM304.902 225.56V243H300.902V229.08L292.198 243H287.878L278.886 229.432V243H274.886V225.56H280.646L290.054 239.736L299.43 225.56H304.902ZM307.793 225.56H329.553V243H325.553V229.112H311.793V243H307.793V225.56ZM343.298 224.792C345.986 224.792 348.396 225.304 350.53 226.328C352.663 227.352 353.73 229.155 353.73 231.736V243H350.178L349.73 239.64C349.431 240.259 348.802 240.856 347.842 241.432C346.903 241.987 345.762 242.435 344.418 242.776C343.095 243.117 341.73 243.288 340.322 243.288C338.679 243.288 336.898 242.947 334.978 242.264C333.058 241.581 332.098 240.088 332.098 237.784C332.098 236.269 332.514 235.117 333.346 234.328C334.178 233.517 335.084 232.995 336.066 232.76C337.047 232.504 337.922 232.376 338.69 232.376C342.38 232.376 344.93 232.355 346.338 232.312C347.767 232.248 348.695 232.131 349.122 231.96C349.548 231.768 349.772 231.437 349.794 230.968V230.68C349.772 230.147 349.452 229.656 348.834 229.208C348.236 228.739 347.436 228.365 346.434 228.088C345.431 227.811 344.364 227.672 343.234 227.672C341.314 227.629 339.682 227.896 338.338 228.472C336.994 229.048 336.322 229.976 336.322 231.256H332.29C332.29 229.613 332.876 228.312 334.05 227.352C335.223 226.392 336.642 225.731 338.306 225.368C339.97 224.984 341.634 224.792 343.298 224.792ZM341.858 239.768C344.844 239.768 346.903 239.16 348.034 237.944C349.186 236.728 349.762 235.352 349.762 233.816C348.716 234.605 346.583 235 343.362 235C341.591 235 340.215 235.053 339.234 235.16C338.274 235.267 337.559 235.48 337.09 235.8C336.62 236.099 336.364 236.547 336.322 237.144C336.386 237.955 336.823 238.595 337.634 239.064C338.466 239.533 339.874 239.768 341.858 239.768ZM374.141 232.632V225.56H378.045V243H374.141V235.736H360.509V243H356.605V225.56H360.509V232.632H374.141ZM384.918 238.744L398.326 225.56H402.326V243H398.326V229.816L384.918 243H380.918V225.56H384.918V238.744ZM427.151 242.936H423.151V238.488H414.575L409.711 242.936H404.719L410.223 237.88C408.537 237.411 407.225 236.675 406.287 235.672C405.369 234.648 404.911 233.411 404.911 231.96V231.832C404.911 230.573 405.327 229.464 406.159 228.504C407.012 227.523 408.196 226.765 409.711 226.232C411.247 225.699 413.007 225.432 414.991 225.432H427.151V242.936ZM408.911 232.088C408.911 233.155 409.199 233.933 409.775 234.424C410.372 234.915 411.097 235.224 411.951 235.352C412.804 235.459 413.935 235.512 415.343 235.512H415.407H423.151V228.536C419.503 228.536 417.167 228.504 416.143 228.44C415.993 228.419 415.727 228.408 415.343 228.408C413.935 228.408 412.804 228.472 411.951 228.6C411.097 228.707 410.372 229.027 409.775 229.56C409.199 230.093 408.911 230.936 408.911 232.088ZM460.059 225.56V243H456.059V229.08L447.355 243H443.035L434.043 229.432V243H430.043V225.56H435.803L445.211 239.736L454.587 225.56H460.059ZM466.949 238.744L480.357 225.56H484.357V243H480.357V229.816L466.949 243H462.949V225.56H466.949V238.744ZM215.186 243.32H219.346V263H221.938V271.16H217.618V267H194.226V243.32H198.386V263H215.186V243.32ZM260.762 255.192C260.762 256.984 260.068 258.616 258.682 260.088C257.295 261.539 255.375 262.691 252.922 263.544C250.468 264.376 247.727 264.792 244.698 264.792H243.834V267H239.674V264.792H239.098H238.906H238.874C235.951 264.792 233.21 264.365 230.65 263.512C228.111 262.659 226.074 261.507 224.538 260.056C223.023 258.584 222.266 256.963 222.266 255.192C222.266 253.4 223.023 251.779 224.538 250.328C226.052 248.877 228.068 247.725 230.586 246.872C233.124 246.019 235.855 245.581 238.778 245.56H239.674V243.32H243.834V245.56H244.698C247.748 245.581 250.49 246.008 252.922 246.84C255.375 247.672 257.295 248.824 258.682 250.296C260.068 251.747 260.762 253.379 260.762 255.192ZM239.674 260.792V249.56H239.258C236.122 249.56 233.284 249.987 230.746 250.84C228.228 251.693 226.97 253.144 226.97 255.192C226.97 256.579 227.61 257.699 228.89 258.552C230.191 259.384 231.77 259.971 233.626 260.312C235.503 260.632 237.38 260.792 239.258 260.792H239.674ZM244.602 260.792C247.823 260.792 250.575 260.376 252.858 259.544C255.14 258.691 256.282 257.24 256.282 255.192C256.282 253.123 255.108 251.672 252.762 250.84C250.415 249.987 247.684 249.56 244.57 249.56H243.834V260.792H244.602ZM277.168 242.808C279.877 242.808 282.309 243.352 284.464 244.44C286.64 245.507 288.336 246.989 289.552 248.888C290.789 250.765 291.408 252.888 291.408 255.256C291.408 257.603 290.789 259.715 289.552 261.592C288.336 263.469 286.651 264.952 284.496 266.04C282.341 267.107 279.909 267.64 277.2 267.64C274.576 267.64 272.165 267.107 269.968 266.04C267.771 264.952 266.032 263.469 264.752 261.592C263.472 259.693 262.832 257.581 262.832 255.256C262.832 252.909 263.472 250.787 264.752 248.888C266.032 246.989 267.76 245.507 269.936 244.44C272.133 243.352 274.544 242.808 277.168 242.808ZM277.168 264.024C278.896 264.024 280.528 263.683 282.064 263C283.6 262.317 284.837 261.315 285.776 259.992C286.715 258.669 287.184 257.091 287.184 255.256C287.184 253.464 286.704 251.896 285.744 250.552C284.805 249.208 283.557 248.184 282 247.48C280.443 246.776 278.8 246.424 277.072 246.424C275.195 246.424 273.488 246.776 271.952 247.48C270.437 248.184 269.243 249.208 268.368 250.552C267.493 251.875 267.056 253.443 267.056 255.256C267.056 257.112 267.515 258.701 268.432 260.024C269.371 261.347 270.608 262.349 272.144 263.032C273.68 263.693 275.355 264.024 277.168 264.024Z" fill="white"/>
<path d="M304.915 84C304.915 76.5931 303.95 69.2433 302.048 62.1574C300.202 55.2838 297.475 48.6564 293.942 42.4593C286.98 30.2457 276.974 19.8817 265.007 12.4878C251.786 4.31816 236.541 0 220.921 0C220.921 0 220.92 0 220.919 0C220.919 0 220.918 0 220.917 0C220.916 0 220.916 0 220.915 0C211.022 0 201.336 1.70318 192.127 5.06229C183.228 8.30831 174.989 13.0163 167.636 19.0556C161.056 24.459 155.352 30.8011 150.681 37.906C141.675 51.6001 136.915 67.5392 136.915 83.9999C136.915 84.055 136.916 84.11 136.916 84.1652H136.915V84.2564L136.917 84.2598C136.951 95.5083 139.17 106.421 143.517 116.698C147.748 126.701 153.805 135.684 161.519 143.398C169.234 151.113 178.217 157.169 188.219 161.399C198.575 165.779 209.576 168 220.915 168C232.228 167.999 243.204 165.788 253.539 161.429C263.521 157.218 272.492 151.188 280.201 143.507C287.91 135.828 293.972 126.881 298.22 116.917C302.617 106.604 304.869 95.644 304.914 84.3438C304.914 84.3168 304.914 84.2895 304.914 84.2624L304.915 84.2605V84.168H304.914C304.915 84.1119 304.915 84.0558 304.915 84ZM156.318 76.6144C156.147 75.9106 156.107 75.1692 156.295 74.4698C156.585 73.3786 157.272 72.7136 158.12 72.3919C157.881 74.6843 157.71 76.9949 157.613 79.32C157.021 78.5133 156.563 77.6255 156.318 76.6144ZM180.241 19.5619C179.988 19.8419 179.737 20.1239 179.488 20.4089C178.453 20.8113 177.419 21.3652 176.357 21.6455C173.56 22.3886 170.786 21.2114 168.263 19.61C170.231 17.999 172.262 16.4843 174.353 15.0681C175.863 16.6739 177.841 18.1806 180.241 19.5619ZM204.907 150.623C204.314 149.932 203.722 149.241 203.13 148.55C202.507 147.062 201.903 145.491 201.32 143.841C207.594 144.588 214.02 144.973 220.502 144.989V167.165C216.904 167.012 213.395 164.86 210.067 160.759C208.218 158.481 206.471 155.661 204.839 152.328C204.859 152.309 204.88 152.289 204.899 152.269C205.324 151.813 205.313 151.098 204.907 150.623ZM192.635 84C192.635 78.9528 192.79 73.9556 193.094 69.058C193.58 69.1309 194.068 69.2021 194.558 69.2714C202.861 70.443 211.588 71.0445 220.502 71.0625V108.105C218.179 108.101 215.865 108.065 213.566 107.996C209.019 106.245 204.472 104.495 199.928 102.743C199.567 102.605 199.193 102.456 198.936 102.169C198.414 101.586 198.558 100.664 198.215 99.9575C197.98 99.4738 197.533 99.1304 197.094 98.8173C195.777 97.874 194.387 97.0348 192.942 96.3021C192.739 92.2647 192.635 88.1557 192.635 84ZM188.228 24.8391C188.049 24.2814 187.61 23.8454 187.068 23.6229C186.131 23.2389 185.094 23.4326 184.114 23.6318C183.284 23.387 183.733 22.2369 183.657 21.3135C186.169 22.4646 189.011 23.503 192.148 24.4088C192.686 24.5641 193.23 24.7146 193.779 24.8604C192.974 26.3731 192.314 27.9619 191.81 29.5981C191.741 29.8184 191.676 30.069 191.78 30.2762C191.892 30.5094 192.171 30.6088 192.424 30.6779C193.475 30.9759 194.54 31.2286 195.613 31.4337C196.369 31.574 197.153 31.6951 197.896 31.4898C197.996 31.4627 198.094 31.4276 198.191 31.3862C197.682 33.219 197.2 35.1153 196.746 37.0708C194.75 35.1824 191.706 34.5753 188.96 35.0011C187.388 35.2457 185.786 35.8366 184.785 37.0716C183.78 38.3155 183.539 39.992 182.872 41.4427C182.197 42.9112 181.058 44.1594 179.66 44.9695C179.396 45.1245 179.093 45.2672 178.793 45.2052C178.584 45.1609 178.409 45.027 178.242 44.8932C176.476 43.4601 174.88 41.5633 174.667 39.298C174.371 36.1409 176.837 33.3776 179.517 31.6778C182.195 29.9825 185.282 28.8593 187.563 26.6571C188.038 26.2014 188.491 25.6658 188.228 24.8391ZM199.054 28.4174C198.899 27.646 199.064 26.8888 199.308 26.1309C199.455 26.1598 199.602 26.1886 199.749 26.2169C199.513 26.9385 199.281 27.6719 199.054 28.4174ZM176.916 60.8153C178.687 57.6935 182.849 57.1944 186.306 56.2206C188.014 55.737 189.665 55.0609 191.22 54.1988C191.741 53.9144 192.18 53.484 192.423 52.9439C192.933 51.8263 192.16 51.4201 191.801 50.7739C191.16 49.6207 192.043 48.1612 193.162 47.4595C193.681 47.1343 194.251 46.8991 194.82 46.6631C193.656 53.4554 192.82 60.661 192.329 68.1046C186.445 67.1886 180.9 65.996 175.777 64.5448C176.067 63.2671 176.277 61.9443 176.916 60.8153ZM195.725 46.2686C196.065 46.1072 196.394 45.9276 196.701 45.7078C199.103 43.9875 199.217 40.1588 197.421 37.8143C198.355 33.7299 199.407 29.9039 200.567 26.3701C201.744 26.5851 202.939 26.7807 204.151 26.9571C204.385 27.9761 205.107 28.914 205.964 29.555C207.164 30.4555 208.615 30.9436 209.941 31.6476C210.937 32.1724 212.051 32.8461 213.103 32.4488C214.232 32.0255 214.595 30.637 214.802 29.4514C214.885 28.9657 214.969 28.4799 215.053 27.994C216.852 28.0794 218.67 28.125 220.503 28.1308V70.2371C211.627 70.2191 202.938 69.6203 194.674 68.454C194.163 68.3818 193.654 68.3077 193.148 68.2315C193.649 60.5955 194.514 53.2103 195.725 46.2686ZM205.575 14.225C205.636 14.2835 205.69 14.348 205.732 14.4237C205.838 14.6159 205.86 14.8426 205.866 15.0607C205.909 16.2743 205.624 17.4965 205.048 18.5676C204.538 19.5178 203.774 20.4896 203.994 21.5477C204.128 22.1804 204.605 22.7095 204.698 23.3508C204.812 24.1585 204.296 24.9078 204.13 25.7047C204.102 25.8407 204.084 25.9767 204.077 26.1124C202.98 25.9506 201.898 25.7725 200.83 25.5788C201.547 23.4524 202.303 21.4333 203.097 19.5338C203.894 17.6277 204.721 15.8571 205.575 14.225ZM286.015 50.3854C286.113 50.9055 286.372 51.3791 286.585 51.865C286.971 52.7437 287.207 53.7629 286.855 54.657C286.503 55.5467 285.376 56.1664 284.538 55.7017C284.15 55.486 283.893 55.0886 283.709 54.6825C282.843 52.7757 283.182 50.3246 281.774 48.7721C280.763 47.6577 279.097 47.3191 278.11 46.187C277.175 45.1202 277.077 43.4039 277.898 42.2464C278.723 41.0911 280.396 40.6252 281.69 41.2051C281.871 41.2881 282.044 41.3866 282.204 41.4995C282.996 42.0539 283.893 42.4489 284.838 42.6503C285.278 42.7433 285.723 42.9635 286.039 43.4272C286.46 44.0436 286.527 44.827 286.499 45.5718C286.465 46.4947 286.358 47.4142 286.188 48.3184C286.058 49.001 285.888 49.7004 286.015 50.3854ZM264.907 54.6159C265.392 54.9335 266.014 54.4124 266.223 53.8745C266.433 53.3356 266.496 52.6916 266.943 52.3241C267.592 51.7841 268.62 52.2279 269.135 52.8963C269.646 53.5702 269.877 54.4256 270.402 55.0885C271.063 55.9262 272.132 56.3644 273.192 56.4684C274.255 56.568 275.322 56.3666 276.36 56.1254C276.533 56.0844 276.736 56.0502 276.866 56.1708C276.948 56.2483 276.971 56.3666 276.988 56.4773C277.207 57.8052 277.166 59.1741 276.882 60.4921C276.853 60.6259 276.812 60.7532 276.76 60.874C275.847 61.2517 274.908 61.6207 273.942 61.9805C271.85 61.2776 270.249 60.1836 268.484 59.6799C268.035 59.5527 267.565 59.4232 267.111 59.5328C266.528 59.6777 266.118 60.1746 265.675 60.5785C264.153 61.9706 261.803 62.3767 259.9 61.5778C258.544 61.0035 257.464 59.8349 256.935 58.4637C256.56 57.4855 255.575 56.8813 254.534 57.0241C252.55 57.2922 250.567 57.5614 248.584 57.831C248.327 55.5514 248.038 53.3033 247.714 51.0955C248.223 50.476 248.735 49.8594 249.382 49.3873C250.33 48.6946 251.706 48.3947 252.659 49.0786C253.111 49.4051 253.409 49.9063 253.839 50.2627C254.266 50.6168 254.843 50.8127 255.387 50.7032C255.929 50.5925 256.411 50.1355 256.463 49.5844C256.491 49.2945 256.409 49.0012 256.42 48.708C256.452 47.9345 257.178 47.3126 257.946 47.2063C258.715 47.1012 259.486 47.4143 260.125 47.8504C262.296 49.3421 263.148 52.0809 264.607 54.2743C264.691 54.4024 264.781 54.5319 264.907 54.6159ZM242.979 27.7838C243.331 29.1361 244.406 30.1619 245.434 31.1136C245.56 31.2287 245.689 31.3471 245.847 31.4057C246.385 31.6083 246.903 31.0882 247.451 30.9244C247.879 30.7949 248.339 30.8857 248.775 30.9764C249.185 31.0628 249.611 31.1579 249.937 31.4191C250.378 31.7754 250.55 32.3818 250.516 32.9451V32.954C250.492 33.3402 250.172 33.6456 249.784 33.6821C248.401 33.8071 247.421 34.6338 246.782 35.4571C246.203 36.2013 245.823 37.1082 245.265 37.8531C244.323 33.7073 243.256 29.8122 242.079 26.2165C242.342 26.1661 242.604 26.1145 242.866 26.0621C242.819 26.6402 242.832 27.2228 242.979 27.7838ZM244.582 38.5749C244.573 38.5819 244.565 38.5897 244.556 38.5966C243.316 39.5638 241.429 39.5362 240.392 40.7169C239.416 41.8268 239.757 43.8143 241.05 44.5336C241.344 44.6996 241.685 44.8113 241.905 45.0713C242.318 45.5605 242.068 46.3705 241.549 46.7512C241.033 47.1285 240.351 47.185 239.71 47.1938C239.066 47.2027 238.399 47.1784 237.811 47.4329C236.971 47.7981 236.444 48.6856 236.297 49.5908C235.909 52.0065 238.06 54.3393 240.482 54.6867C242.904 55.0364 245.339 53.7694 246.985 51.9556C246.991 51.9495 246.996 51.9432 247.001 51.9371C247.283 53.9096 247.538 55.9127 247.766 57.9419C246.109 58.1672 244.452 58.3925 242.793 58.6175C240.884 58.8764 238.803 59.2238 237.52 60.6625C236.438 61.8753 236.177 63.5928 235.541 65.0911C234.791 66.8513 233.508 68.3179 232.436 69.9057C228.779 70.119 225.07 70.2295 221.328 70.2371V28.1308C228.282 28.1079 235.035 27.5073 241.261 26.3699C242.494 30.1239 243.607 34.2114 244.582 38.5749ZM201.757 141.769C202.456 140.491 203.471 139.42 204.357 138.262C205.73 136.472 206.803 134.453 207.525 132.315C207.753 131.633 207.967 130.905 208.488 130.408C208.887 130.028 209.418 129.83 209.904 129.566C212.396 128.208 213.487 125.221 213.996 122.429C214.506 119.635 214.675 116.676 216.13 114.24C216.592 113.467 217.182 112.755 217.478 111.904C217.775 111.055 217.698 109.98 216.992 109.418C216.745 109.222 216.447 109.105 216.154 108.993C216.055 108.955 215.957 108.917 215.859 108.879C217.402 108.911 218.95 108.928 220.502 108.931V144.164C213.988 144.148 207.53 143.757 201.23 142.999C201.363 142.571 201.543 142.157 201.757 141.769ZM220.502 27.3054C218.718 27.2996 216.946 27.2563 215.194 27.1745C215.237 26.925 215.28 26.6755 215.323 26.4259C215.465 25.6096 215.642 24.7264 216.275 24.1887C217.05 23.5322 218.244 23.6272 219.082 23.0528C219.867 22.5159 220.144 21.557 220.502 20.6503V27.3054ZM221.328 27.3054V19.1773C222.674 17.4994 225.026 16.4615 225.381 14.3524C225.608 13.0092 224.878 11.6573 223.878 10.731C223.125 10.039 222.23 9.53429 221.328 9.0444V0.83503C226.362 1.05233 231.294 5.26081 235.615 13.0394C237.578 16.5728 239.386 20.7953 240.998 25.5787C234.853 26.6936 228.191 27.2827 221.328 27.3054ZM220.502 8.59443C220.478 8.58102 220.454 8.56771 220.43 8.55419C219.441 8.00136 218.486 7.38806 217.571 6.7208C216.51 5.94767 215.167 5.65836 213.897 5.98657C212.665 6.30653 211.441 6.66075 210.227 7.04509C210.609 6.58377 210.994 6.14598 211.382 5.73296C214.317 2.61415 217.383 0.968956 220.502 0.835442V8.59443ZM221.328 144.989C227.81 144.973 234.237 144.588 240.511 143.84C237.954 151.075 235.004 156.775 231.739 160.788C228.418 164.869 224.917 167.012 221.328 167.165V144.989ZM221.328 144.163V108.93C230.488 108.915 239.509 108.393 248.059 107.406C246.731 120.716 244.268 132.909 240.813 142.971C234.445 143.747 227.916 144.147 221.328 144.163ZM221.328 108.105V71.0625C224.884 71.0553 228.41 70.9546 231.891 70.7624C231.726 71.0403 231.572 71.3237 231.43 71.6148C229.944 74.6757 230.08 78.2512 230.439 81.6374C230.875 85.7684 231.936 90.3963 235.511 92.5099C238.265 94.1367 241.726 93.7715 244.865 93.1562C246.245 92.8857 247.65 92.5781 249.052 92.3941C248.888 97.2206 248.582 101.958 248.141 106.566C239.571 107.562 230.521 108.089 221.328 108.105ZM249.881 92.3009C251.39 92.1617 252.889 92.2026 254.344 92.625C254.832 92.7678 255.32 92.957 255.696 93.2967C257.391 94.8183 255.764 97.6844 256.411 99.87C256.774 101.096 257.827 101.975 258.497 103.066C258.863 103.659 259.107 104.298 259.254 104.962C255.928 105.541 252.495 106.043 248.979 106.466C249.417 101.859 249.719 97.1238 249.881 92.3009ZM280.656 69.9891C281.343 70.1596 282.018 70.3762 282.677 70.634C282.96 72.9488 283.169 75.2822 283.304 77.6272C282.072 75.2206 281.175 72.6409 280.656 69.9891ZM265.951 16.741C266.379 17.1272 266.759 17.6716 266.65 18.2393C266.575 18.62 266.295 18.9221 266.03 19.2021C265.366 19.9004 264.703 20.5976 264.038 21.2969C263.873 21.4706 263.707 21.6443 263.537 21.8145C262.9 21.0467 262.251 20.2954 261.59 19.5621C263.195 18.6386 264.611 17.6592 265.825 16.6315C265.867 16.6676 265.91 16.7038 265.951 16.741ZM262.933 22.3783C262.722 22.558 262.502 22.726 262.267 22.8737C261.688 23.2389 260.98 23.478 260.322 23.2943C259.666 23.1072 259.144 22.3702 259.38 21.7296C259.523 21.3378 259.892 21.0789 260.119 20.727C260.217 20.5778 260.284 20.4197 260.325 20.2566C260.503 20.1632 260.678 20.0691 260.851 19.9745C261.559 20.7554 262.252 21.5575 262.933 22.3783ZM255.485 16.1012C254.15 15.7516 252.793 15.4228 251.414 15.3996C250.031 15.3764 248.608 15.6807 247.493 16.4941C246.914 16.9179 246.436 17.4646 246 18.0344C244.417 20.1204 243.367 22.6093 242.971 25.1992C242.589 25.2771 242.204 25.3524 241.817 25.4261C240.179 20.5479 238.338 16.2411 236.337 12.6384C233.052 6.72575 229.39 2.80699 225.56 1.05377C235.541 2.03449 245.192 6.16889 253.715 13.1581C255.139 14.325 256.524 15.5677 257.87 16.8799C257.112 16.5401 256.292 16.3133 255.485 16.1012ZM210.781 5.16722C210.111 5.87937 209.452 6.66095 208.805 7.51063C207.716 7.88043 206.635 8.27519 205.564 8.69668C204.398 9.15882 203.078 9.84332 202.884 11.0851C202.703 12.2425 203.659 13.3072 204.735 13.7715C204.774 13.7882 204.814 13.8047 204.855 13.8212C203.985 15.4808 203.144 17.2799 202.335 19.2154C201.52 21.1658 200.745 23.24 200.011 25.4262C199.867 25.3987 199.723 25.3711 199.579 25.3431C199.857 24.5597 200.129 23.7701 200.129 22.9578C200.131 22.323 199.962 21.6988 199.759 21.0964C199.247 19.5783 198.502 18.1638 197.652 16.8054C196.816 15.4731 195.281 14.7259 193.717 14.9051C192.447 15.0497 191.193 15.3392 189.99 15.7689C189.59 15.9114 189.182 16.0821 188.912 16.4059C188.478 16.9264 188.532 17.7254 188.856 18.3214C189.18 18.9173 189.724 19.3557 190.251 19.779C191.363 20.6709 192.48 21.5584 193.592 22.4503C193.868 22.6706 194.155 22.9124 194.259 23.2493C194.343 23.5357 194.279 23.8272 194.163 24.1074C193.561 23.949 192.965 23.7855 192.377 23.6158C188.203 22.4103 184.566 20.9717 181.552 19.3482C186.958 13.5241 192.997 8.97372 199.509 5.82159C204.904 3.20981 210.519 1.61321 216.256 1.05284C214.386 1.9081 212.556 3.28141 210.781 5.16722ZM180.991 19.9808C180.985 19.9817 180.978 19.9825 180.972 19.9836C180.974 19.9806 180.977 19.9776 180.98 19.9747C180.983 19.9768 180.987 19.9787 180.991 19.9808ZM168.47 90.642C166.915 88.3535 164.974 85.7795 163.275 84.384C161.655 83.0526 159.815 81.7992 158.406 80.2759C158.496 77.5586 158.684 74.8596 158.971 72.1867C160.154 72.0458 161.478 72.425 162.448 73.1597C164.106 74.4157 165.047 76.37 166.147 78.1417C167.217 78.4349 168.166 77.2796 168.352 76.1874C168.54 75.0941 168.302 73.9409 168.628 72.8808C169.427 70.278 172.945 69.6826 174.584 67.5104C175.071 66.865 175.361 66.1242 175.577 65.3462C180.747 66.8092 186.341 68.0104 192.275 68.9315C191.967 73.8704 191.81 78.9102 191.81 84.0001C191.81 88.0132 191.907 91.9829 192.096 95.8877C188.841 94.3529 185.333 93.3523 181.76 92.935C180.529 92.7925 179.283 92.9933 178.16 93.5203C176.344 94.3711 174.182 95.6236 173.266 96.7271C172.606 97.5218 172.036 98.5281 172.241 99.5409C172.468 100.662 173.588 101.484 173.655 102.627C173.666 102.81 173.649 102.986 173.611 103.157C170.913 102.534 168.311 101.855 165.823 101.123C163.548 100.453 161.391 99.7459 159.354 99.0051C158.873 95.4929 158.562 91.9315 158.424 88.3307C160.74 89.6568 162.382 91.1758 163.526 92.5487C164.001 93.122 164.547 93.6155 165.143 94.0239C167.322 95.5187 169.952 92.8275 168.47 90.642ZM165.59 101.914C168.055 102.64 170.631 103.313 173.302 103.933C172.951 104.564 172.426 105.156 172.118 105.816C171.425 107.3 171.872 109.04 172.327 110.615C173.059 113.128 173.837 115.73 175.564 117.698C177.545 119.956 180.52 121.086 182.738 123.111C185.26 125.416 186.627 128.711 187.629 131.976C188.601 135.146 189.322 138.426 190.809 141.381C184.633 140.198 178.776 138.658 173.346 136.787C173.008 136.671 172.673 136.553 172.34 136.435C168.622 130.366 165.582 123.66 163.272 116.412C161.572 111.077 160.308 105.569 159.486 99.9313C161.418 100.624 163.454 101.286 165.59 101.914ZM173.077 137.568C178.735 139.517 184.853 141.108 191.309 142.315C193.321 145.823 196.366 148.648 199.465 151.267C200.409 152.066 201.435 152.884 202.661 153.046C203.16 153.112 203.692 153.018 204.151 152.803C207.753 160.13 211.875 164.949 216.257 166.949C209.469 166.289 202.876 164.182 196.601 160.66C189.151 156.478 182.457 150.489 176.707 142.858C175.422 141.152 174.198 139.383 173.037 137.554C173.051 137.558 173.064 137.563 173.077 137.568ZM241.424 143.728C243.158 143.511 244.88 143.268 246.587 142.996C254.502 141.734 261.961 139.907 268.759 137.565C268.77 137.561 268.782 137.557 268.793 137.553C267.608 139.421 266.357 141.226 265.041 142.966C259.295 150.563 252.611 156.526 245.177 160.688C238.916 164.193 232.34 166.291 225.571 166.949C231.563 164.214 237.07 156.208 241.424 143.728ZM268.49 136.784C261.738 139.111 254.325 140.927 246.457 142.181C244.891 142.43 243.312 142.657 241.723 142.86C245.145 132.768 247.584 120.586 248.897 107.307C252.487 106.878 255.991 106.367 259.385 105.777C259.563 107.479 259.197 109.298 258.663 110.949C257.825 113.534 256.611 116.074 256.592 118.789C256.566 122.518 258.786 126.217 259.082 129.785C259.207 131.292 260.553 132.38 262.056 132.223C266.348 131.778 270.472 129.386 272.737 125.691C273.512 124.427 274.086 123.037 274.978 121.853C275.721 120.868 276.66 120.057 277.604 119.255C275.433 125.42 272.718 131.167 269.492 136.433C269.16 136.551 268.826 136.669 268.49 136.784ZM281.97 102.311C281.854 102.997 281.731 103.682 281.602 104.365C281.636 103.657 281.767 102.974 281.97 102.311ZM285.682 95.9072C288.235 92.2809 290.421 88.401 292.198 84.3386C292.314 84.0752 292.429 83.7887 292.362 83.5054C292.157 82.6765 290.936 82.9587 290.101 83.1358C287.65 83.6503 285.509 81.4383 284.225 79.2903C284.22 79.2829 284.216 79.2755 284.212 79.2683C284.094 76.4963 283.873 73.7385 283.551 71.0054C286.197 72.2176 288.531 74.1138 290.248 76.463C290.699 77.0826 291.535 77.2686 292.198 76.889C292.833 76.5238 293.472 76.1697 294.12 75.8311C294.688 75.5301 295.005 74.8938 294.884 74.2652C294.258 70.9089 292.699 67.7284 290.407 65.1932C291.878 65.3437 293.372 65.4975 294.742 66.053C296.113 66.6052 297.37 67.62 297.864 69.0109C298.111 69.6992 298.16 70.4451 298.392 71.1379C298.832 72.447 298.579 73.7362 299.421 74.8262C301.98 78.1301 296.256 83.9904 303.969 84.3248C301.335 89.5793 294.334 94.4855 283.894 98.4767C284.468 97.6017 285.089 96.7497 285.682 95.9072ZM264.573 13.19C264.138 14.0514 264.364 14.9556 264.718 15.5424C264.844 15.7506 265.007 15.9271 265.185 16.0911C263.993 17.0888 262.6 18.0404 261.02 18.9386C258.871 16.6088 256.606 14.4612 254.238 12.5199C248.128 7.50878 241.443 3.94341 234.469 1.93018C245.119 3.68031 255.345 7.48752 264.573 13.19ZM192.41 5.83779C197.272 4.06434 202.268 2.75737 207.358 1.92337C204.576 2.72631 201.835 3.77822 199.149 5.07859C192.488 8.30264 186.319 12.9651 180.808 18.9367C178.461 17.6019 176.524 16.1492 175.048 14.6028C180.469 11.0101 186.282 8.07338 192.41 5.83779ZM150.857 39.1508C150.734 39.9513 150.632 40.7557 150.555 41.5634C150.344 43.7922 150.314 46.0497 149.828 48.2341C149.636 49.0974 149.375 49.9385 149.074 50.7671C147.96 49.5689 147.051 48.3413 146.358 47.0923C147.706 44.3749 149.207 41.7239 150.857 39.1508ZM145.921 47.987C146.666 49.2276 147.608 50.4433 148.746 51.6292C147.957 53.6142 146.983 55.5416 146.204 57.5353C144.995 60.6361 144.27 64.1717 145.518 67.2614C146.386 69.4083 148.111 71.0947 149.204 73.142C150.934 76.3966 150.918 80.262 151.771 83.8441C151.905 84.4107 152.071 84.9872 152.445 85.4321C152.957 86.0363 153.758 86.2953 154.505 86.5565C155.634 86.9507 156.657 87.3952 157.582 87.8722C157.706 91.5179 158.004 95.1245 158.477 98.6813C147.571 94.5904 140.317 89.5125 137.741 84.0721C137.741 84.0481 137.741 84.0241 137.741 84.0001C137.741 71.4269 140.546 59.1617 145.921 47.987ZM137.761 85.8293C139.572 88.7552 142.653 91.5471 146.948 94.1471C150.216 96.1252 154.12 97.9535 158.604 99.6103C159.431 105.446 160.727 111.146 162.486 116.663C164.705 123.626 167.593 130.094 171.104 135.986C159.031 131.519 149.996 125.593 145.52 119.171C145.09 118.249 144.675 117.317 144.278 116.377C140.176 106.68 137.988 96.4124 137.761 85.8293ZM188.541 160.639C178.637 156.45 169.742 150.453 162.103 142.815C156.082 136.794 151.081 129.991 147.181 122.53C152.364 128.129 160.914 133.212 171.789 137.114C173.124 139.276 174.544 141.358 176.048 143.355C181.867 151.077 188.646 157.141 196.197 161.379C199.818 163.412 203.544 164.98 207.351 166.079C200.9 165.023 194.609 163.205 188.541 160.639ZM279.619 142.922C271.985 150.528 263.103 156.498 253.219 160.668C247.173 163.218 240.905 165.026 234.478 166.078C238.267 164.984 241.975 163.426 245.58 161.408C253.115 157.19 259.884 151.153 265.7 143.464C267.235 141.434 268.682 139.315 270.042 137.114C280.916 133.212 289.465 128.13 294.647 122.533C290.723 130.039 285.687 136.877 279.619 142.922ZM297.461 116.594C297.091 117.462 296.706 118.323 296.307 119.176C291.832 125.595 282.799 131.519 270.727 135.985C273.982 130.525 276.7 124.566 278.847 118.178C280.574 116.607 282.117 114.651 282.433 112.338C282.666 110.62 282.197 108.911 281.87 107.193C282.412 104.694 282.863 102.166 283.225 99.6108C287.709 97.9544 291.613 96.1265 294.881 94.1487C299.176 91.5495 302.257 88.7587 304.068 85.8339C303.84 96.4969 301.62 106.838 297.461 116.594Z" fill="#E86C00"/>
<path d="M171.433 84.2178C173.889 85.2284 176.791 84.6778 179.21 85.7726C179.775 86.0253 180.3 86.3665 180.883 86.5932C181.462 86.8156 182.125 86.9149 182.697 86.673C183.267 86.4312 183.686 85.7661 183.492 85.1765C183.401 84.8979 183.194 84.6755 182.991 84.4639C181.358 82.7881 177.847 80.7949 176.048 79.8297C175.372 79.4691 174.657 79.1796 173.921 78.9658C173.191 78.7542 172.591 78.6031 172.031 78.7564C170.77 79.1019 170.34 80.6416 170.127 81.9351C170.066 82.2914 170.01 82.6607 170.107 83.0062C170.276 83.6023 170.863 83.9803 171.433 84.2178Z" fill="#E86C00"/>
<path d="M228.802 20.0319C228.513 20.1204 228.262 20.2565 228.051 20.4379C227.457 20.9475 226.85 21.563 226.068 21.5932C225.686 21.6104 225.293 21.4766 224.924 21.5845C224.429 21.7248 224.138 22.2798 224.166 22.7917C224.198 23.3057 224.483 23.77 224.826 24.1521C225.578 24.9792 226.649 25.5104 227.761 25.6012C228.878 25.694 230.02 25.3507 230.897 24.6597C231.361 24.2947 232.24 23.4957 231.892 21.8265C231.607 20.4616 230.137 19.6259 228.802 20.0319Z" fill="#E86C00"/>
</svg>


