<svg width="420" height="136" viewBox="210 0 420 136" fill="none" xmlns="http://www.w3.org/2000/svg">
<path d="M236.329 111.624V129H232.329V114.92H221.385C221.129 118.269 220.884 120.648 220.649 122.056C220.414 123.464 220.03 124.627 219.497 125.544C218.878 126.483 218.142 127.208 217.289 127.72C216.436 128.232 215.625 128.584 214.857 128.776C214.11 128.968 213.737 129.043 213.737 129V125C214.868 125 215.721 124.424 216.297 123.272C216.745 122.099 217.054 121.021 217.225 120.04C217.417 119.037 217.534 117.992 217.577 116.904C217.62 115.816 217.641 114.056 217.641 111.624H236.329ZM260.902 120.52H242.726C242.79 121.608 243.099 122.632 243.654 123.592C244.208 124.531 245.03 125.299 246.118 125.896C247.206 126.493 248.528 126.792 250.086 126.792C251.43 126.792 252.614 126.557 253.638 126.088C254.683 125.597 255.483 125 256.038 124.296C256.614 123.571 256.902 122.877 256.902 122.216H260.902C260.902 123.325 260.475 124.456 259.622 125.608C258.768 126.76 257.52 127.72 255.878 128.488C254.235 129.256 252.283 129.64 250.022 129.64C247.995 129.64 246.118 129.245 244.39 128.456C242.662 127.645 241.286 126.525 240.262 125.096C239.238 123.645 238.726 122.003 238.726 120.168C238.726 118.291 239.216 116.637 240.198 115.208C241.2 113.757 242.555 112.648 244.262 111.88C245.99 111.091 247.91 110.696 250.022 110.696C252.176 110.696 254.064 111.08 255.686 111.848C257.328 112.616 258.598 113.704 259.494 115.112C260.411 116.499 260.88 118.131 260.902 120.008V120.52ZM250.086 113.576C248.251 113.576 246.768 113.981 245.638 114.792C244.507 115.603 243.696 116.669 243.206 117.992H256.646C256.283 116.669 255.568 115.603 254.502 114.792C253.456 113.981 251.984 113.576 250.086 113.576ZM283.178 111.56V115.112H274.506V129H270.506V115.112H261.706V111.56H283.178ZM308.181 110.824C310.272 110.824 312.149 111.229 313.813 112.04C315.498 112.851 316.81 113.981 317.749 115.432C318.709 116.861 319.189 118.472 319.189 120.264C319.189 122.035 318.709 123.645 317.749 125.096C316.81 126.525 315.498 127.645 313.813 128.456C312.149 129.267 310.272 129.672 308.181 129.672C306.176 129.672 304.288 129.267 302.517 128.456C300.768 127.624 299.37 126.493 298.325 125.064C297.28 123.613 296.757 122.013 296.757 120.264C296.757 118.493 297.28 116.893 298.325 115.464C299.37 114.013 300.768 112.883 302.517 112.072C304.266 111.24 306.154 110.824 308.181 110.824ZM308.213 126.792C310.176 126.792 311.829 126.269 313.173 125.224C314.517 124.157 315.189 122.504 315.189 120.264C315.189 118.024 314.517 116.371 313.173 115.304C311.829 114.237 310.176 113.704 308.213 113.704C306.976 113.704 305.792 113.928 304.661 114.376C303.53 114.824 302.602 115.539 301.877 116.52C301.173 117.501 300.821 118.749 300.821 120.264C300.821 121.779 301.173 123.027 301.877 124.008C302.602 124.968 303.52 125.672 304.629 126.12C305.76 126.568 306.954 126.792 308.213 126.792ZM321.581 111.56H343.341V129H339.341V115.112H325.581V129H321.581V111.56ZM357.278 116.104C360.435 116.104 362.75 116.648 364.222 117.736C365.715 118.824 366.462 120.435 366.462 122.568V122.664C366.462 124.691 365.864 126.259 364.67 127.368C363.496 128.456 361.48 129 358.622 129C358.024 129 357.587 128.989 357.31 128.968V129H346.302L346.206 111.56H350.206L350.238 116.104H357.214H357.278ZM368.382 129V111.56H372.382V129H368.382ZM357.918 125.992C358.686 125.992 359.39 125.939 360.03 125.832C360.67 125.704 361.267 125.384 361.822 124.872C362.376 124.339 362.654 123.517 362.654 122.408C362.654 121.299 362.376 120.499 361.822 120.008C361.267 119.496 360.691 119.197 360.094 119.112C359.518 119.027 358.792 118.984 357.918 118.984H357.854H350.238L350.27 125.992H357.918ZM396.74 111.56V115.112H388.068V129H384.068V115.112H375.268V111.56H396.74ZM410.492 110.792C413.18 110.792 415.591 111.304 417.724 112.328C419.857 113.352 420.924 115.155 420.924 117.736V129H417.372L416.924 125.64C416.625 126.259 415.996 126.856 415.036 127.432C414.097 127.987 412.956 128.435 411.612 128.776C410.289 129.117 408.924 129.288 407.516 129.288C405.873 129.288 404.092 128.947 402.172 128.264C400.252 127.581 399.292 126.088 399.292 123.784C399.292 122.269 399.708 121.117 400.54 120.328C401.372 119.517 402.279 118.995 403.26 118.76C404.241 118.504 405.116 118.376 405.884 118.376C409.575 118.376 412.124 118.355 413.532 118.312C414.961 118.248 415.889 118.131 416.316 117.96C416.743 117.768 416.967 117.437 416.988 116.968V116.68C416.967 116.147 416.647 115.656 416.028 115.208C415.431 114.739 414.631 114.365 413.628 114.088C412.625 113.811 411.559 113.672 410.428 113.672C408.508 113.629 406.876 113.896 405.532 114.472C404.188 115.048 403.516 115.976 403.516 117.256H399.484C399.484 115.613 400.071 114.312 401.244 113.352C402.417 112.392 403.836 111.731 405.5 111.368C407.164 110.984 408.828 110.792 410.492 110.792ZM409.052 125.768C412.039 125.768 414.097 125.16 415.228 123.944C416.38 122.728 416.956 121.352 416.956 119.816C415.911 120.605 413.777 121 410.556 121C408.785 121 407.409 121.053 406.428 121.16C405.468 121.267 404.753 121.48 404.284 121.8C403.815 122.099 403.559 122.547 403.516 123.144C403.58 123.955 404.017 124.595 404.828 125.064C405.66 125.533 407.068 125.768 409.052 125.768ZM452.523 118.632V111.56H456.427V129H452.523V121.736H438.891V129H434.987V111.56H438.891V118.632H452.523ZM470.179 110.792C472.867 110.792 475.278 111.304 477.411 112.328C479.545 113.352 480.611 115.155 480.611 117.736V129H477.059L476.611 125.64C476.313 126.259 475.683 126.856 474.723 127.432C473.785 127.987 472.643 128.435 471.299 128.776C469.977 129.117 468.611 129.288 467.203 129.288C465.561 129.288 463.779 128.947 461.859 128.264C459.939 127.581 458.979 126.088 458.979 123.784C458.979 122.269 459.395 121.117 460.227 120.328C461.059 119.517 461.966 118.995 462.947 118.76C463.929 118.504 464.803 118.376 465.571 118.376C469.262 118.376 471.811 118.355 473.219 118.312C474.649 118.248 475.577 118.131 476.003 117.96C476.43 117.768 476.654 117.437 476.675 116.968V116.68C476.654 116.147 476.334 115.656 475.715 115.208C475.118 114.739 474.318 114.365 473.315 114.088C472.313 113.811 471.246 113.672 470.115 113.672C468.195 113.629 466.563 113.896 465.219 114.472C463.875 115.048 463.203 115.976 463.203 117.256H459.171C459.171 115.613 459.758 114.312 460.931 113.352C462.105 112.392 463.523 111.731 465.187 111.368C466.851 110.984 468.515 110.792 470.179 110.792ZM468.739 125.768C471.726 125.768 473.785 125.16 474.915 123.944C476.067 122.728 476.643 121.352 476.643 119.816C475.598 120.605 473.465 121 470.243 121C468.473 121 467.097 121.053 466.115 121.16C465.155 121.267 464.441 121.48 463.971 121.8C463.502 122.099 463.246 122.547 463.203 123.144C463.267 123.955 463.705 124.595 464.515 125.064C465.347 125.533 466.755 125.768 468.739 125.768ZM515.602 120.68C515.56 122.216 515.197 123.667 514.514 125.032C513.832 126.376 512.85 127.475 511.57 128.328C510.312 129.16 508.829 129.576 507.122 129.576C503.432 129.576 500.616 128.659 498.674 126.824V135.08H494.674V111.56H498.002L498.514 114.12C500.52 112.157 503.389 111.176 507.122 111.176C508.765 111.176 510.216 111.581 511.474 112.392C512.754 113.203 513.757 114.312 514.482 115.72C515.208 117.128 515.581 118.707 515.602 120.456V120.552V120.68ZM504.882 126.76C506.269 126.76 507.442 126.44 508.402 125.8C509.384 125.139 510.12 124.328 510.61 123.368C511.122 122.387 511.389 121.437 511.41 120.52C511.389 119.432 511.144 118.397 510.674 117.416C510.226 116.413 509.512 115.592 508.53 114.952C507.57 114.291 506.354 113.96 504.882 113.96C503.666 113.96 502.589 114.269 501.65 114.888C500.712 115.485 499.976 116.275 499.442 117.256C498.93 118.216 498.674 119.229 498.674 120.296C498.674 121.469 498.93 122.547 499.442 123.528C499.954 124.509 500.68 125.299 501.618 125.896C502.578 126.472 503.666 126.76 504.882 126.76ZM529.246 116.104C532.404 116.104 534.718 116.648 536.19 117.736C537.684 118.824 538.43 120.435 538.43 122.568V122.664C538.43 124.691 537.833 126.259 536.638 127.368C535.465 128.456 533.449 129 530.59 129C529.993 129 529.556 128.989 529.278 128.968V129H518.27L518.174 111.56H522.174L522.206 116.104H529.182H529.246ZM540.35 129V111.56H544.35V129H540.35ZM529.886 125.992C530.654 125.992 531.358 125.939 531.998 125.832C532.638 125.704 533.236 125.384 533.79 124.872C534.345 124.339 534.622 123.517 534.622 122.408C534.622 121.299 534.345 120.499 533.79 120.008C533.236 119.496 532.66 119.197 532.062 119.112C531.486 119.027 530.761 118.984 529.886 118.984H529.822H522.206L522.238 125.992H529.886ZM564.773 118.632V111.56H568.677V129H564.773V121.736H551.141V129H547.237V111.56H551.141V118.632H564.773ZM579.933 119.336L593.149 128.968H586.973L575.549 120.52V129H571.549V111.56H575.549V118.248L585.981 111.624H592.253L579.933 119.336ZM613.745 120.52H595.569C595.633 121.608 595.943 122.632 596.497 123.592C597.052 124.531 597.873 125.299 598.961 125.896C600.049 126.493 601.372 126.792 602.929 126.792C604.273 126.792 605.457 126.557 606.481 126.088C607.527 125.597 608.327 125 608.881 124.296C609.457 123.571 609.745 122.877 609.745 122.216H613.745C613.745 123.325 613.319 124.456 612.465 125.608C611.612 126.76 610.364 127.72 608.721 128.488C607.079 129.256 605.127 129.64 602.865 129.64C600.839 129.64 598.961 129.245 597.233 128.456C595.505 127.645 594.129 126.525 593.105 125.096C592.081 123.645 591.569 122.003 591.569 120.168C591.569 118.291 592.06 116.637 593.041 115.208C594.044 113.757 595.399 112.648 597.105 111.88C598.833 111.091 600.753 110.696 602.865 110.696C605.02 110.696 606.908 111.08 608.529 111.848C610.172 112.616 611.441 113.704 612.337 115.112C613.255 116.499 613.724 118.131 613.745 120.008V120.52ZM602.929 113.576C601.095 113.576 599.612 113.981 598.481 114.792C597.351 115.603 596.54 116.669 596.049 117.992H609.489C609.127 116.669 608.412 115.603 607.345 114.792C606.3 113.981 604.828 113.576 602.929 113.576Z" fill="white"/>
<path d="M361.8 20.96V92H339.528V45.92H323.496V33.056C329.832 33.056 334.536 32.32 337.608 30.848C340.744 29.376 342.664 27.808 343.368 26.144C344.072 24.416 344.424 22.688 344.424 20.96H361.8ZM413.335 20C443.031 19.872 457.879 31.936 457.879 56.192C457.879 65.664 454.871 74.24 448.855 81.92C442.903 89.536 431.063 93.344 413.335 93.344C400.855 93.344 391.191 91.264 384.343 87.104C377.495 82.944 372.919 78.08 370.615 72.512C368.375 66.944 367.351 61.504 367.543 56.192C367.543 46.976 370.711 38.656 377.047 31.232C383.383 23.744 395.479 20 413.335 20ZM413.431 75.968C418.999 75.968 423.511 75.04 426.967 73.184C430.487 71.264 432.983 68.832 434.455 65.888C435.927 62.88 436.599 59.616 436.471 56.096C436.599 52.768 435.927 49.696 434.455 46.88C432.983 44.064 430.487 41.76 426.967 39.968C423.511 38.176 418.999 37.28 413.431 37.28C407.927 37.28 403.447 38.176 399.991 39.968C396.535 41.76 394.071 44.064 392.599 46.88C391.127 49.696 390.455 52.768 390.583 56.096C390.455 59.616 391.127 62.88 392.599 65.888C394.071 68.832 396.535 71.264 399.991 73.184C403.447 75.04 407.927 75.968 413.431 75.968ZM488.072 55.424H504.008V66.464H488.072V82.4H477.032V66.464H461.096V55.424H477.032V39.488H488.072V55.424Z" fill="#E86C00"/>
</svg>
