<svg width="485" height="272" fill="none" xmlns="http://www.w3.org/2000/svg"><path d="M38.502 210.68a10.251 10.251 0 0 1-1.088 4.352 8.572 8.572 0 0 1-2.944 3.296c-1.259.832-2.741 1.248-4.448 1.248-3.69 0-6.507-.917-8.448-2.752v8.256h-4v-23.52h3.328l.512 2.56c2.005-1.963 4.874-2.944 8.608-2.944 1.643 0 3.093.405 4.352 1.216 1.28.811 2.282 1.92 3.008 3.328.725 1.408 1.099 2.987 1.12 4.736v.224Zm-10.72 6.08c1.387 0 2.56-.32 3.52-.96.981-.661 1.717-1.472 2.208-2.432.512-.981.779-1.931.8-2.848a7.451 7.451 0 0 0-.736-3.104c-.448-1.003-1.163-1.824-2.144-2.464-.96-.661-2.176-.992-3.648-.992-1.216 0-2.294.309-3.232.928a6.363 6.363 0 0 0-2.208 2.368 6.369 6.369 0 0 0-.768 3.04c0 1.173.256 2.251.768 3.232a6.113 6.113 0 0 0 2.176 2.368c.96.576 2.048.864 3.264.864Zm24.172-15.968c2.688 0 5.099.512 7.232 1.536s3.2 2.827 3.2 5.408V219h-3.552l-.448-3.36c-.299.619-.928 1.216-1.888 1.792-.939.555-2.08 1.003-3.424 1.344a16.341 16.341 0 0 1-4.096.512c-1.643 0-3.424-.341-5.344-1.024-1.92-.683-2.88-2.176-2.88-4.48 0-1.515.416-2.667 1.248-3.456.832-.811 1.738-1.333 2.72-1.568.981-.256 1.856-.384 2.624-.384 3.69 0 6.24-.021 7.648-.064 1.43-.064 2.357-.181 2.784-.352.427-.192.65-.523.672-.992v-.288c-.022-.533-.342-1.024-.96-1.472-.598-.469-1.398-.843-2.4-1.12a11.97 11.97 0 0 0-3.2-.416c-1.92-.043-3.552.224-4.896.8-1.344.576-2.016 1.504-2.016 2.784h-4.032c0-1.643.587-2.944 1.76-3.904s2.592-1.621 4.256-1.984a22.136 22.136 0 0 1 4.992-.576Zm-1.44 14.976c2.986 0 5.045-.608 6.176-1.824 1.152-1.216 1.728-2.592 1.728-4.128-1.045.789-3.179 1.184-6.4 1.184-1.77 0-3.147.053-4.128.16-.96.107-1.675.32-2.144.64-.47.299-.726.747-.768 1.344.064.811.501 1.451 1.312 1.92.832.469 2.24.704 4.224.704Zm36.7-4.832v.032c-.022 5.696-3.606 8.544-10.753 8.544-3.413 0-6.101-.757-8.064-2.272-1.962-1.515-3.157-3.968-3.584-7.36a25.404 25.404 0 0 1-.032-1.472c0-3.477.651-6.091 1.952-7.84 1.323-1.771 2.923-2.901 4.8-3.392 1.878-.491 4.064-.736 6.56-.736h.064c.939.043 2.07 0 3.392-.128 1.323-.128 1.984-.459 1.984-.992l4.32.032c0 1.707-.725 2.88-2.176 3.52-1.45.64-3.2.96-5.248.96-.874 0-1.738-.043-2.592-.128l-.704-.032c-2.56 0-4.618.523-6.176 1.568-1.536 1.045-2.4 2.795-2.592 5.248.875-1.152 2.123-1.909 3.744-2.272 1.622-.384 3.478-.576 5.568-.576 2.859 0 5.152.64 6.88 1.92 1.75 1.259 2.635 3.04 2.656 5.344v.032Zm-10.817 4.896c.96 0 1.888-.053 2.784-.16.896-.128 1.803-.533 2.72-1.216.918-.704 1.376-1.803 1.376-3.296.043-1.856-.544-3.157-1.76-3.904-1.194-.747-2.698-1.109-4.512-1.088-2.666.043-4.608.352-5.824.928-1.194.576-1.866 1.44-2.016 2.592a5.17 5.17 0 0 0-.032.672c0 2.091.747 3.531 2.24 4.32 1.515.768 3.19 1.152 5.024 1.152Zm24.965-15.008c2.09 0 3.968.405 5.632 1.216 1.685.811 2.997 1.941 3.936 3.392.96 1.429 1.44 3.04 1.44 4.832 0 1.771-.48 3.381-1.44 4.832-.939 1.429-2.251 2.549-3.936 3.36-1.664.811-3.542 1.216-5.632 1.216-2.006 0-3.894-.405-5.664-1.216-1.75-.832-3.147-1.963-4.192-3.392-1.046-1.451-1.569-3.051-1.569-4.8a7.93 7.93 0 0 1 1.569-4.8c1.045-1.451 2.442-2.581 4.192-3.392 1.749-.832 3.637-1.248 5.664-1.248Zm.032 15.968c1.962 0 3.616-.523 4.96-1.568 1.344-1.067 2.016-2.72 2.016-4.96 0-2.24-.672-3.893-2.016-4.96-1.344-1.067-2.998-1.6-4.96-1.6a9.556 9.556 0 0 0-3.553.672 6.273 6.273 0 0 0-2.783 2.144c-.705.981-1.057 2.229-1.057 3.744 0 1.515.352 2.763 1.056 3.744a6.389 6.389 0 0 0 2.752 2.112 9.642 9.642 0 0 0 3.585.672Zm33.246-15.232v3.552h-8.672V219h-4v-13.888h-8.8v-3.552h21.472Zm13.751-.768c2.688 0 5.099.512 7.232 1.536 2.134 1.024 3.2 2.827 3.2 5.408V219h-3.552l-.448-3.36c-.298.619-.928 1.216-1.888 1.792-.938.555-2.08 1.003-3.424 1.344a16.337 16.337 0 0 1-4.096.512c-1.642 0-3.424-.341-5.344-1.024-1.92-.683-2.88-2.176-2.88-4.48 0-1.515.416-2.667 1.248-3.456.832-.811 1.739-1.333 2.72-1.568.982-.256 1.856-.384 2.624-.384 3.691 0 6.24-.021 7.648-.064 1.43-.064 2.358-.181 2.784-.352.427-.192.651-.523.672-.992v-.288c-.021-.533-.341-1.024-.96-1.472-.597-.469-1.397-.843-2.4-1.12a11.964 11.964 0 0 0-3.2-.416c-1.92-.043-3.552.224-4.896.8-1.344.576-2.016 1.504-2.016 2.784h-4.032c0-1.643.587-2.944 1.76-3.904 1.174-.96 2.592-1.621 4.256-1.984a22.136 22.136 0 0 1 4.992-.576Zm-1.44 14.976c2.987 0 5.046-.608 6.176-1.824 1.152-1.216 1.728-2.592 1.728-4.128-1.045.789-3.178 1.184-6.4 1.184-1.77 0-3.146.053-4.128.16-.96.107-1.674.32-2.144.64-.469.299-.725.747-.768 1.344.064.811.502 1.451 1.312 1.92.832.469 2.24.704 4.224.704Zm36.444-5.248h-18.176a6.865 6.865 0 0 0 .928 3.072c.554.939 1.376 1.707 2.464 2.304 1.088.597 2.41.896 3.968.896 1.344 0 2.528-.235 3.552-.704 1.045-.491 1.845-1.088 2.4-1.792.576-.725.864-1.419.864-2.08h4c0 1.109-.427 2.24-1.28 3.392-.854 1.152-2.102 2.112-3.744 2.88-1.643.768-3.595 1.152-5.856 1.152-2.027 0-3.904-.395-5.632-1.184-1.728-.811-3.104-1.931-4.128-3.36-1.024-1.451-1.536-3.093-1.536-4.928 0-1.877.49-3.531 1.472-4.96 1.002-1.451 2.357-2.56 4.064-3.328 1.728-.789 3.648-1.184 5.76-1.184 2.154 0 4.042.384 5.664 1.152 1.642.768 2.912 1.856 3.808 3.264.917 1.387 1.386 3.019 1.408 4.896v.512Zm-10.816-6.944c-1.835 0-3.318.405-4.448 1.216a6.72 6.72 0 0 0-2.432 3.2h13.44c-.363-1.323-1.078-2.389-2.144-3.2-1.046-.811-2.518-1.216-4.416-1.216Zm43.23-2.016V219h-4v-13.92L203.105 219h-4.32l-8.992-13.568V219h-4v-17.44h5.76l9.408 14.176 9.376-14.176h5.472Zm13.597 8.736c0-1.792.491-3.403 1.472-4.832 1.003-1.451 2.368-2.581 4.096-3.392 1.75-.811 3.691-1.216 5.824-1.216 3.072 0 5.451.64 7.136 1.92 1.686 1.28 2.934 3.072 3.744 5.376h-4.032c-.192-.768-.597-1.493-1.216-2.176-.618-.683-1.408-1.227-2.368-1.632-.96-.405-2.016-.608-3.168-.608-1.578 0-2.922.288-4.032.864-1.109.576-1.952 1.365-2.528 2.368-.554.981-.832 2.091-.832 3.328 0 1.067.267 2.112.8 3.136.534 1.024 1.355 1.867 2.464 2.528 1.11.64 2.486.939 4.128.896 1.174 0 2.24-.203 3.2-.608.96-.427 1.739-.971 2.336-1.632.619-.683 1.014-1.397 1.184-2.144h4.032c-.149 1.195-.757 2.357-1.824 3.488-1.045 1.109-2.378 2.016-4 2.72a12.34 12.34 0 0 1-5.024 1.056c-2.026 0-3.914-.405-5.664-1.216-1.749-.832-3.146-1.973-4.192-3.424-1.024-1.451-1.536-3.051-1.536-4.8Zm44.239-.96 13.216 9.632h-6.176l-11.424-8.448V219h-4v-17.44h4v6.688l10.432-6.624h6.272l-12.32 7.712Zm35.919 1.344a10.237 10.237 0 0 1-1.088 4.352 8.566 8.566 0 0 1-2.944 3.296c-1.258.832-2.741 1.248-4.448 1.248-3.69 0-6.506-.917-8.448-2.752v8.256h-4v-23.52h3.328l.512 2.56c2.006-1.963 4.875-2.944 8.608-2.944 1.643 0 3.094.405 4.352 1.216 1.28.811 2.283 1.92 3.008 3.328.726 1.408 1.099 2.987 1.12 4.736v.224Zm-10.72 6.08c1.387 0 2.56-.32 3.52-.96.982-.661 1.718-1.472 2.208-2.432.512-.981.779-1.931.8-2.848a7.436 7.436 0 0 0-.736-3.104c-.448-1.003-1.162-1.824-2.144-2.464-.96-.661-2.176-.992-3.648-.992-1.216 0-2.293.309-3.232.928a6.374 6.374 0 0 0-2.208 2.368 6.369 6.369 0 0 0-.768 3.04c0 1.173.256 2.251.768 3.232a6.119 6.119 0 0 0 2.176 2.368c.96.576 2.048.864 3.264.864Zm34.186-15.2-10.24 21.376c-.512.96-1.398 1.589-2.656 1.888-1.238.32-2.784.48-4.64.48l-.032-3.936c.981 0 1.674-.096 2.08-.288.405-.171.608-.427.608-.768 0-.235-.086-.523-.256-.864-.15-.32-.246-.523-.288-.608l-8.992-17.28h4.512l8.032 16.704 7.36-16.704h4.512Zm1.919 0h21.76V219h-4v-13.888h-13.76V219h-4v-17.44Zm42.161 7.072v-7.072h3.904V219h-3.904v-7.264h-13.632V219h-3.904v-17.44h3.904v7.072h13.632Zm17.848-2.528c3.158 0 5.472.544 6.944 1.632 1.494 1.088 2.24 2.699 2.24 4.832v.096c0 2.027-.597 3.595-1.792 4.704-1.173 1.088-3.189 1.632-6.048 1.632a19.3 19.3 0 0 1-1.312-.032V219h-11.008l-.096-17.44h4l.032 4.544h7.04ZM406.062 219v-17.44h4V219h-4Zm-10.464-3.008c.768 0 1.472-.053 2.112-.16.64-.128 1.238-.448 1.792-.96.555-.533.832-1.355.832-2.464s-.277-1.909-.832-2.4c-.554-.512-1.13-.811-1.728-.896-.576-.085-1.301-.128-2.176-.128h-7.68l.032 7.008h7.648Zm47.367-14.432V219h-4v-13.92L430.261 219h-4.32l-8.992-13.568V219h-4v-17.44h5.76l9.408 14.176 9.376-14.176h5.472Zm6.89 13.184 13.408-13.184h4V219h-4v-13.184L449.855 219h-4v-17.44h4v13.184ZM21.664 237.4c-.021 2.176-1.013 3.776-2.976 4.8-1.963 1.003-4.523 1.504-7.68 1.504-2.304 0-4.288-.299-5.952-.896-1.643-.619-2.901-1.483-3.776-2.592-.853-1.109-1.28-2.389-1.28-3.84h4c0 1.365.672 2.379 2.016 3.04 1.365.661 3.03 1.003 4.992 1.024 1.813.021 3.36-.213 4.64-.704 1.28-.491 1.92-1.28 1.92-2.368 0-.512-.096-.875-.288-1.088-.17-.235-.63-.405-1.376-.512-.725-.128-1.93-.192-3.616-.192H7.936v-2.944h4.352c1.6 0 2.816-.139 3.648-.416.853-.277 1.28-.811 1.28-1.6 0-.725-.608-1.259-1.824-1.6-1.195-.363-2.656-.544-4.384-.544-1.963-.043-3.627.139-4.992.544-1.344.405-2.016 1.077-2.016 2.016H0c0-2.261 1.141-3.797 3.424-4.608 2.283-.811 4.81-1.216 7.584-1.216 2.773 0 5.163.331 7.168.992 2.027.661 3.04 2.069 3.04 4.224 0 1.685-.608 2.859-1.824 3.52 1.515.661 2.272 1.803 2.272 3.424v.032Zm13.29-12.608c2.688 0 5.099.512 7.232 1.536s3.2 2.827 3.2 5.408V243h-3.552l-.448-3.36c-.299.619-.928 1.216-1.888 1.792-.939.555-2.08 1.003-3.424 1.344a16.341 16.341 0 0 1-4.096.512c-1.643 0-3.424-.341-5.344-1.024-1.92-.683-2.88-2.176-2.88-4.48 0-1.515.416-2.667 1.248-3.456.832-.811 1.739-1.333 2.72-1.568.981-.256 1.856-.384 2.624-.384 3.69 0 6.24-.021 7.648-.064 1.43-.064 2.357-.181 2.784-.352.427-.192.65-.523.672-.992v-.288c-.022-.533-.342-1.024-.96-1.472-.598-.469-1.398-.843-2.4-1.12a11.97 11.97 0 0 0-3.2-.416c-1.92-.043-3.552.224-4.896.8-1.344.576-2.016 1.504-2.016 2.784h-4.032c0-1.643.586-2.944 1.76-3.904 1.173-.96 2.592-1.621 4.256-1.984a22.136 22.136 0 0 1 4.992-.576Zm-1.44 14.976c2.986 0 5.045-.608 6.176-1.824 1.152-1.216 1.728-2.592 1.728-4.128-1.045.789-3.179 1.184-6.4 1.184-1.77 0-3.147.053-4.128.16-.96.107-1.675.32-2.144.64-.47.299-.726.747-.768 1.344.064.811.501 1.451 1.312 1.92.832.469 2.24.704 4.224.704Zm18.78-2.72a7.7 7.7 0 0 0-.033.8l.032-.8Zm14.303-3.168c1.387.277 2.422.747 3.104 1.408.704.64 1.056 1.568 1.056 2.784v.064c0 1.173-.309 2.123-.928 2.848-.618.704-1.6 1.227-2.944 1.568-1.322.32-3.093.48-5.312.48H48.261V225.56h14.304c2.155 0 3.808.363 4.96 1.088 1.174.725 1.76 1.781 1.76 3.168v.128c0 1.024-.224 1.856-.672 2.496-.426.64-1.098 1.12-2.016 1.44Zm-1.216-3.36c0-.683-.181-1.173-.544-1.472-.362-.299-.832-.48-1.408-.544-.554-.085-1.376-.128-2.464-.128h-8.672v4.416l8.192.064h.48c1.088 0 1.899-.032 2.432-.096.555-.064 1.024-.256 1.408-.576.384-.341.576-.896.576-1.664Zm-3.872 9.536c1.216 0 2.144-.032 2.784-.096.662-.085 1.195-.288 1.6-.608.406-.341.608-.875.608-1.6 0-.725-.202-1.248-.608-1.568-.405-.32-.938-.512-1.6-.576-.64-.085-1.568-.128-2.784-.128h-9.216v4.576h9.216Zm22.603-15.232c2.09 0 3.968.405 5.632 1.216 1.685.811 2.997 1.941 3.936 3.392.96 1.429 1.44 3.04 1.44 4.832 0 1.771-.48 3.381-1.44 4.832-.94 1.429-2.251 2.549-3.937 3.36-1.663.811-3.54 1.216-5.631 1.216-2.006 0-3.894-.405-5.664-1.216-1.75-.832-3.147-1.963-4.192-3.392-1.046-1.451-1.569-3.051-1.569-4.8a7.93 7.93 0 0 1 1.569-4.8c1.045-1.451 2.442-2.581 4.192-3.392 1.749-.832 3.637-1.248 5.664-1.248Zm.032 15.968c1.962 0 3.615-.523 4.96-1.568 1.344-1.067 2.016-2.72 2.016-4.96 0-2.24-.672-3.893-2.017-4.96-1.343-1.067-2.997-1.6-4.96-1.6a9.556 9.556 0 0 0-3.552.672 6.273 6.273 0 0 0-2.783 2.144c-.705.981-1.057 2.229-1.057 3.744 0 1.515.352 2.763 1.056 3.744a6.389 6.389 0 0 0 2.752 2.112 9.64 9.64 0 0 0 3.585.672Zm36.566-1.088h3.168v6.368h-3.968v-3.04L99.75 243v3.072h-4v-6.368h1.6c1.152-1.451 1.984-2.752 2.496-3.904.533-1.173.885-2.485 1.056-3.936.171-1.472.256-3.573.256-6.304h19.52l.032 14.144Zm-15.872-11.04c-.021 1.92-.107 3.488-.256 4.704-.149 1.195-.427 2.283-.832 3.264-.405.981-1.003 2.005-1.792 3.072h14.72v-11.008l-11.84-.032Zm32.335-3.872c2.688 0 5.098.512 7.232 1.536 2.133 1.024 3.2 2.827 3.2 5.408V243h-3.552l-.448-3.36c-.299.619-.928 1.216-1.888 1.792-.939.555-2.08 1.003-3.424 1.344a16.343 16.343 0 0 1-4.096.512c-1.643 0-3.424-.341-5.344-1.024-1.92-.683-2.88-2.176-2.88-4.48 0-1.515.416-2.667 1.248-3.456.832-.811 1.738-1.333 2.72-1.568.981-.256 1.856-.384 2.624-.384 3.69 0 6.24-.021 7.648-.064 1.429-.064 2.357-.181 2.784-.352.426-.192.65-.523.672-.992v-.288c-.022-.533-.342-1.024-.96-1.472-.598-.469-1.398-.843-2.4-1.12a11.975 11.975 0 0 0-3.2-.416c-1.92-.043-3.552.224-4.896.8-1.344.576-2.016 1.504-2.016 2.784h-4.032c0-1.643.586-2.944 1.76-3.904 1.173-.96 2.592-1.621 4.256-1.984a22.136 22.136 0 0 1 4.992-.576Zm-1.44 14.976c2.986 0 5.045-.608 6.176-1.824 1.152-1.216 1.728-2.592 1.728-4.128-1.046.789-3.179 1.184-6.4 1.184-1.771 0-3.147.053-4.128.16-.96.107-1.675.32-2.144.64-.47.299-.726.747-.768 1.344.064.811.501 1.451 1.312 1.92.832.469 2.24.704 4.224.704Zm44.763-14.208V243h-4v-13.92L167.792 243h-4.32l-8.992-13.568V243h-4v-17.44h5.76l9.408 14.176 9.376-14.176h5.472Zm18.078 13.184 13.408-13.184h4V243h-4v-13.184L198.574 243h-4v-17.44h4v13.184Zm39.853-5.408 13.216 9.632h-6.176l-11.424-8.448V243h-4v-17.44h4v6.688l10.432-6.624h6.272l-12.32 7.712Zm23.06-8.512c2.09 0 3.968.405 5.632 1.216 1.685.811 2.997 1.941 3.936 3.392.96 1.429 1.44 3.04 1.44 4.832 0 1.771-.48 3.381-1.44 4.832-.939 1.429-2.251 2.549-3.936 3.36-1.664.811-3.542 1.216-5.632 1.216-2.006 0-3.894-.405-5.664-1.216-1.75-.832-3.147-1.963-4.192-3.392-1.046-1.451-1.568-3.051-1.568-4.8a7.93 7.93 0 0 1 1.568-4.8c1.045-1.451 2.442-2.581 4.192-3.392 1.749-.832 3.637-1.248 5.664-1.248Zm.032 15.968c1.962 0 3.616-.523 4.96-1.568 1.344-1.067 2.016-2.72 2.016-4.96 0-2.24-.672-3.893-2.016-4.96-1.344-1.067-2.998-1.6-4.96-1.6a9.55 9.55 0 0 0-3.552.672 6.269 6.269 0 0 0-2.784 2.144c-.704.981-1.056 2.229-1.056 3.744 0 1.515.352 2.763 1.056 3.744a6.382 6.382 0 0 0 2.752 2.112 9.636 9.636 0 0 0 3.584.672Zm43.383-15.232V243h-4v-13.92L292.198 243h-4.32l-8.992-13.568V243h-4v-17.44h5.76l9.408 14.176 9.376-14.176h5.472Zm2.891 0h21.76V243h-4v-13.888h-13.76V243h-4v-17.44Zm35.505-.768c2.688 0 5.098.512 7.232 1.536 2.133 1.024 3.2 2.827 3.2 5.408V243h-3.552l-.448-3.36c-.299.619-.928 1.216-1.888 1.792-.939.555-2.08 1.003-3.424 1.344a16.343 16.343 0 0 1-4.096.512c-1.643 0-3.424-.341-5.344-1.024-1.92-.683-2.88-2.176-2.88-4.48 0-1.515.416-2.667 1.248-3.456.832-.811 1.738-1.333 2.72-1.568.981-.256 1.856-.384 2.624-.384 3.69 0 6.24-.021 7.648-.064 1.429-.064 2.357-.181 2.784-.352.426-.192.65-.523.672-.992v-.288c-.022-.533-.342-1.024-.96-1.472-.598-.469-1.398-.843-2.4-1.12a11.975 11.975 0 0 0-3.2-.416c-1.92-.043-3.552.224-4.896.8-1.344.576-2.016 1.504-2.016 2.784h-4.032c0-1.643.586-2.944 1.76-3.904 1.173-.96 2.592-1.621 4.256-1.984a22.136 22.136 0 0 1 4.992-.576Zm-1.44 14.976c2.986 0 5.045-.608 6.176-1.824 1.152-1.216 1.728-2.592 1.728-4.128-1.046.789-3.179 1.184-6.4 1.184-1.771 0-3.147.053-4.128.16-.96.107-1.675.32-2.144.64-.47.299-.726.747-.768 1.344.064.811.501 1.451 1.312 1.92.832.469 2.24.704 4.224.704Zm32.283-7.136v-7.072h3.904V243h-3.904v-7.264h-13.632V243h-3.904v-17.44h3.904v7.072h13.632Zm10.777 6.112 13.408-13.184h4V243h-4v-13.184L384.918 243h-4v-17.44h4v13.184Zm42.233 4.192h-4v-4.448h-8.576l-4.864 4.448h-4.992l5.504-5.056c-1.686-.469-2.998-1.205-3.936-2.208-.918-1.024-1.376-2.261-1.376-3.712v-.128c0-1.259.416-2.368 1.248-3.328.853-.981 2.037-1.739 3.552-2.272 1.536-.533 3.296-.8 5.28-.8h12.16v17.504Zm-18.24-10.848c0 1.067.288 1.845.864 2.336.597.491 1.322.8 2.176.928.853.107 1.984.16 3.392.16h7.808v-6.976c-3.648 0-5.984-.032-7.008-.096a6.714 6.714 0 0 0-.8-.032c-1.408 0-2.539.064-3.392.192-.854.107-1.579.427-2.176.96-.576.533-.864 1.376-.864 2.528Zm51.148-6.528V243h-4v-13.92L447.355 243h-4.32l-8.992-13.568V243h-4v-17.44h5.76l9.408 14.176 9.376-14.176h5.472Zm6.89 13.184 13.408-13.184h4V243h-4v-13.184L466.949 243h-4v-17.44h4v13.184Zm-251.763 4.576h4.16V263h2.592v8.16h-4.32V267h-23.392v-23.68h4.16V263h16.8v-19.68Zm45.576 11.872c0 1.792-.694 3.424-2.08 4.896-1.387 1.451-3.307 2.603-5.76 3.456-2.454.832-5.195 1.248-8.224 1.248h-.864V267h-4.16v-2.208h-.8c-2.923 0-5.664-.427-8.224-1.28-2.539-.853-4.576-2.005-6.112-3.456-1.515-1.472-2.272-3.093-2.272-4.864 0-1.792.757-3.413 2.272-4.864 1.514-1.451 3.53-2.603 6.048-3.456 2.538-.853 5.269-1.291 8.192-1.312h.896v-2.24h4.16v2.24h.864c3.05.021 5.792.448 8.224 1.28 2.453.832 4.373 1.984 5.76 3.456 1.386 1.451 2.08 3.083 2.08 4.896Zm-21.088 5.6V249.56h-.416c-3.136 0-5.974.427-8.512 1.28-2.518.853-3.776 2.304-3.776 4.352 0 1.387.64 2.507 1.92 3.36 1.301.832 2.88 1.419 4.736 1.76 1.877.32 3.754.48 5.632.48h.416Zm4.928 0c3.221 0 5.973-.416 8.256-1.248 2.282-.853 3.424-2.304 3.424-4.352 0-2.069-1.174-3.52-3.52-4.352-2.347-.853-5.078-1.28-8.192-1.28h-.736v11.232h.768Zm32.566-17.984c2.709 0 5.141.544 7.296 1.632 2.176 1.067 3.872 2.549 5.088 4.448 1.237 1.877 1.856 4 1.856 6.368 0 2.347-.619 4.459-1.856 6.336-1.216 1.877-2.901 3.36-5.056 4.448-2.155 1.067-4.587 1.6-7.296 1.6-2.624 0-5.035-.533-7.232-1.6-2.197-1.088-3.936-2.571-5.216-4.448-1.28-1.899-1.92-4.011-1.92-6.336 0-2.347.64-4.469 1.92-6.368 1.28-1.899 3.008-3.381 5.184-4.448 2.197-1.088 4.608-1.632 7.232-1.632Zm0 21.216c1.728 0 3.36-.341 4.896-1.024s2.773-1.685 3.712-3.008c.939-1.323 1.408-2.901 1.408-4.736 0-1.792-.48-3.36-1.44-4.704-.939-1.344-2.187-2.368-3.744-3.072a11.827 11.827 0 0 0-4.928-1.056c-1.877 0-3.584.352-5.12 1.056-1.515.704-2.709 1.728-3.584 3.072-.875 1.323-1.312 2.891-1.312 4.704 0 1.856.459 3.445 1.376 4.768.939 1.323 2.176 2.325 3.712 3.008 1.536.661 3.211.992 5.024.992Z" fill="#fff"/><path d="M304.915 84c0-7.407-.965-14.757-2.867-21.843a83.554 83.554 0 0 0-8.106-19.698 84.561 84.561 0 0 0-28.935-29.971C251.786 4.318 236.541 0 220.921 0h-.006c-9.893 0-19.579 1.703-28.788 5.062a83.676 83.676 0 0 0-24.491 13.994 84.27 84.27 0 0 0-16.955 18.85C141.675 51.6 136.915 67.539 136.915 84l.001.165h-.001v.091l.002.004c.034 11.248 2.253 22.161 6.6 32.438 4.231 10.003 10.288 18.986 18.002 26.7 7.715 7.715 16.698 13.771 26.7 18.001 10.356 4.38 21.357 6.601 32.696 6.601 11.313-.001 22.289-2.212 32.624-6.571 9.982-4.211 18.953-10.241 26.662-17.922 7.709-7.679 13.771-16.626 18.019-26.59 4.397-10.313 6.649-21.273 6.694-32.573v-.082l.001-.002v-.092h-.001l.001-.168Zm-148.597-7.386c-.171-.703-.211-1.445-.023-2.144.29-1.091.977-1.756 1.825-2.078-.239 2.292-.41 4.603-.507 6.928-.592-.807-1.05-1.694-1.295-2.706Zm23.923-57.052c-.253.28-.504.562-.753.847-1.035.402-2.069.956-3.131 1.236-2.797.744-5.571-.434-8.094-2.035a83.804 83.804 0 0 1 6.09-4.542c1.51 1.606 3.488 3.113 5.888 4.494Zm24.666 131.061-1.777-2.073a88.853 88.853 0 0 1-1.81-4.709c6.274.747 12.7 1.132 19.182 1.148v22.176c-3.598-.153-7.107-2.305-10.435-6.406-1.849-2.278-3.596-5.098-5.228-8.431a1.67 1.67 0 0 0 .06-.059c.425-.456.414-1.171.008-1.646ZM192.635 84c0-5.047.155-10.044.459-14.942.486.073.974.144 1.464.213 8.303 1.172 17.03 1.773 25.944 1.791v37.043c-2.323-.004-4.637-.04-6.936-.109-4.547-1.751-9.094-3.501-13.638-5.253-.361-.138-.735-.287-.992-.574-.522-.583-.378-1.505-.721-2.212-.235-.483-.682-.827-1.121-1.14a31.92 31.92 0 0 0-4.152-2.515A245.202 245.202 0 0 1 192.635 84Zm-4.407-59.16c-.179-.559-.618-.995-1.16-1.217-.937-.384-1.974-.19-2.954.009-.83-.245-.381-1.395-.457-2.319 2.512 1.152 5.354 2.19 8.491 3.096.538.155 1.082.306 1.631.451a27.03 27.03 0 0 0-1.969 4.738c-.069.22-.134.471-.03.678.112.233.391.333.644.402a37.52 37.52 0 0 0 3.189.756c.756.14 1.54.261 2.283.056.1-.027.198-.062.295-.104-.509 1.833-.991 3.73-1.445 5.685-1.996-1.889-5.04-2.496-7.786-2.07-1.572.245-3.174.836-4.175 2.07-1.005 1.245-1.246 2.921-1.913 4.372a7.94 7.94 0 0 1-3.212 3.526c-.264.155-.567.298-.867.236-.209-.044-.384-.178-.551-.312-1.766-1.433-3.362-3.33-3.575-5.595-.296-3.157 2.17-5.92 4.85-7.62 2.678-1.695 5.765-2.819 8.046-5.02.475-.457.928-.992.665-1.819Zm10.826 3.577c-.155-.771.01-1.528.254-2.286l.441.086c-.236.722-.468 1.455-.695 2.2Zm-22.138 32.398c1.771-3.121 5.933-3.62 9.39-4.594a23.13 23.13 0 0 0 4.914-2.022c.521-.285.96-.715 1.203-1.255.51-1.118-.263-1.524-.622-2.17-.641-1.153.242-2.613 1.361-3.315.519-.325 1.089-.56 1.658-.796-1.164 6.792-2 13.998-2.491 21.442-5.884-.916-11.429-2.109-16.552-3.56.29-1.278.5-2.6 1.139-3.73Zm18.809-14.546a6.31 6.31 0 0 0 .976-.561c2.402-1.72 2.516-5.55.72-7.894.934-4.084 1.986-7.91 3.146-11.444 1.177.215 2.372.41 3.584.587.234 1.02.956 1.957 1.813 2.598 1.2.9 2.651 1.389 3.977 2.093.996.524 2.11 1.198 3.162.8 1.129-.422 1.492-1.811 1.699-2.997l.251-1.457c1.799.085 3.617.131 5.45.137v42.106c-8.876-.018-17.565-.617-25.829-1.783-.511-.072-1.02-.146-1.526-.222.501-7.636 1.366-15.022 2.577-21.963Zm9.85-32.044a.84.84 0 0 1 .157.199c.106.192.128.419.134.637a6.924 6.924 0 0 1-.818 3.507c-.51.95-1.274 1.922-1.054 2.98.134.632.611 1.162.704 1.803.114.808-.402 1.557-.568 2.354a2.714 2.714 0 0 0-.053.407 99.76 99.76 0 0 1-3.247-.533 91.53 91.53 0 0 1 2.267-6.045 68.264 68.264 0 0 1 2.478-5.309Zm80.44 36.16c.098.52.357.994.57 1.48.386.879.622 1.898.27 2.792-.352.89-1.479 1.51-2.317 1.045-.388-.216-.645-.613-.829-1.02-.866-1.906-.527-4.357-1.935-5.91-1.011-1.114-2.677-1.453-3.664-2.585-.935-1.067-1.033-2.783-.212-3.94.825-1.156 2.498-1.622 3.792-1.042.181.083.354.182.514.294a7.23 7.23 0 0 0 2.634 1.151c.44.093.885.314 1.201.777.421.617.488 1.4.46 2.145a18.583 18.583 0 0 1-.311 2.746c-.13.683-.3 1.382-.173 2.067Zm-21.108 4.23c.485.319 1.107-.203 1.316-.74.21-.54.273-1.183.72-1.55.649-.54 1.677-.097 2.192.571.511.674.742 1.53 1.267 2.193.661.837 1.73 1.275 2.79 1.38 1.063.099 2.13-.102 3.168-.344.173-.04.376-.075.506.046.082.077.105.196.122.306a10.782 10.782 0 0 1-.106 4.015c-.029.134-.07.261-.122.382-.913.378-1.852.747-2.818 1.106-2.092-.702-3.693-1.796-5.458-2.3-.449-.127-.919-.257-1.373-.147-.583.145-.993.642-1.436 1.045-1.522 1.393-3.872 1.799-5.775 1-1.356-.575-2.436-1.743-2.965-3.114a2.248 2.248 0 0 0-2.401-1.44c-1.984.268-3.967.537-5.95.807a203.25 203.25 0 0 0-.87-6.736c.509-.619 1.021-1.236 1.668-1.708.948-.692 2.324-.992 3.277-.308.452.326.75.827 1.18 1.184.427.354 1.004.55 1.548.44.542-.11 1.024-.568 1.076-1.119.028-.29-.054-.583-.043-.876.032-.773.758-1.395 1.526-1.502.769-.105 1.54.208 2.179.644 2.171 1.492 3.023 4.23 4.482 6.424.084.128.174.258.3.342Zm-21.928-26.831c.352 1.352 1.427 2.378 2.455 3.33.126.115.255.233.413.292.538.202 1.056-.318 1.604-.482.428-.13.888-.038 1.324.052.41.087.836.182 1.162.443.441.356.613.963.579 1.526v.009c-.024.386-.344.692-.732.728-1.383.125-2.363.952-3.002 1.775-.579.744-.959 1.651-1.517 2.396-.942-4.146-2.009-8.04-3.186-11.637.263-.05.525-.102.787-.154-.047.578-.034 1.16.113 1.722Zm1.603 10.79-.026.023c-1.24.967-3.127.94-4.164 2.12-.976 1.11-.635 3.097.658 3.817.294.166.635.277.855.537.413.49.163 1.3-.356 1.68-.516.378-1.198.434-1.839.443-.644.009-1.311-.016-1.899.239-.84.365-1.367 1.253-1.514 2.158-.388 2.416 1.763 4.748 4.185 5.096 2.422.35 4.857-.918 6.503-2.731l.016-.019c.282 1.973.537 3.976.765 6.005l-4.973.675c-1.909.26-3.99.607-5.273 2.046-1.082 1.212-1.343 2.93-1.979 4.428-.75 1.76-2.033 3.227-3.105 4.815a197.81 197.81 0 0 1-11.108.331V28.131c6.954-.023 13.707-.624 19.933-1.761 1.233 3.754 2.346 7.841 3.321 12.205ZM201.757 141.77c.699-1.278 1.714-2.349 2.6-3.507a20.64 20.64 0 0 0 3.168-5.947c.228-.682.442-1.41.963-1.907.399-.38.93-.578 1.416-.842 2.492-1.358 3.583-4.345 4.092-7.137.51-2.794.679-5.753 2.134-8.189.462-.773 1.052-1.485 1.348-2.336.297-.849.22-1.924-.486-2.486-.247-.196-.545-.313-.838-.425a92.493 92.493 0 0 1-.295-.114c1.543.032 3.091.049 4.643.052v35.233A165.026 165.026 0 0 1 201.23 143c.133-.428.313-.842.527-1.23Zm18.745-114.464a122.435 122.435 0 0 1-5.308-.13l.129-.75c.142-.815.319-1.699.952-2.236.775-.657 1.969-.562 2.807-1.136.785-.537 1.062-1.496 1.42-2.403v6.655Zm.826 0v-8.128c1.346-1.678 3.698-2.715 4.053-4.825.227-1.343-.503-2.695-1.503-3.621-.753-.692-1.648-1.197-2.55-1.687V.835c5.034.217 9.966 4.426 14.287 12.204 1.963 3.534 3.771 7.756 5.383 12.54-6.145 1.115-12.807 1.704-19.67 1.726Zm-.826-18.71-.072-.04a28.242 28.242 0 0 1-2.859-1.834c-1.061-.773-2.404-1.063-3.674-.734-1.232.32-2.456.674-3.67 1.058a28.12 28.12 0 0 1 1.155-1.312c2.935-3.119 6.001-4.764 9.12-4.898v7.76Zm.826 136.394a165.787 165.787 0 0 0 19.183-1.149c-2.557 7.235-5.507 12.935-8.772 16.948-3.321 4.081-6.822 6.224-10.411 6.377V144.99Zm0-.826V108.93c9.16-.015 18.181-.537 26.731-1.524-1.328 13.31-3.791 25.503-7.246 35.565a164.68 164.68 0 0 1-19.485 1.192Zm0-36.058V71.062c3.556-.007 7.082-.107 10.563-.3-.165.278-.319.562-.461.853-1.486 3.06-1.35 6.636-.991 10.022.436 4.131 1.497 8.76 5.072 10.873 2.754 1.627 6.215 1.261 9.354.646 1.38-.27 2.785-.578 4.187-.762a231.48 231.48 0 0 1-.911 14.172c-8.57.996-17.62 1.523-26.813 1.539Zm28.553-15.804c1.509-.14 3.008-.098 4.463.324.488.143.976.332 1.352.672 1.695 1.521.068 4.387.715 6.573.363 1.226 1.416 2.105 2.086 3.196a6.09 6.09 0 0 1 .757 1.896 197.648 197.648 0 0 1-10.275 1.504c.438-4.607.74-9.342.902-14.165Zm30.775-22.312c.687.17 1.362.387 2.021.645.283 2.315.492 4.648.627 6.993a29.034 29.034 0 0 1-2.648-7.638Zm-14.705-53.248c.428.386.808.93.699 1.498-.075.381-.355.683-.62.963l-1.992 2.095a28.7 28.7 0 0 1-.501.517 72.572 72.572 0 0 0-1.947-2.252c1.605-.923 3.021-1.903 4.235-2.93.042.036.085.072.126.109Zm-3.018 5.637c-.211.18-.431.348-.666.496-.579.365-1.287.604-1.945.42-.656-.187-1.178-.924-.942-1.564.143-.392.512-.651.739-1.003.098-.15.165-.307.206-.47.178-.094.353-.188.526-.283a73.39 73.39 0 0 1 2.082 2.404Zm-7.448-6.277c-1.335-.35-2.692-.678-4.071-.701-1.383-.024-2.806.28-3.921 1.094-.579.424-1.057.97-1.493 1.54a15.883 15.883 0 0 0-3.029 7.165 90.66 90.66 0 0 1-1.154.227c-1.638-4.878-3.479-9.185-5.48-12.788-3.285-5.912-6.947-9.831-10.777-11.584 9.981.98 19.632 5.115 28.155 12.104a64.743 64.743 0 0 1 4.155 3.722c-.758-.34-1.578-.567-2.385-.779ZM210.781 5.167a29.487 29.487 0 0 0-1.976 2.344c-1.089.37-2.17.764-3.241 1.186-1.166.462-2.486 1.146-2.68 2.388-.181 1.157.775 2.222 1.851 2.686l.12.05a68.657 68.657 0 0 0-2.52 5.394 92.467 92.467 0 0 0-2.324 6.211l-.432-.083c.278-.783.55-1.573.55-2.385.002-.635-.167-1.26-.37-1.862-.512-1.518-1.257-2.932-2.107-4.29a4.109 4.109 0 0 0-3.935-1.9c-1.27.144-2.524.433-3.727.863-.4.142-.808.313-1.078.637-.434.52-.38 1.32-.056 1.915.324.596.868 1.035 1.395 1.458 1.112.892 2.229 1.78 3.341 2.671.276.22.563.462.667.8.084.286.02.577-.096.857a78.29 78.29 0 0 1-1.786-.491c-4.174-1.206-7.811-2.644-10.825-4.268 5.406-5.824 11.445-10.374 17.957-13.526 5.395-2.612 11.01-4.209 16.747-4.77-1.87.856-3.7 2.23-5.475 4.115Zm-29.79 14.814-.019.003a.059.059 0 0 1 .008-.01l.011.007ZM168.47 90.642c-1.555-2.288-3.496-4.862-5.195-6.258-1.62-1.331-3.46-2.585-4.869-4.108.09-2.717.278-5.416.565-8.09 1.183-.14 2.507.239 3.477.974 1.658 1.256 2.599 3.21 3.699 4.982 1.07.293 2.019-.862 2.205-1.955.188-1.093-.05-2.246.276-3.306.799-2.603 4.317-3.198 5.956-5.37.487-.646.777-1.387.993-2.165 5.17 1.463 10.764 2.664 16.698 3.585a246.083 246.083 0 0 0-.179 26.956 33.369 33.369 0 0 0-10.336-2.952 6.666 6.666 0 0 0-3.6.585c-1.816.851-3.978 2.104-4.894 3.207-.66.795-1.23 1.801-1.025 2.814.227 1.121 1.347 1.943 1.414 3.086.011.183-.006.359-.044.53-2.698-.623-5.3-1.302-7.788-2.034a109.245 109.245 0 0 1-6.469-2.118 109.593 109.593 0 0 1-.93-10.674c2.316 1.326 3.958 2.845 5.102 4.218a7.89 7.89 0 0 0 1.617 1.475c2.179 1.495 4.809-1.197 3.327-3.382Zm-2.88 11.272c2.465.726 5.041 1.399 7.712 2.019-.351.631-.876 1.223-1.184 1.883-.693 1.484-.246 3.224.209 4.799.732 2.513 1.51 5.115 3.237 7.083 1.981 2.258 4.956 3.388 7.174 5.413 2.522 2.305 3.889 5.6 4.891 8.865.972 3.17 1.693 6.45 3.18 9.405-6.176-1.183-12.033-2.723-17.463-4.594-.338-.116-.673-.234-1.006-.352-3.718-6.069-6.758-12.775-9.068-20.023a103.385 103.385 0 0 1-3.786-16.48c1.932.692 3.968 1.354 6.104 1.982Zm7.487 35.654c5.658 1.949 11.776 3.54 18.232 4.747 2.012 3.508 5.057 6.333 8.156 8.952.944.799 1.97 1.617 3.196 1.779a2.73 2.73 0 0 0 1.49-.243c3.602 7.327 7.724 12.146 12.106 14.146-6.788-.66-13.381-2.767-19.656-6.289-7.45-4.182-14.144-10.171-19.894-17.802a80.674 80.674 0 0 1-3.67-5.304.47.47 0 0 1 .04.014Zm68.347 6.16a155.63 155.63 0 0 0 5.163-.732c7.915-1.262 15.374-3.089 22.172-5.431l.034-.012a80.103 80.103 0 0 1-3.752 5.413c-5.746 7.597-12.43 13.56-19.864 17.722-6.261 3.505-12.837 5.603-19.606 6.261 5.992-2.735 11.499-10.741 15.853-23.221Zm27.066-6.944c-6.752 2.327-14.165 4.143-22.033 5.397-1.566.249-3.145.476-4.734.679 3.422-10.092 5.861-22.274 7.174-35.553 3.59-.429 7.094-.94 10.488-1.53.178 1.702-.188 3.521-.722 5.172-.838 2.585-2.052 5.125-2.071 7.84-.026 3.729 2.194 7.428 2.49 10.996.125 1.507 1.471 2.595 2.974 2.438 4.292-.445 8.416-2.837 10.681-6.532.775-1.264 1.349-2.654 2.241-3.838.743-.985 1.682-1.796 2.626-2.598-2.171 6.165-4.886 11.912-8.112 17.178-.332.118-.666.236-1.002.351Zm13.48-34.473c-.116.686-.239 1.371-.368 2.054a8.36 8.36 0 0 1 .368-2.054Zm3.712-6.404a66.183 66.183 0 0 0 6.516-11.568c.116-.264.231-.55.164-.834-.205-.828-1.426-.546-2.261-.37-2.451.515-4.592-1.697-5.876-3.845l-.013-.022a110.98 110.98 0 0 0-.661-8.263 17.22 17.22 0 0 1 6.697 5.458 1.49 1.49 0 0 0 1.95.426 54.26 54.26 0 0 1 1.922-1.058 1.47 1.47 0 0 0 .764-1.566 18.716 18.716 0 0 0-4.477-9.072c1.471.15 2.965.305 4.335.86 1.371.552 2.628 1.567 3.122 2.958.247.688.296 1.434.528 2.127.44 1.309.187 2.598 1.029 3.688 2.559 3.304-3.165 9.164 4.548 9.499-2.634 5.254-9.635 10.16-20.075 14.152.574-.875 1.195-1.727 1.788-2.57ZM264.573 13.19c-.435.861-.209 1.766.145 2.352.126.209.289.385.467.55-1.192.997-2.585 1.948-4.165 2.847a67.247 67.247 0 0 0-6.782-6.42c-6.11-5.01-12.795-8.576-19.769-10.589a82.773 82.773 0 0 1 30.104 11.26ZM192.41 5.838a82.523 82.523 0 0 1 14.948-3.915 51.781 51.781 0 0 0-8.209 3.156c-6.661 3.224-12.83 7.886-18.341 13.858-2.347-1.335-4.284-2.788-5.76-4.334a82.692 82.692 0 0 1 17.362-8.765ZM150.857 39.15c-.123.8-.225 1.605-.302 2.412-.211 2.23-.241 4.487-.727 6.671a20.378 20.378 0 0 1-.754 2.533c-1.114-1.198-2.023-2.426-2.716-3.675a83.232 83.232 0 0 1 4.499-7.941Zm-4.936 8.836c.745 1.24 1.687 2.456 2.825 3.642-.789 1.985-1.763 3.913-2.542 5.906-1.209 3.101-1.934 6.637-.686 9.726.868 2.147 2.593 3.834 3.686 5.881 1.73 3.255 1.714 7.12 2.567 10.702.134.567.3 1.143.674 1.588.512.604 1.313.863 2.06 1.124 1.129.395 2.152.84 3.077 1.316.124 3.646.422 7.252.895 10.81-10.906-4.092-18.16-9.17-20.736-14.61V84c0-12.573 2.805-24.838 8.18-36.013Zm-8.16 37.842c1.811 2.926 4.892 5.718 9.187 8.318 3.268 1.978 7.172 3.806 11.656 5.463a104.271 104.271 0 0 0 3.882 17.053c2.219 6.963 5.107 13.431 8.618 19.323-12.073-4.467-21.108-10.393-25.584-16.815a83.184 83.184 0 0 1-1.242-2.794c-4.102-9.697-6.29-19.965-6.517-30.548Zm50.78 74.81c-9.904-4.189-18.799-10.186-26.438-17.824a82.993 82.993 0 0 1-14.922-20.285c5.183 5.599 13.733 10.682 24.608 14.584a81.855 81.855 0 0 0 4.259 6.241c5.819 7.722 12.598 13.786 20.149 18.024 3.621 2.033 7.347 3.601 11.154 4.7a82.377 82.377 0 0 1-18.81-5.44Zm91.078-17.717c-7.634 7.606-16.516 13.576-26.4 17.746a82.386 82.386 0 0 1-18.741 5.41c3.789-1.094 7.497-2.652 11.102-4.67 7.535-4.218 14.304-10.255 20.12-17.944a81.899 81.899 0 0 0 4.342-6.35c10.874-3.902 19.423-8.984 24.605-14.581a82.968 82.968 0 0 1-15.028 20.389Zm17.842-26.328c-.37.868-.755 1.729-1.154 2.582-4.475 6.419-13.508 12.343-25.58 16.809 3.255-5.46 5.973-11.419 8.12-17.807 1.727-1.571 3.27-3.527 3.586-5.84.233-1.718-.236-3.427-.563-5.145a105.74 105.74 0 0 0 1.355-7.582c4.484-1.657 8.388-3.485 11.656-5.462 4.295-2.6 7.376-5.39 9.187-8.315-.228 10.663-2.448 21.004-6.607 30.76Z" fill="#E86C00"/><path d="M171.433 84.218c2.456 1.01 5.358.46 7.777 1.555.565.252 1.09.594 1.673.82.579.223 1.242.322 1.814.08.57-.242.989-.907.795-1.496-.091-.28-.298-.502-.501-.713-1.633-1.676-5.144-3.67-6.943-4.634a11.16 11.16 0 0 0-2.127-.864c-.73-.212-1.33-.363-1.89-.21-1.261.346-1.691 1.886-1.904 3.18-.061.355-.117.725-.02 1.07.169.596.756.974 1.326 1.212Zm57.369-64.186a2.05 2.05 0 0 0-.751.406c-.594.51-1.201 1.125-1.983 1.155-.382.017-.775-.116-1.144-.009-.495.14-.786.696-.758 1.208.032.514.317.978.66 1.36a4.511 4.511 0 0 0 2.935 1.45 4.513 4.513 0 0 0 3.136-.942c.464-.365 1.343-1.164.995-2.834-.285-1.364-1.755-2.2-3.09-1.794Z" fill="#E86C00"/></svg>