<svg width="20" height="20" fill="none" xmlns="http://www.w3.org/2000/svg"><path d="M17.189 4.038H2.81a.512.512 0 0 0-.511.511v1.029c0 .047.051.102.093.124l7.557 4.316c.02.011.042.017.064.017a.126.126 0 0 0 .065-.018l7.329-4.311c.04-.023.15-.084.191-.112.05-.034.1-.064.1-.125v-.92a.512.512 0 0 0-.51-.511ZM17.637 7.13a.128.128 0 0 0-.13 0L13.36 9.57a.129.129 0 0 0-.062.092.127.127 0 0 0 .033.105l4.148 4.472a.127.127 0 0 0 .184.003.127.127 0 0 0 .037-.09V7.24a.127.127 0 0 0-.063-.11ZM12.165 10.39a.127.127 0 0 0-.158-.024l-1.663.978a.65.65 0 0 1-.641.005l-1.463-.836a.128.128 0 0 0-.15.017l-5.556 5.153a.128.128 0 0 0 .023.204c.086.05.17.075.254.075h14.23a.127.127 0 0 0 .127-.15.127.127 0 0 0-.033-.065l-4.97-5.357ZM6.867 9.92a.128.128 0 0 0-.023-.204L2.49 7.229a.128.128 0 0 0-.19.111v6.524a.127.127 0 0 0 .214.094L6.867 9.92Z" fill="#333"/></svg>