<svg width="20" height="20" viewBox="0 0 20 20" fill="none" xmlns="http://www.w3.org/2000/svg">
<circle cx="10" cy="10" r="10" fill="#F2F3F9"/>
<path d="M10.087 15.05H10.8745V14.1155C11.3225 14.0735 11.718 13.958 12.061 13.769C12.404 13.573 12.67 13.321 12.859 13.013C13.055 12.698 13.153 12.341 13.153 11.942C13.153 10.92 12.53 10.2165 11.284 9.8315L10.8745 9.7055V7.049C11.1825 7.133 11.452 7.2835 11.683 7.5005C11.914 7.7105 12.0925 7.9835 12.2185 8.3195L13.1005 7.952C12.9465 7.497 12.6735 7.1015 12.2815 6.7655C11.8965 6.4225 11.4275 6.202 10.8745 6.104V5.1275H10.087V6.0515C9.646 6.0795 9.2575 6.188 8.9215 6.377C8.5855 6.566 8.3195 6.8215 8.1235 7.1435C7.9345 7.4585 7.84 7.819 7.84 8.225C7.84 8.715 7.9905 9.149 8.2915 9.527C8.5925 9.905 9.0265 10.1815 9.5935 10.3565L10.087 10.5035V13.1495C9.702 13.0725 9.366 12.908 9.079 12.656C8.792 12.397 8.5715 12.0575 8.4175 11.6375L7.525 12.005C7.693 12.537 8.001 12.999 8.449 13.391C8.904 13.776 9.45 14.0105 10.087 14.0945V15.05ZM9.9715 9.443C9.6005 9.324 9.324 9.1525 9.142 8.9285C8.96 8.6975 8.869 8.442 8.869 8.162C8.869 7.826 8.981 7.553 9.205 7.343C9.429 7.133 9.723 7.014 10.087 6.986V9.4745L9.9715 9.443ZM11.032 10.7975C11.382 10.9025 11.6515 11.0495 11.8405 11.2385C12.0295 11.4275 12.124 11.6865 12.124 12.0155C12.124 12.3375 12.0085 12.6035 11.7775 12.8135C11.5535 13.0165 11.2525 13.139 10.8745 13.181V10.745L11.032 10.7975Z" fill="#9AA5B6"/>
</svg>
