<svg width="117" height="117" viewBox="0 0 117 117" fill="none" xmlns="http://www.w3.org/2000/svg">
<g clip-path="url(#clip0_1_161)">
<circle cx="3.5" cy="69.5002" r="3.5" fill="#F0F4FF"/>
<circle cx="91.5" cy="69.5002" r="3.5" fill="#F0F4FF"/>
<circle cx="3.5" cy="25.5002" r="3.5" fill="#F0F4FF"/>
<circle cx="3.5" cy="113.5" r="3.5" fill="#F0F4FF"/>
<circle cx="91.5" cy="25.5002" r="3.5" fill="#F0F4FF"/>
<circle cx="91.5" cy="113.5" r="3.5" fill="#F0F4FF"/>
<circle cx="3.5" cy="3.50024" r="3.5" fill="#F0F4FF"/>
<circle cx="3.5" cy="91.5002" r="3.5" fill="#F0F4FF"/>
<circle cx="91.5" cy="3.50024" r="3.5" fill="#F0F4FF"/>
<circle cx="91.5" cy="91.5002" r="3.5" fill="#F0F4FF"/>
<circle cx="3.5" cy="47.5002" r="3.5" fill="#F0F4FF"/>
<circle cx="91.5" cy="47.5002" r="3.5" fill="#F0F4FF"/>
<circle cx="47.5" cy="69.5002" r="3.5" fill="#F0F4FF"/>
<circle cx="47.5" cy="25.5002" r="3.5" fill="#F0F4FF"/>
<circle cx="47.5" cy="113.5" r="3.5" fill="#F0F4FF"/>
<circle cx="47.5" cy="3.50024" r="3.5" fill="#F0F4FF"/>
<circle cx="47.5" cy="91.5002" r="3.5" fill="#F0F4FF"/>
<circle cx="47.5" cy="47.5002" r="3.5" fill="#F0F4FF"/>
<circle cx="25.5" cy="69.5002" r="3.5" fill="#F0F4FF"/>
<circle cx="113.5" cy="69.5002" r="3.5" fill="#F0F4FF"/>
<circle cx="25.5" cy="25.5002" r="3.5" fill="#F0F4FF"/>
<circle cx="25.5" cy="113.5" r="3.5" fill="#F0F4FF"/>
<circle cx="113.5" cy="25.5002" r="3.5" fill="#F0F4FF"/>
<circle cx="113.5" cy="113.5" r="3.5" fill="#F0F4FF"/>
<circle cx="25.5" cy="3.50024" r="3.5" fill="#F0F4FF"/>
<circle cx="25.5" cy="91.5002" r="3.5" fill="#F0F4FF"/>
<circle cx="113.5" cy="3.50024" r="3.5" fill="#F0F4FF"/>
<circle cx="113.5" cy="91.5002" r="3.5" fill="#F0F4FF"/>
<circle cx="25.5" cy="47.5002" r="3.5" fill="#F0F4FF"/>
<circle cx="113.5" cy="47.5002" r="3.5" fill="#F0F4FF"/>
<circle cx="69.5" cy="69.5002" r="3.5" fill="#F0F4FF"/>
<circle cx="69.5" cy="25.5002" r="3.5" fill="#F0F4FF"/>
<circle cx="69.5" cy="113.5" r="3.5" fill="#F0F4FF"/>
<circle cx="69.5" cy="3.50024" r="3.5" fill="#F0F4FF"/>
<circle cx="69.5" cy="91.5002" r="3.5" fill="#F0F4FF"/>
<circle cx="69.5" cy="47.5002" r="3.5" fill="#F0F4FF"/>
</g>
<defs>
<clipPath id="clip0_1_161">
<rect width="117" height="117" fill="white"/>
</clipPath>
</defs>
</svg>
