<svg width="24" height="24" viewBox="0 0 24 24" fill="none" xmlns="http://www.w3.org/2000/svg">
<path fill-rule="evenodd" clip-rule="evenodd" d="M-0.000183105 11.9999C-0.000183105 5.37254 5.37236 0 11.9997 0C18.6271 0 23.9996 5.37254 23.9996 11.9999C23.9996 18.6273 18.6271 23.9998 11.9997 23.9998C5.37236 23.9998 -0.000183105 18.6273 -0.000183105 11.9999Z" fill="white"/>
<path fill-rule="evenodd" clip-rule="evenodd" d="M11.9997 0C5.37236 0 -0.000183105 5.37254 -0.000183105 11.9999C-0.000183105 18.6273 5.37236 23.9998 11.9997 23.9998C18.6271 23.9998 23.9996 18.6273 23.9996 11.9999C23.9996 5.37254 18.6271 0 11.9997 0ZM9.6114 5.63841C10.2941 5.60734 10.5122 5.59974 12.2503 5.59974H12.2483C13.987 5.59974 14.2043 5.60734 14.887 5.63841C15.5684 5.66961 16.0337 5.77747 16.4417 5.93574C16.863 6.09907 17.219 6.31774 17.575 6.67374C17.931 7.02948 18.1497 7.38654 18.3137 7.80748C18.471 8.21441 18.579 8.67948 18.611 9.36082C18.6417 10.0435 18.6497 10.2616 18.6497 11.9998C18.6497 13.7379 18.6417 13.9555 18.611 14.6382C18.579 15.3192 18.471 15.7844 18.3137 16.1915C18.1497 16.6123 17.931 16.9694 17.575 17.3251C17.2194 17.6811 16.8629 17.9003 16.4421 18.0638C16.0349 18.222 15.5693 18.3299 14.888 18.3611C14.2053 18.3922 13.9878 18.3998 12.2495 18.3998C10.5115 18.3998 10.2935 18.3922 9.61087 18.3611C8.92967 18.3299 8.46447 18.222 8.05726 18.0638C7.6366 17.9003 7.27953 17.6811 6.92393 17.3251C6.56806 16.9694 6.34939 16.6123 6.18579 16.1914C6.02766 15.7844 5.91979 15.3194 5.88846 14.638C5.85752 13.9554 5.84979 13.7379 5.84979 11.9998C5.84979 10.2616 5.85779 10.0434 5.88832 9.36068C5.91899 8.67961 6.02699 8.21441 6.18566 7.80734C6.34966 7.38654 6.56833 7.02948 6.92433 6.67374C7.28006 6.31787 7.63713 6.09921 8.05806 5.93574C8.465 5.77747 8.93007 5.66961 9.6114 5.63841Z" fill="#DEE2E8"/>
<path fill-rule="evenodd" clip-rule="evenodd" d="M11.6763 6.75258C11.7878 6.7524 11.9077 6.75246 12.0372 6.75251L12.2505 6.75258C13.9593 6.75258 14.1618 6.75871 14.8366 6.78938C15.4606 6.81791 15.7993 6.92218 16.0249 7.00978C16.3235 7.12578 16.5365 7.26444 16.7603 7.48845C16.9843 7.71245 17.123 7.92578 17.2393 8.22445C17.3269 8.44978 17.4313 8.78845 17.4597 9.41245C17.4903 10.0871 17.497 10.2898 17.497 11.9978C17.497 13.7058 17.4903 13.9085 17.4597 14.5831C17.4311 15.2071 17.3269 15.5458 17.2393 15.7711C17.1233 16.0698 16.9843 16.2825 16.7603 16.5063C16.5363 16.7303 16.3237 16.869 16.0249 16.985C15.7995 17.073 15.4606 17.177 14.8366 17.2055C14.1619 17.2362 13.9593 17.2429 12.2505 17.2429C10.5415 17.2429 10.339 17.2362 9.66432 17.2055C9.04032 17.1767 8.70166 17.0725 8.47592 16.9849C8.17725 16.8689 7.96392 16.7302 7.73992 16.5062C7.51592 16.2822 7.37725 16.0694 7.26098 15.7706C7.17338 15.5453 7.06898 15.2066 7.04058 14.5826C7.00992 13.9079 7.00378 13.7053 7.00378 11.9962C7.00378 10.2871 7.00992 10.0855 7.04058 9.41085C7.06912 8.78685 7.17338 8.44818 7.26098 8.22258C7.37699 7.92391 7.51592 7.71058 7.73992 7.48658C7.96392 7.26258 8.17725 7.12391 8.47592 7.00764C8.70152 6.91964 9.04032 6.81564 9.66432 6.78698C10.2547 6.76031 10.4835 6.75231 11.6763 6.75098V6.75258ZM15.6666 7.81523C15.2426 7.81523 14.8986 8.15883 14.8986 8.58297C14.8986 9.00697 15.2426 9.35097 15.6666 9.35097C16.0906 9.35097 16.4346 9.00697 16.4346 8.58297C16.4346 8.15896 16.0906 7.81496 15.6666 7.81496V7.81523ZM8.96377 11.999C8.96377 10.1839 10.4353 8.71235 12.2503 8.71228C14.0654 8.71228 15.5366 10.1839 15.5366 11.999C15.5366 13.814 14.0655 15.285 12.2505 15.285C10.4354 15.285 8.96377 13.814 8.96377 11.999Z" fill="#DEE2E8"/>
<path fill-rule="evenodd" clip-rule="evenodd" d="M12.2502 9.86621C13.4283 9.86621 14.3835 10.8213 14.3835 11.9996C14.3835 13.1777 13.4283 14.1329 12.2502 14.1329C11.0719 14.1329 10.1169 13.1777 10.1169 11.9996C10.1169 10.8213 11.0719 9.86621 12.2502 9.86621V9.86621Z" fill="#DEE2E8"/>
</svg>
