<svg width="22" height="18" viewBox="0 0 22 18" fill="none" xmlns="http://www.w3.org/2000/svg">
<path d="M18.0914 9.12857L16.0254 9.51429C15.0575 9.51429 14.2014 9.12857 13.4569 8.35714C12.6751 7.62857 12.2843 6.53571 12.2843 5.07857C12.2843 3.66429 12.6937 2.46429 13.5127 1.47857C14.3316 0.492858 15.4856 -1.33784e-06 16.9746 -1.46802e-06C18.4264 -1.59493e-06 19.6362 0.642855 20.6041 1.92857C21.5347 3.21428 22 4.86428 22 6.87857C22 8.93571 21.3299 10.9714 19.9898 12.9857C18.6125 15 16.6582 16.6714 14.1269 18L13.736 16.9071C17.2352 14.6786 18.9848 12.4286 18.9848 10.1571C18.9848 9.47143 18.687 9.12857 18.0914 9.12857ZM5.80711 9.12858L3.74112 9.51429C2.77327 9.51429 1.91709 9.12857 1.17259 8.35715C0.390864 7.62857 9.05109e-07 6.53572 7.77721e-07 5.07857C6.54081e-07 3.66429 0.409478 2.46429 1.22843 1.47857C2.04738 0.492859 3.20136 -2.63919e-07 4.69036 -3.94092e-07C6.14213 -5.2101e-07 7.35195 0.642856 8.3198 1.92857C9.25042 3.21429 9.71574 4.86429 9.71574 6.87857C9.71574 8.93571 9.04569 10.9714 7.70559 12.9857C6.32826 15 4.37395 16.6714 1.84264 18L1.45178 16.9071C4.95093 14.6786 6.70051 12.4286 6.70051 10.1571C6.70051 9.47143 6.40271 9.12858 5.80711 9.12858Z" fill="#FE9168"/>
</svg>
