<svg width="24" height="24" viewBox="0 0 24 24" fill="none" xmlns="http://www.w3.org/2000/svg">
<path fill-rule="evenodd" clip-rule="evenodd" d="M-0.000366211 11.9999C-0.000366211 5.37254 5.37218 0 11.9995 0C18.6269 0 23.9995 5.37254 23.9995 11.9999C23.9995 18.6273 18.6269 23.9998 11.9995 23.9998C5.37218 23.9998 -0.000366211 18.6273 -0.000366211 11.9999Z" fill="white"/>
<path fill-rule="evenodd" clip-rule="evenodd" d="M11.9995 0C5.37218 0 -0.000366211 5.37254 -0.000366211 11.9999C-0.000366211 18.6273 5.37218 23.9998 11.9995 23.9998C18.6269 23.9998 23.9995 18.6273 23.9995 11.9999C23.9995 5.37254 18.6269 0 11.9995 0ZM12.1654 10.1684L12.1402 9.75321C12.0646 8.67702 12.7277 7.69404 13.777 7.31271C14.1631 7.17713 14.8178 7.16018 15.2459 7.27882C15.4137 7.32966 15.7327 7.49914 15.9593 7.65167L16.3706 7.93131L16.8239 7.78725C17.0757 7.71099 17.4114 7.58388 17.5625 7.49914C17.7052 7.42287 17.8311 7.3805 17.8311 7.40593C17.8311 7.54998 17.5205 8.04147 17.2603 8.31264C16.9078 8.69397 17.0085 8.72786 17.722 8.47364C18.1501 8.32959 18.1585 8.32959 18.0745 8.49059C18.0242 8.57533 17.764 8.87192 17.487 9.14309C17.0169 9.60915 16.9917 9.66 16.9917 10.0498C16.9917 10.6515 16.7064 11.9056 16.421 12.592C15.8922 13.88 14.759 15.2104 13.6259 15.8799C12.0311 16.8205 9.90747 17.0578 8.11961 16.507C7.52366 16.3205 6.49963 15.846 6.49963 15.7612C6.49963 15.7358 6.8102 15.7019 7.18791 15.6935C7.97692 15.6765 8.76593 15.4562 9.43742 15.0664L9.89068 14.7952L9.37027 14.6173C8.63163 14.363 7.96853 13.7783 7.80065 13.2275C7.75029 13.0496 7.76708 13.0411 8.23713 13.0411L8.72396 13.0326L8.31267 12.8377C7.82584 12.592 7.38097 12.1768 7.16273 11.7531C7.00325 11.448 6.80181 10.6769 6.86056 10.6176C6.87735 10.5921 7.05362 10.643 7.25506 10.7108C7.83423 10.9226 7.90977 10.8718 7.57402 10.5159C6.9445 9.87185 6.75144 8.91429 7.05362 8.00758L7.19631 7.60083L7.75029 8.15163C8.88344 9.26172 10.218 9.92269 11.7457 10.1176L12.1654 10.1684Z" fill="#DEE2E8"/>
</svg>
