<svg width="263" height="85" fill="none" xmlns="http://www.w3.org/2000/svg"><g clip-path="url(#a)" fill="#CC2F26"><path d="M82.667 4.692c-2.292 4.569-7.96 17.674-9.77 34.986-.723 5.891.121 9.378-2.17 10.7l.24.722c3.74-1.443 7.479-2.525 11.217-3.607l-.12-.842c-1.568-.12-1.206-6.252-1.206-9.017 0-3.005.362-6.973 5.307-9.137.844-.36 1.809-.721 2.894-.841V40.64c0 2.765-.241 3.847-1.688 4.689l.24.962c3.74-.842 7.479-1.684 11.338-2.405l-.12-.962c-1.568 0-1.689-1.563-1.689-3.847v-26.93c.12-5.892-.844-9.619 3.739-10.7V.483H80.014v.962c1.809.12 3.135 1.443 2.653 3.246Zm6.272 4.328v12.023c-1.568.24-4.342 1.082-5.79 1.924 1.327-4.69 3.257-9.859 5.79-13.947ZM157.571 5.774v31.98c0 1.203-.362 3.487-1.688 3.848l-.121.962c8.202 1.082 15.679 2.404 23.157 4.448l.241-.842c-.121-1.803-.724-3.727-1.085-5.65-.724 1.082-3.619 1.202-5.79.6-5.185-1.442-6.512-2.524-6.994-5.049v-21.16c2.05-1.202 4.945-1.202 9.768 1.563V9.381h-9.768V5.774c2.774-1.082 7.115-.721 11.457.722.603-1.804 1.568-3.246 2.171-5.05V.484h-24.122v.962c2.292.842 2.654 1.924 2.774 4.328ZM132.602 5.774v30.418c0 2.164-.241 3.486-1.447 3.967v.962c7.598 0 15.317.36 22.915 1.202l.122-.962-1.69-5.29c-2.653 3.006-12.181 1.563-12.301-3.005V14.79c2.05-1.202 4.944-1.202 9.769 1.563V9.261h-9.649V5.654c3.739-1.202 7.598-.36 11.458.721.604-1.803 1.567-3.246 2.17-5.049V.484h-24.121v.962c2.412.842 2.654 1.924 2.774 4.328ZM182.532 5.774v36.789c0 1.803-.241 3.847-2.171 3.847l-.362.842a140.936 140.936 0 0 1 22.916 8.295c2.171.722 2.171-3.366 1.929-5.29-1.447-24.405-5.91-26.81-10.493-33.422 7.237-7.334 6.754-13.586 4.583-15.63-1.206-.962-2.894-.721-4.704-.721h-14.472v.962c2.652.6 2.774 2.043 2.774 4.328Zm7.718.36c.241-2.043 4.342-2.284 5.066 0 .241 4.208-1.93 8.056-5.066 10.34V6.134Zm0 14.427c.844-.48 1.086-.961 1.809-1.442 5.066 6.372 5.79 14.667 6.152 22.843.12 1.803.723 4.809-1.448 5.29-1.688-.12-6.272-.842-6.513-2.525V20.562Z"/><path d="M207.02 5.774V51.1c0 3.005-.482 4.688-2.171 4.328l-.362.841c6.512 3.126 13.629 6.974 19.177 11.783 3.739 2.043 6.272-1.684 6.272-8.777 0-12.383-3.86-21.881-10.735-31.86-2.412-3.487-4.342-5.891-4.463-7.213V5.894c.242-2.645 1.93-3.848 4.463-4.449h.241V.484h-18.694c0 1.323-.241.24 1.327 6.012.844-1.082 3.377-1.683 4.945-.722Zm7.718 20.439a55.689 55.689 0 0 1 4.463 8.295c4.583 10.941 4.463 21.28 4.463 23.565 0 1.322-.362 1.683-1.327 1.803-1.447 0-5.669-2.284-7.478-4.809-.121-8.656-.121-21.4-.121-28.854ZM100.039 42.684l.241.962c4.222-.722 8.443-1.323 12.906-1.684l-.121-.961c-1.327-.361-.965-2.525-.965-3.848 0-8.415.724-13.946 3.015-19.476 1.93 5.41 2.774 10.94 3.015 18.995 0 1.323.242 3.487-1.085 4.088v.962c3.98-.36 8.081-.48 12.182-.601v-.962c-1.568-.24-1.689-2.164-2.292-3.847-2.895-12.263-3.498-18.274-6.392-23.925 5.186-6.853 2.774-10.1 8.08-10.94V.483h-11.699v.962c.724 0 1.206.36 1.327 1.563-.121 3.366-.603 4.93-3.136 7.214-2.533-2.285-3.015-3.848-3.136-7.214 0-1.202.724-1.322 1.327-1.563V.484h-11.82v.962c1.81.36 3.377 1.323 4.222 3.727.844 2.765 2.291 5.17 3.859 7.214-2.412 5.17-3.256 11.902-6.875 25.969-.603 2.164-.603 3.486-2.653 4.328Z"/><path d="M40.215 75.626a7.528 7.528 0 0 1-.362-2.285c0-5.049 5.186-8.536 10.252-8.536 3.015 0 6.03.842 7.96 3.246 19.78-10.7 40.404-17.913 73.21-17.913 22.312 0 44.626 4.087 62.234 12.263 18.212 9.017 30.876 21.52 46.434 21.52 14.955 0 22.433-11.421 22.433-22.722-.119-12.985-10.13-22.002-19.779-22.002-3.979 0-10.01 2.044-10.01 5.891 0 4.328 6.633 10.1 6.633 13.586 0 1.803-.845 3.005-1.689 3.727-1.086 1.082-2.652 2.765-2.652 4.208 0 1.082 1.084 2.164 2.29 2.164.724 0 1.689-.36 2.412-1.683 1.568-2.525 2.051-4.689 2.051-6.492 0-2.886-1.206-5.05-1.206-7.094 0-3.486 3.859-4.809 6.392-4.809 7.115 0 9.648 10.46 9.648 13.826 0 9.618-8.803 16.471-18.694 16.471-10.733 0-24.725-13.105-43.78-21.4-18.696-8.175-40.283-12.023-59.461-12.023-25.448 0-46.193 3.367-68.988 13.586-2.774 1.082-5.79 1.923-8.563 1.923-4.342 0-7.96-2.043-8.684-8.295V39.438c0-7.334 0-15.269-.12-20.559 1.326 4.569 4.824 16.11 6.15 20.8 2.05-6.974 3.74-13.947 6.513-20.8v26.33c-.362 4.448-2.291 8.415-3.86 11.06l.242.842c3.86-2.164 8.322-4.088 13.026-5.891l-.242-.721c-.965-.361-1.567-.842-1.567-4.329V5.654c.12-2.645 2.532-3.727 5.789-4.448V.484H57.944v.962c1.69.481 2.292 1.202 2.292 2.044 0 .601-.241 1.443-.603 2.284-1.81 5.05-3.498 10.1-5.307 15.149-1.326-5.05-2.653-9.979-3.98-15.028-.241-.962-.362-1.684-.362-2.285 0-1.082.603-1.563 1.93-2.164V.484H34.426v.962c2.412.601 4.945 1.804 6.271 3.487.242.36.483.841.483 1.322.12 1.323.12 3.006.12 4.93 0 19.476-5.186 68.288-24.363 68.288-5.91 0-11.94-5.17-11.94-12.624 0-7.935 5.91-13.225 10.131-14.066 2.05-.481 3.98 1.082 3.98 3.126 0 3.005-1.809 7.694-3.015 12.864-.12.48-.241 1.082-.241 1.683 0 2.284 1.085 4.448 3.136 4.448 1.326 0 2.291-.6 2.291-2.043 0-1.203-.723-2.645-2.17-3.487-.362-.721-.483-1.443-.483-2.164 0-2.284 1.568-4.689 4.704-7.454 4.462-3.487 6.754-8.055 6.754-11.422 0-2.645-1.447-4.568-4.583-4.568C20.073 43.646.414 51.7.414 67.69c0 10.099 7.84 17.313 17.609 17.313 7.96 0 16.04-4.329 22.192-9.378Z"/></g><defs><clipPath id="a"><path fill="#fff" transform="translate(.414)" d="M0 0h262.083v85H0z"/></clipPath></defs></svg>