<svg width="148" height="48" fill="none" xmlns="http://www.w3.org/2000/svg"><g clip-path="url(#a)" fill="#fff"><path d="M46.45 2.65c-1.294 2.58-4.495 9.98-5.517 19.756-.409 3.327.068 5.296-1.226 6.043l.136.407c2.112-.815 4.223-1.426 6.334-2.037l-.068-.475c-.885-.068-.68-3.53-.68-5.092 0-1.697.203-3.938 2.996-5.16.477-.203 1.022-.407 1.635-.475v7.332c0 1.562-.137 2.173-.954 2.648l.136.543c2.112-.475 4.223-.95 6.403-1.357l-.069-.544c-.885 0-.953-.882-.953-2.172V6.859c.068-3.327-.477-5.431 2.111-6.042V.273H44.951v.544c1.022.067 1.771.814 1.499 1.833Zm3.541 2.444v6.789c-.885.136-2.451.611-3.269 1.086.75-2.647 1.84-5.567 3.27-7.875ZM88.746 3.26v18.06c0 .679-.204 1.969-.953 2.173l-.068.543c4.631.61 8.854 1.358 13.077 2.512l.136-.475c-.069-1.019-.409-2.105-.613-3.191-.409.61-2.044.679-3.27.34-2.928-.816-3.677-1.427-3.95-2.852V8.42c1.158-.678 2.793-.678 5.517.883V5.297h-5.516V3.261c1.566-.611 4.018-.408 6.47.407.34-1.018.885-1.833 1.226-2.851V.273H87.18v.544c1.294.475 1.498 1.086 1.566 2.444ZM74.645 3.26v17.178c0 1.222-.137 1.968-.818 2.24v.543c4.291 0 8.65.204 12.94.68l.07-.544-.955-2.987c-1.498 1.697-6.878.882-6.947-1.698V8.352c1.158-.678 2.793-.678 5.517.883V5.23h-5.448V3.193c2.111-.68 4.29-.204 6.47.407.34-1.018.885-1.833 1.225-2.851V.273H73.08v.544c1.361.475 1.498 1.086 1.566 2.444ZM102.844 3.26v20.775c0 1.019-.136 2.173-1.226 2.173l-.205.475a79.546 79.546 0 0 1 12.941 4.685c1.226.407 1.226-1.901 1.089-2.988-.817-13.782-3.337-15.14-5.925-18.874 4.087-4.141 3.814-7.672 2.588-8.826-.681-.543-1.634-.407-2.656-.407h-8.173v.543c1.498.34 1.567 1.154 1.567 2.444Zm4.358.204c.136-1.154 2.452-1.29 2.861 0 .136 2.376-1.09 4.549-2.861 5.839v-5.84Zm0 8.147c.477-.272.614-.543 1.022-.815 2.861 3.599 3.27 8.283 3.474 12.9.068 1.018.408 2.715-.818 2.987-.953-.068-3.542-.475-3.678-1.426V11.611Z"/><path d="M116.67 3.26v25.596c0 1.697-.272 2.648-1.226 2.444l-.204.476c3.678 1.765 7.697 3.937 10.83 6.653 2.111 1.154 3.541-.95 3.541-4.956 0-6.993-2.179-12.357-6.062-17.992-1.362-1.969-2.451-3.326-2.52-4.073v-8.08c.137-1.493 1.09-2.172 2.52-2.511h.136V.273h-10.556c0 .747-.136.136.749 3.395.477-.611 1.907-.95 2.792-.407Zm4.359 11.542a31.453 31.453 0 0 1 2.52 4.685c2.588 6.178 2.521 12.017 2.521 13.307 0 .747-.205.95-.75 1.018-.817 0-3.201-1.29-4.223-2.715-.068-4.889-.068-12.085-.068-16.295ZM56.258 24.104l.136.543c2.384-.407 4.768-.747 7.288-.95l-.069-.544c-.749-.203-.544-1.425-.544-2.172 0-4.753.408-7.876 1.702-10.999 1.09 3.055 1.567 6.178 1.703 10.727 0 .747.136 1.969-.613 2.308v.544c2.248-.204 4.563-.272 6.88-.34v-.543c-.886-.136-.954-1.222-1.295-2.173-1.635-6.925-1.975-10.32-3.61-13.51 2.929-3.87 1.567-5.703 4.564-6.178V.273h-6.607v.544c.409 0 .681.203.75.882-.069 1.901-.341 2.784-1.772 4.074-1.43-1.29-1.702-2.173-1.77-4.074 0-.679.408-.747.749-.882V.273h-6.675v.544c1.022.203 1.907.746 2.384 2.104.477 1.562 1.294 2.92 2.18 4.074-1.363 2.92-1.84 6.721-3.883 14.665-.34 1.222-.34 1.968-1.498 2.444Z"/><path d="M22.476 42.706a4.25 4.25 0 0 1-.204-1.29c0-2.851 2.928-4.82 5.789-4.82 1.703 0 3.405.475 4.495 1.833 11.17-6.042 22.816-10.116 41.342-10.116 12.6 0 25.2 2.308 35.144 6.925 10.284 5.092 17.436 12.153 26.221 12.153 8.446 0 12.669-6.45 12.669-12.832-.068-7.332-5.721-12.424-11.17-12.424-2.247 0-5.653 1.154-5.653 3.326 0 2.445 3.746 5.704 3.746 7.672a2.692 2.692 0 0 1-.953 2.105c-.614.611-1.498 1.562-1.498 2.376 0 .611.612 1.222 1.293 1.222.409 0 .954-.203 1.362-.95.885-1.426 1.158-2.648 1.158-3.666 0-1.63-.681-2.852-.681-4.006 0-1.969 2.179-2.716 3.61-2.716 4.018 0 5.448 5.907 5.448 7.808 0 5.431-4.971 9.301-10.556 9.301-6.062 0-13.963-7.4-24.723-12.085-10.558-4.616-22.749-6.789-33.578-6.789-14.371 0-26.086 1.901-38.958 7.672-1.567.611-3.27 1.086-4.836 1.086-2.452 0-4.495-1.154-4.904-4.684V22.27c0-4.142 0-8.623-.068-11.61.75 2.58 2.724 9.098 3.474 11.745 1.157-3.937 2.11-7.875 3.677-11.745v14.868c-.204 2.512-1.294 4.753-2.18 6.247l.137.475c2.18-1.222 4.7-2.308 7.356-3.327l-.136-.407c-.545-.204-.886-.476-.886-2.444V3.193c.068-1.494 1.43-2.105 3.27-2.512V.273h-9.195v.544c.953.271 1.294.679 1.294 1.154 0 .34-.136.814-.34 1.29-1.022 2.851-1.976 5.703-2.997 8.554-.75-2.851-1.499-5.635-2.248-8.486-.136-.544-.204-.95-.204-1.29 0-.611.34-.883 1.09-1.222V.273h-9.876v.544c1.362.339 2.792 1.018 3.541 1.968.136.204.273.476.273.747.068.747.068 1.698.068 2.784 0 10.998-2.929 38.563-13.758 38.563-3.337 0-6.743-2.92-6.743-7.129 0-4.48 3.337-7.468 5.721-7.943a1.827 1.827 0 0 1 2.248 1.765c0 1.697-1.022 4.345-1.703 7.264a3.995 3.995 0 0 0-.136.95c0 1.29.613 2.513 1.77 2.513.75 0 1.295-.34 1.295-1.154 0-.68-.409-1.494-1.226-1.97a2.656 2.656 0 0 1-.273-1.221c0-1.29.886-2.648 2.657-4.21 2.52-1.968 3.814-4.548 3.814-6.45 0-1.493-.818-2.58-2.588-2.58C11.102 24.648 0 29.197 0 38.226c0 5.703 4.427 9.777 9.944 9.777 4.495 0 9.058-2.444 12.532-5.296Z"/></g><defs><clipPath id="a"><path fill="#fff" d="M0 0h148v48H0z"/></clipPath></defs></svg>