<svg width="420" height="136" viewBox="210 0 420 136" fill="none" xmlns="http://www.w3.org/2000/svg"><path d="M236.329 111.624V129h-4v-14.08h-10.944c-.256 3.349-.501 5.728-.736 7.136-.235 1.408-.619 2.571-1.152 3.488-.619.939-1.355 1.664-2.208 2.176-.853.512-1.664.864-2.432 1.056-.747.192-1.12.267-1.12.224v-4c1.131 0 1.984-.576 2.56-1.728.448-1.173.757-2.251.928-3.232.192-1.003.309-2.048.352-3.136.043-1.088.064-2.848.064-5.28h18.688Zm24.573 8.896h-18.176a6.865 6.865 0 0 0 .928 3.072c.554.939 1.376 1.707 2.464 2.304 1.088.597 2.41.896 3.968.896 1.344 0 2.528-.235 3.552-.704 1.045-.491 1.845-1.088 2.4-1.792.576-.725.864-1.419.864-2.08h4c0 1.109-.427 2.24-1.28 3.392-.854 1.152-2.102 2.112-3.744 2.88-1.643.768-3.595 1.152-5.856 1.152-2.027 0-3.904-.395-5.632-1.184-1.728-.811-3.104-1.931-4.128-3.36-1.024-1.451-1.536-3.093-1.536-4.928 0-1.877.49-3.531 1.472-4.96 1.002-1.451 2.357-2.56 4.064-3.328 1.728-.789 3.648-1.184 5.76-1.184 2.154 0 4.042.384 5.664 1.152 1.642.768 2.912 1.856 3.808 3.264.917 1.387 1.386 3.019 1.408 4.896v.512Zm-10.816-6.944c-1.835 0-3.318.405-4.448 1.216a6.72 6.72 0 0 0-2.432 3.2h13.44c-.363-1.323-1.078-2.389-2.144-3.2-1.046-.811-2.518-1.216-4.416-1.216Zm33.092-2.016v3.552h-8.672V129h-4v-13.888h-8.8v-3.552h21.472Zm25.003-.736c2.091 0 3.968.405 5.632 1.216 1.685.811 2.997 1.941 3.936 3.392.96 1.429 1.44 3.04 1.44 4.832 0 1.771-.48 3.381-1.44 4.832-.939 1.429-2.251 2.549-3.936 3.36-1.664.811-3.541 1.216-5.632 1.216-2.005 0-3.893-.405-5.664-1.216-1.749-.832-3.147-1.963-4.192-3.392-1.045-1.451-1.568-3.051-1.568-4.8 0-1.771.523-3.371 1.568-4.8 1.045-1.451 2.443-2.581 4.192-3.392 1.749-.832 3.637-1.248 5.664-1.248Zm.032 15.968c1.963 0 3.616-.523 4.96-1.568 1.344-1.067 2.016-2.72 2.016-4.96 0-2.24-.672-3.893-2.016-4.96-1.344-1.067-2.997-1.6-4.96-1.6a9.558 9.558 0 0 0-3.552.672 6.269 6.269 0 0 0-2.784 2.144c-.704.981-1.056 2.229-1.056 3.744 0 1.515.352 2.763 1.056 3.744a6.388 6.388 0 0 0 2.752 2.112 9.64 9.64 0 0 0 3.584.672Zm13.368-15.232h21.76V129h-4v-13.888h-13.76V129h-4v-17.44Zm35.697 4.544c3.157 0 5.472.544 6.944 1.632 1.493 1.088 2.24 2.699 2.24 4.832v.096c0 2.027-.598 3.595-1.792 4.704-1.174 1.088-3.19 1.632-6.048 1.632-.598 0-1.035-.011-1.312-.032V129h-11.008l-.096-17.44h4l.032 4.544h7.04ZM368.382 129v-17.44h4V129h-4Zm-10.464-3.008c.768 0 1.472-.053 2.112-.16.64-.128 1.237-.448 1.792-.96.554-.533.832-1.355.832-2.464s-.278-1.909-.832-2.4c-.555-.512-1.131-.811-1.728-.896-.576-.085-1.302-.128-2.176-.128h-7.68l.032 7.008h7.648Zm38.822-14.432v3.552h-8.672V129h-4v-13.888h-8.8v-3.552h21.472Zm13.752-.768c2.688 0 5.099.512 7.232 1.536s3.2 2.827 3.2 5.408V129h-3.552l-.448-3.36c-.299.619-.928 1.216-1.888 1.792-.939.555-2.08 1.003-3.424 1.344a16.343 16.343 0 0 1-4.096.512c-1.643 0-3.424-.341-5.344-1.024-1.92-.683-2.88-2.176-2.88-4.48 0-1.515.416-2.667 1.248-3.456.832-.811 1.739-1.333 2.72-1.568.981-.256 1.856-.384 2.624-.384 3.691 0 6.24-.021 7.648-.064 1.429-.064 2.357-.181 2.784-.352.427-.192.651-.523.672-.992v-.288c-.021-.533-.341-1.024-.96-1.472-.597-.469-1.397-.843-2.4-1.12a11.97 11.97 0 0 0-3.2-.416c-1.92-.043-3.552.224-4.896.8-1.344.576-2.016 1.504-2.016 2.784h-4.032c0-1.643.587-2.944 1.76-3.904s2.592-1.621 4.256-1.984a22.136 22.136 0 0 1 4.992-.576Zm-1.44 14.976c2.987 0 5.045-.608 6.176-1.824 1.152-1.216 1.728-2.592 1.728-4.128-1.045.789-3.179 1.184-6.4 1.184-1.771 0-3.147.053-4.128.16-.96.107-1.675.32-2.144.64-.469.299-.725.747-.768 1.344.064.811.501 1.451 1.312 1.92.832.469 2.24.704 4.224.704Zm43.471-7.136v-7.072h3.904V129h-3.904v-7.264h-13.632V129h-3.904v-17.44h3.904v7.072h13.632Zm17.656-7.84c2.688 0 5.099.512 7.232 1.536 2.134 1.024 3.2 2.827 3.2 5.408V129h-3.552l-.448-3.36c-.298.619-.928 1.216-1.888 1.792-.938.555-2.08 1.003-3.424 1.344a16.337 16.337 0 0 1-4.096.512c-1.642 0-3.424-.341-5.344-1.024-1.92-.683-2.88-2.176-2.88-4.48 0-1.515.416-2.667 1.248-3.456.832-.811 1.739-1.333 2.72-1.568.982-.256 1.856-.384 2.624-.384 3.691 0 6.24-.021 7.648-.064 1.43-.064 2.358-.181 2.784-.352.427-.192.651-.523.672-.992v-.288c-.021-.533-.341-1.024-.96-1.472-.597-.469-1.397-.843-2.4-1.12a11.964 11.964 0 0 0-3.2-.416c-1.92-.043-3.552.224-4.896.8-1.344.576-2.016 1.504-2.016 2.784h-4.032c0-1.643.587-2.944 1.76-3.904 1.174-.96 2.592-1.621 4.256-1.984a22.136 22.136 0 0 1 4.992-.576Zm-1.44 14.976c2.987 0 5.046-.608 6.176-1.824 1.152-1.216 1.728-2.592 1.728-4.128-1.045.789-3.178 1.184-6.4 1.184-1.77 0-3.146.053-4.128.16-.96.107-1.674.32-2.144.64-.469.299-.725.747-.768 1.344.064.811.502 1.451 1.312 1.92.832.469 2.24.704 4.224.704Zm46.863-5.088a10.237 10.237 0 0 1-1.088 4.352 8.566 8.566 0 0 1-2.944 3.296c-1.258.832-2.741 1.248-4.448 1.248-3.69 0-6.506-.917-8.448-2.752v8.256h-4v-23.52h3.328l.512 2.56c2.006-1.963 4.875-2.944 8.608-2.944 1.643 0 3.094.405 4.352 1.216 1.28.811 2.283 1.92 3.008 3.328.726 1.408 1.099 2.987 1.12 4.736v.224Zm-10.72 6.08c1.387 0 2.56-.32 3.52-.96.982-.661 1.718-1.472 2.208-2.432.512-.981.779-1.931.8-2.848a7.436 7.436 0 0 0-.736-3.104c-.448-1.003-1.162-1.824-2.144-2.464-.96-.661-2.176-.992-3.648-.992-1.216 0-2.293.309-3.232.928a6.374 6.374 0 0 0-2.208 2.368 6.369 6.369 0 0 0-.768 3.04c0 1.173.256 2.251.768 3.232a6.119 6.119 0 0 0 2.176 2.368c.96.576 2.048.864 3.264.864Zm24.364-10.656c3.158 0 5.472.544 6.944 1.632 1.494 1.088 2.24 2.699 2.24 4.832v.096c0 2.027-.597 3.595-1.792 4.704-1.173 1.088-3.189 1.632-6.048 1.632a19.3 19.3 0 0 1-1.312-.032V129H518.27l-.096-17.44h4l.032 4.544h7.04ZM540.35 129v-17.44h4V129h-4Zm-10.464-3.008c.768 0 1.472-.053 2.112-.16.64-.128 1.238-.448 1.792-.96.555-.533.832-1.355.832-2.464s-.277-1.909-.832-2.4c-.554-.512-1.13-.811-1.728-.896-.576-.085-1.301-.128-2.176-.128h-7.68l.032 7.008h7.648Zm34.887-7.36v-7.072h3.904V129h-3.904v-7.264h-13.632V129h-3.904v-17.44h3.904v7.072h13.632Zm15.16.704 13.216 9.632h-6.176l-11.424-8.448V129h-4v-17.44h4v6.688l10.432-6.624h6.272l-12.32 7.712Zm33.812 1.184h-18.176a6.878 6.878 0 0 0 .928 3.072c.555.939 1.376 1.707 2.464 2.304 1.088.597 2.411.896 3.968.896 1.344 0 2.528-.235 3.552-.704 1.046-.491 1.846-1.088 2.4-1.792.576-.725.864-1.419.864-2.08h4c0 1.109-.426 2.24-1.28 3.392-.853 1.152-2.101 2.112-3.744 2.88-1.642.768-3.594 1.152-5.856 1.152-2.026 0-3.904-.395-5.632-1.184-1.728-.811-3.104-1.931-4.128-3.36-1.024-1.451-1.536-3.093-1.536-4.928 0-1.877.491-3.531 1.472-4.96 1.003-1.451 2.358-2.56 4.064-3.328 1.728-.789 3.648-1.184 5.76-1.184 2.155 0 4.043.384 5.664 1.152 1.643.768 2.912 1.856 3.808 3.264.918 1.387 1.387 3.019 1.408 4.896v.512Zm-10.816-6.944c-1.834 0-3.317.405-4.448 1.216a6.732 6.732 0 0 0-2.432 3.2h13.44c-.362-1.323-1.077-2.389-2.144-3.2-1.045-.811-2.517-1.216-4.416-1.216Z" fill="#fff"/><path d="M361.8 20.96V92h-22.272V45.92h-16.032V33.056c6.336 0 11.04-.736 14.112-2.208 3.136-1.472 5.056-3.04 5.76-4.704.704-1.728 1.056-3.456 1.056-5.184H361.8Zm51.535-.96c29.696-.128 44.544 11.936 44.544 36.192 0 9.472-3.008 18.048-9.024 25.728-5.952 7.616-17.792 11.424-35.52 11.424-12.48 0-22.144-2.08-28.992-6.24-6.848-4.16-11.424-9.024-13.728-14.592-2.24-5.568-3.264-11.008-3.072-16.32 0-9.216 3.168-17.536 9.504-24.96C383.383 23.744 395.479 20 413.335 20Zm.096 55.968c5.568 0 10.08-.928 13.536-2.784 3.52-1.92 6.016-4.352 7.488-7.296 1.472-3.008 2.144-6.272 2.016-9.792.128-3.328-.544-6.4-2.016-9.216-1.472-2.816-3.968-5.12-7.488-6.912-3.456-1.792-7.968-2.688-13.536-2.688-5.504 0-9.984.896-13.44 2.688-3.456 1.792-5.92 4.096-7.392 6.912-1.472 2.816-2.144 5.888-2.016 9.216-.128 3.52.544 6.784 2.016 9.792 1.472 2.944 3.936 5.376 7.392 7.296 3.456 1.856 7.936 2.784 13.44 2.784Zm74.641-20.544h15.936v11.04h-15.936V82.4h-11.04V66.464h-15.936v-11.04h15.936V39.488h11.04v15.936Z" fill="#E86C00"/></svg>