<svg width="487" height="114" fill="none" xmlns="http://www.w3.org/2000/svg"><path d="M14.706 104.088a7.671 7.671 0 0 0-.032.8l.032-.8Zm14.304-3.168c1.387.277 2.422.747 3.104 1.408.704.64 1.056 1.568 1.056 2.784v.064c0 1.173-.309 2.123-.928 2.848-.618.704-1.6 1.227-2.944 1.568-1.322.32-3.093.48-5.312.48H10.674V92.6h14.304c2.155 0 3.808.363 4.96 1.088 1.174.725 1.76 1.781 1.76 3.168v.128c0 1.024-.224 1.856-.672 2.496-.426.64-1.098 1.12-2.016 1.44Zm-1.216-3.36c0-.683-.181-1.173-.544-1.472-.362-.299-.832-.48-1.408-.544-.554-.085-1.376-.128-2.464-.128h-8.672v4.416l8.192.064h.48c1.088 0 1.899-.032 2.432-.096.555-.064 1.024-.256 1.408-.576.384-.341.576-.896.576-1.664Zm-3.872 9.536c1.216 0 2.144-.032 2.784-.096.662-.085 1.195-.288 1.6-.608.406-.341.608-.875.608-1.6 0-.725-.202-1.248-.608-1.568-.405-.32-.938-.512-1.6-.576-.64-.085-1.568-.128-2.784-.128h-9.216v4.576h9.216Zm22.73-9.952c3.158 0 5.473.544 6.945 1.632 1.493 1.088 2.24 2.699 2.24 4.832v.096c0 2.027-.598 3.595-1.792 4.704-1.174 1.088-3.19 1.632-6.048 1.632-.598 0-1.035-.011-1.312-.032v.032H35.677L35.58 92.6h4l.032 4.544h7.04Zm11.105 12.896V92.6h4v17.44h-4Zm-10.464-3.008c.768 0 1.472-.053 2.112-.16.64-.128 1.237-.448 1.792-.96.554-.533.832-1.355.832-2.464s-.278-1.909-.832-2.4c-.555-.512-1.131-.811-1.728-.896-.576-.085-1.302-.128-2.176-.128h-7.68l.032 7.008h7.648ZM64.643 92.6h21.76v17.44h-4V96.152h-13.76v13.888h-4V92.6Zm35.569-.736c2.091 0 3.968.405 5.632 1.216 1.685.81 2.997 1.941 3.936 3.392.96 1.43 1.44 3.04 1.44 4.832 0 1.771-.48 3.381-1.44 4.832-.939 1.429-2.251 2.549-3.936 3.36-1.664.811-3.541 1.216-5.632 1.216-2.005 0-3.893-.405-5.664-1.216-1.75-.832-3.147-1.963-4.192-3.392-1.045-1.451-1.568-3.051-1.568-4.8 0-1.77.523-3.37 1.568-4.8 1.046-1.45 2.443-2.581 4.192-3.392 1.75-.832 3.638-1.248 5.664-1.248Zm.032 15.968c1.963 0 3.616-.523 4.96-1.568 1.344-1.067 2.016-2.72 2.016-4.96 0-2.24-.672-3.893-2.016-4.96-1.344-1.067-2.997-1.6-4.96-1.6a9.556 9.556 0 0 0-3.552.672 6.27 6.27 0 0 0-2.784 2.144c-.704.981-1.056 2.23-1.056 3.744 0 1.515.352 2.763 1.056 3.744a6.389 6.389 0 0 0 2.752 2.112 9.64 9.64 0 0 0 3.584.672Zm35.96-15.168v17.376h-4V95.96H121.26c-.256 3.35-.501 5.728-.736 7.136-.235 1.408-.619 2.571-1.152 3.488-.619.939-1.355 1.664-2.208 2.176-.853.512-1.664.864-2.432 1.056-.747.192-1.12.267-1.12.224v-4c1.131 0 1.984-.576 2.56-1.728.448-1.173.757-2.251.928-3.232.192-1.003.309-2.048.352-3.136.043-1.088.064-2.848.064-5.28h18.688Zm20.413 7.008V92.6h3.904v17.44h-3.904v-7.264h-13.632v7.264h-3.904V92.6h3.904v7.072h13.632Zm28.472 1.888h-18.176a6.865 6.865 0 0 0 .928 3.072c.555.939 1.376 1.707 2.464 2.304 1.088.597 2.411.896 3.968.896 1.344 0 2.528-.235 3.552-.704 1.045-.491 1.845-1.088 2.4-1.792.576-.725.864-1.419.864-2.08h4c0 1.109-.427 2.24-1.28 3.392-.853 1.152-2.101 2.112-3.744 2.88-1.643.768-3.595 1.152-5.856 1.152-2.027 0-3.904-.395-5.632-1.184-1.728-.811-3.104-1.931-4.128-3.36-1.024-1.451-1.536-3.093-1.536-4.928 0-1.877.491-3.53 1.472-4.96 1.003-1.45 2.357-2.56 4.064-3.328 1.728-.79 3.648-1.184 5.76-1.184 2.155 0 4.043.384 5.664 1.152 1.643.768 2.912 1.856 3.808 3.264.917 1.387 1.387 3.019 1.408 4.896v.512Zm-10.816-6.944c-1.835 0-3.317.405-4.448 1.216a6.726 6.726 0 0 0-2.432 3.2h13.44c-.363-1.323-1.077-2.39-2.144-3.2-1.045-.81-2.517-1.216-4.416-1.216Zm30.75 5.056V92.6h3.904v17.44h-3.904v-7.264h-13.632v7.264h-3.904V92.6h3.904v7.072h13.632Zm24.312 0V92.6h3.904v17.44h-3.904v-7.264h-13.632v7.264h-3.904V92.6h3.904v7.072h13.632Zm17.849-2.528c3.157 0 5.472.544 6.944 1.632 1.493 1.088 2.24 2.699 2.24 4.832v.096c0 2.027-.597 3.595-1.792 4.704-1.173 1.088-3.189 1.632-6.048 1.632-.597 0-1.035-.011-1.312-.032v.032h-11.008l-.096-17.44h4l.032 4.544h7.04Zm11.104 12.896V92.6h4v17.44h-4Zm-10.464-3.008c.768 0 1.472-.053 2.112-.16.64-.128 1.237-.448 1.792-.96.555-.533.832-1.355.832-2.464s-.277-1.909-.832-2.4c-.555-.512-1.131-.811-1.728-.896-.576-.085-1.301-.128-2.176-.128h-7.68l.032 7.008h7.648ZM282.358 92.6h4.992l-7.872 8.8 7.872 8.64h-4.992l-6.656-7.2-6.656 7.2h-4.992l7.904-8.64-7.904-8.8h4.992l6.656 7.296 6.656-7.296Zm39.125 11.84c-.021 2.176-1.013 3.776-2.976 4.8-1.962 1.003-4.522 1.504-7.68 1.504-2.304 0-4.288-.299-5.952-.896-1.642-.619-2.901-1.483-3.776-2.592-.853-1.109-1.28-2.389-1.28-3.84h4c0 1.365.672 2.379 2.016 3.04 1.366.661 3.03 1.003 4.992 1.024 1.814.021 3.36-.213 4.64-.704 1.28-.491 1.92-1.28 1.92-2.368 0-.512-.096-.875-.288-1.088-.17-.235-.629-.405-1.376-.512-.725-.128-1.93-.192-3.616-.192h-4.352v-2.944h4.352c1.6 0 2.816-.139 3.648-.416.854-.277 1.28-.81 1.28-1.6 0-.725-.608-1.259-1.824-1.6-1.194-.363-2.656-.544-4.384-.544-1.962-.043-3.626.139-4.992.544-1.344.405-2.016 1.077-2.016 2.016h-4c0-2.261 1.142-3.797 3.424-4.608 2.283-.81 4.811-1.216 7.584-1.216 2.774 0 5.163.33 7.168.992 2.027.661 3.04 2.07 3.04 4.224 0 1.685-.608 2.859-1.824 3.52 1.515.661 2.272 1.803 2.272 3.424v.032Zm13.29-12.608c2.688 0 5.099.512 7.232 1.536s3.2 2.827 3.2 5.408v11.264h-3.552l-.448-3.36c-.299.619-.928 1.216-1.888 1.792-.939.555-2.08 1.003-3.424 1.344a16.343 16.343 0 0 1-4.096.512c-1.643 0-3.424-.341-5.344-1.024-1.92-.683-2.88-2.176-2.88-4.48 0-1.515.416-2.667 1.248-3.456.832-.811 1.739-1.333 2.72-1.568.981-.256 1.856-.384 2.624-.384 3.691 0 6.24-.021 7.648-.064 1.429-.064 2.357-.181 2.784-.352.427-.192.651-.523.672-.992v-.288c-.021-.533-.341-1.024-.96-1.472-.597-.47-1.397-.843-2.4-1.12a11.957 11.957 0 0 0-3.2-.416c-1.92-.043-3.552.224-4.896.8-1.344.576-2.016 1.504-2.016 2.784h-4.032c0-1.643.587-2.944 1.76-3.904s2.592-1.621 4.256-1.984a22.136 22.136 0 0 1 4.992-.576Zm-1.44 14.976c2.987 0 5.045-.608 6.176-1.824 1.152-1.216 1.728-2.592 1.728-4.128-1.045.789-3.179 1.184-6.4 1.184-1.771 0-3.147.053-4.128.16-.96.107-1.675.32-2.144.64-.469.299-.725.747-.768 1.344.064.811.501 1.451 1.312 1.92.832.469 2.24.704 4.224.704Zm23.132-6.432 13.216 9.632h-6.176l-11.424-8.448v8.48h-4V92.6h4v6.688l10.432-6.624h6.272l-12.32 7.712Zm24.589-8.544c2.688 0 5.099.512 7.232 1.536 2.134 1.024 3.2 2.827 3.2 5.408v11.264h-3.552l-.448-3.36c-.298.619-.928 1.216-1.888 1.792-.938.555-2.08 1.003-3.424 1.344a16.337 16.337 0 0 1-4.096.512c-1.642 0-3.424-.341-5.344-1.024-1.92-.683-2.88-2.176-2.88-4.48 0-1.515.416-2.667 1.248-3.456.832-.811 1.739-1.333 2.72-1.568.982-.256 1.856-.384 2.624-.384 3.691 0 6.24-.021 7.648-.064 1.43-.064 2.358-.181 2.784-.352.427-.192.651-.523.672-.992v-.288c-.021-.533-.341-1.024-.96-1.472-.597-.47-1.397-.843-2.4-1.12a11.952 11.952 0 0 0-3.2-.416c-1.92-.043-3.552.224-4.896.8-1.344.576-2.016 1.504-2.016 2.784h-4.032c0-1.643.587-2.944 1.76-3.904 1.174-.96 2.592-1.621 4.256-1.984a22.136 22.136 0 0 1 4.992-.576Zm-1.44 14.976c2.987 0 5.046-.608 6.176-1.824 1.152-1.216 1.728-2.592 1.728-4.128-1.045.789-3.178 1.184-6.4 1.184-1.77 0-3.146.053-4.128.16-.96.107-1.674.32-2.144.64-.469.299-.725.747-.768 1.344.064.811.502 1.451 1.312 1.92.832.469 2.24.704 4.224.704Zm35.932-2.368c-.021 2.176-1.013 3.776-2.976 4.8-1.963 1.003-4.523 1.504-7.68 1.504-2.304 0-4.288-.299-5.952-.896-1.643-.619-2.901-1.483-3.776-2.592-.853-1.109-1.28-2.389-1.28-3.84h4c0 1.365.672 2.379 2.016 3.04 1.365.661 3.029 1.003 4.992 1.024 1.813.021 3.36-.213 4.64-.704 1.28-.491 1.92-1.28 1.92-2.368 0-.512-.096-.875-.288-1.088-.171-.235-.629-.405-1.376-.512-.725-.128-1.931-.192-3.616-.192h-4.352v-2.944h4.352c1.6 0 2.816-.139 3.648-.416.853-.277 1.28-.81 1.28-1.6 0-.725-.608-1.259-1.824-1.6-1.195-.363-2.656-.544-4.384-.544-1.963-.043-3.627.139-4.992.544-1.344.405-2.016 1.077-2.016 2.016h-4c0-2.261 1.141-3.797 3.424-4.608 2.283-.81 4.811-1.216 7.584-1.216 2.773 0 5.163.33 7.168.992 2.027.661 3.04 2.07 3.04 4.224 0 1.685-.608 2.859-1.824 3.52 1.515.661 2.272 1.803 2.272 3.424v.032ZM428.9 91.864c2.09 0 3.968.405 5.632 1.216 1.685.81 2.997 1.941 3.936 3.392.96 1.43 1.44 3.04 1.44 4.832 0 1.771-.48 3.381-1.44 4.832-.939 1.429-2.251 2.549-3.936 3.36-1.664.811-3.542 1.216-5.632 1.216-2.006 0-3.894-.405-5.664-1.216-1.75-.832-3.147-1.963-4.192-3.392-1.046-1.451-1.568-3.051-1.568-4.8 0-1.77.522-3.37 1.568-4.8 1.045-1.45 2.442-2.581 4.192-3.392 1.749-.832 3.637-1.248 5.664-1.248Zm.032 15.968c1.962 0 3.616-.523 4.96-1.568 1.344-1.067 2.016-2.72 2.016-4.96 0-2.24-.672-3.893-2.016-4.96-1.344-1.067-2.998-1.6-4.96-1.6a9.55 9.55 0 0 0-3.552.672 6.266 6.266 0 0 0-2.784 2.144c-.704.981-1.056 2.23-1.056 3.744 0 1.515.352 2.763 1.056 3.744a6.382 6.382 0 0 0 2.752 2.112 9.636 9.636 0 0 0 3.584.672Zm17.399-3.744a7.785 7.785 0 0 0-.032.8l.032-.8Zm14.304-3.168c1.387.277 2.422.747 3.104 1.408.704.64 1.056 1.568 1.056 2.784v.064c0 1.173-.309 2.123-.928 2.848-.618.704-1.6 1.227-2.944 1.568-1.322.32-3.093.48-5.312.48h-13.312V92.6h14.304c2.155 0 3.808.363 4.96 1.088 1.174.725 1.76 1.781 1.76 3.168v.128c0 1.024-.224 1.856-.672 2.496-.426.64-1.098 1.12-2.016 1.44Zm-1.216-3.36c0-.683-.181-1.173-.544-1.472-.362-.299-.832-.48-1.408-.544-.554-.085-1.376-.128-2.464-.128h-8.672v4.416l8.192.064h.48c1.088 0 1.899-.032 2.432-.096.555-.064 1.024-.256 1.408-.576.384-.341.576-.896.576-1.664Zm-3.872 9.536c1.216 0 2.144-.032 2.784-.096.662-.085 1.195-.288 1.6-.608.406-.341.608-.875.608-1.6 0-.725-.202-1.248-.608-1.568-.405-.32-.938-.512-1.6-.576-.64-.085-1.568-.128-2.784-.128h-9.216v4.576h9.216Z" fill="#fff"/><path d="M22.337 51.76c3.92 0 7.053.36 9.4 1.08 2.373.693 4.067 1.733 5.08 3.12 1.04 1.387 1.56 3.147 1.56 5.28v.12c0 2.88-1.173 5.213-3.52 7-2.32 1.787-6.08 2.693-11.28 2.72H2.097v-29.6h34.04V48h-24.76v3.76h10.96Zm-.36 12.36c2.267 0 3.893-.213 4.88-.64.987-.453 1.48-1.347 1.48-2.68 0-.88-.24-1.533-.72-1.96-.453-.453-1.12-.733-2-.84-.853-.133-2.067-.2-3.64-.2h-10.6v6.24c5.013 0 8.213.027 9.6.08h1Zm37.08-23.32c3.653 0 6.946.68 9.88 2.04 2.96 1.333 5.266 3.187 6.92 5.56 1.68 2.347 2.52 5 2.52 7.96 0 2.933-.84 5.573-2.52 7.92-1.654 2.347-3.947 4.2-6.88 5.56-2.934 1.333-6.227 2-9.88 2-3.52 0-6.774-.667-9.76-2-2.987-1.36-5.36-3.213-7.12-5.56-1.734-2.373-2.6-5.013-2.6-7.92 0-2.933.866-5.587 2.6-7.96 1.76-2.373 4.12-4.227 7.08-5.56 2.986-1.36 6.24-2.04 9.76-2.04Zm.04 23.56c1.493 0 2.92-.32 4.28-.96 1.386-.64 2.506-1.56 3.36-2.76.853-1.2 1.28-2.627 1.28-4.28 0-1.653-.44-3.08-1.32-4.28a7.91 7.91 0 0 0-3.36-2.76 10.197 10.197 0 0 0-4.32-.96c-1.52 0-2.96.32-4.32.96a8.257 8.257 0 0 0-3.32 2.8c-.827 1.2-1.24 2.613-1.24 4.24 0 1.653.426 3.08 1.28 4.28a8.376 8.376 0 0 0 3.32 2.76c1.386.64 2.84.96 4.36.96Zm55.434-22.92v29.6h-9.88v-22.6h-9.76c-.587 3.493-1.2 6.493-1.84 9-.64 2.48-1.547 5.08-2.72 7.8-1.2 2.533-2.88 4.147-5.04 4.84-2.133.667-3.813.987-5.04.96h-2.04v-7.96c1.28 0 2.253-.24 2.92-.72.667-.507 1.147-1.2 1.44-2.08 1.733-5.653 2.84-11.933 3.32-18.84h28.64Zm31.629 18.08h-18.48v4.52l21.84-.16v7.16H117.8v-29.6h31.72l.04 7.16h-21.88v3.92h18.48v7Zm34.453 0h-18.48v4.52l21.84-.16v7.16h-31.72v-29.6h31.72l.04 7.16h-21.88v3.92h18.48v7ZM225.866 0v71.04h-22.272V24.96h-16.032V12.096c6.336 0 11.04-.736 14.112-2.208 3.136-1.472 5.056-3.04 5.76-4.704.704-1.728 1.056-3.456 1.056-5.184h17.376Zm91.855 46.176-24.576-.48 24.576.48Zm0 .096c-.192 6.976-2.72 12.48-7.584 16.512-4.864 3.968-10.56 6.688-17.088 8.16-6.464 1.408-12.832 2.112-19.104 2.112-5.76 0-11.712-.8-17.856-2.4-6.144-1.6-11.424-4.32-15.84-8.16-4.352-3.84-6.528-8.864-6.528-15.072h22.272c0 3.264 1.728 5.728 5.184 7.392 3.456 1.6 7.648 2.496 12.576 2.688 5.376.256 9.952-.544 13.728-2.4 3.776-1.856 5.664-4.96 5.664-9.312 0-4.352-1.536-7.648-4.608-9.888-3.072-2.24-8-3.36-14.784-3.36-5.12 0-9.408.896-12.864 2.688-3.392 1.728-5.088 4.192-5.088 7.392v.192l-21.792.096V0h80.352v14.4h-58.56v12.672c3.52-2.304 7.744-3.936 12.672-4.896 4.992-.96 10.24-1.44 15.744-1.44 6.528 0 12.32 1.024 17.376 3.072 5.056 1.984 8.992 4.896 11.808 8.736 2.88 3.84 4.32 8.384 4.32 13.632v.096Zm33.104 3.168v-8h34.96l-34.96 8Zm34.96-8v8.04h-12.48v21.56h-9.84V49.48h-12.64v-8.04h34.96Zm24.151 9.12c2.534 0 4.747.4 6.64 1.2 1.894.8 3.36 1.973 4.4 3.52 1.067 1.547 1.6 3.4 1.6 5.56V61c0 1.973-.533 3.72-1.6 5.24-1.04 1.52-2.52 2.707-4.44 3.56-1.893.827-4.08 1.24-6.56 1.24h-21.52v-29.6h9.88v9.12h11.6Zm14.04 20.48v-29.6h9.84v29.6h-9.84Zm-15.24-6.4c1.654 0 2.88-.253 3.68-.76.827-.507 1.24-1.533 1.24-3.08 0-1.093-.2-1.907-.6-2.44-.4-.533-.933-.88-1.6-1.04-.666-.16-1.573-.24-2.72-.24h-10.4v7.52c3.147 0 5.347.013 6.6.04h3.8Zm27.553-8.36c0-2.96.867-5.627 2.6-8 1.76-2.373 4.147-4.227 7.16-5.56 3.04-1.36 6.4-2.04 10.08-2.04 3.307 0 6.294.533 8.96 1.6 2.667 1.04 4.854 2.52 6.56 4.44 1.707 1.893 2.84 4.12 3.4 6.68h-10.24c-.4-1.067-1.08-1.987-2.04-2.76a9.53 9.53 0 0 0-3.16-1.8c-1.173-.4-2.32-.6-3.44-.6-1.573 0-3.106.32-4.6.96-1.466.64-2.666 1.573-3.6 2.8-.906 1.2-1.36 2.627-1.36 4.28 0 1.653.454 3.093 1.36 4.32.907 1.2 2.08 2.12 3.52 2.76 1.467.613 3.027.92 4.68.92 1.84 0 3.534-.44 5.08-1.32 1.574-.88 2.734-2.133 3.48-3.76h10.28c-.586 2.533-1.733 4.76-3.44 6.68-1.706 1.893-3.88 3.36-6.52 4.4-2.64 1.04-5.613 1.56-8.92 1.56-3.653 0-7-.68-10.04-2.04-3.013-1.36-5.4-3.227-7.16-5.6-1.76-2.373-2.64-5.013-2.64-7.92Zm40.59 7.36h8.68v7.4h-8.68v-7.4Z" fill="#E86C00"/></svg>