<svg width="24" height="24" viewBox="0 0 24 24" fill="none" xmlns="http://www.w3.org/2000/svg">
<path fill-rule="evenodd" clip-rule="evenodd" d="M0 12.0002C0 5.37279 5.37254 0.000244141 11.9999 0.000244141C18.6273 0.000244141 23.9998 5.37279 23.9998 12.0002C23.9998 18.6275 18.6273 24.0001 11.9999 24.0001C5.37254 24.0001 0 18.6275 0 12.0002Z" fill="white"/>
<path fill-rule="evenodd" clip-rule="evenodd" d="M11.9999 0.000244141C5.37254 0.000244141 0 5.37279 0 12.0002C0 18.6275 5.37254 24.0001 11.9999 24.0001C18.6273 24.0001 23.9998 18.6275 23.9998 12.0002C23.9998 5.37279 18.6273 0.000244141 11.9999 0.000244141ZM13.2506 12.5271V19.0557H10.5494V12.5273H9.19983V10.2775H10.5494V8.92679C10.5494 7.09141 11.3114 6.00003 13.4764 6.00003H15.2788V8.25007H14.1522C13.3094 8.25007 13.2536 8.56448 13.2536 9.15125L13.2506 10.2773H15.2916L15.0528 12.5271H13.2506Z" fill="#DEE2E8"/>
</svg>
