<svg width="32" height="28" viewBox="0 0 32 28" fill="none" xmlns="http://www.w3.org/2000/svg">
<path d="M23.1207 20.6925C23.1457 20.7175 23.1695 20.7435 23.1937 20.7691C23.2064 20.7806 23.2195 20.7912 23.2317 20.8034C24.2589 21.7345 25.6207 20.3449 24.6704 19.3224L24.4577 19.1097C24.4555 19.1075 24.4533 19.1054 24.4512 19.1032L17.836 12.4881L17.0176 13.3065C15.6935 14.689 13.315 14.7414 11.9259 13.4177C10.3723 12.0522 10.3398 9.45949 11.8531 8.0562L14.4892 5.49864L6.83632 0.832166C6.46423 0.605275 5.98526 0.662529 5.67711 0.970677L0.27621 6.37158C-0.0168115 6.6646 -0.084504 7.11451 0.109323 7.48085L3.35456 13.6137L4.24626 12.722C5.72124 11.2513 8.05879 11.4342 9.39014 13.0002C9.95637 13.5665 10.2521 14.302 10.2785 15.0454C11.0632 15.1094 11.8301 15.4401 12.4291 16.0391L12.7076 16.3176C13.2571 16.8671 13.5702 17.5899 13.5972 18.3628C16.4792 18.5765 17.8168 22.1686 15.7464 24.2219L14.7378 25.2305L16.6603 27.1529C16.9558 27.4484 17.3794 27.5692 17.8059 27.4636C18.7028 27.2336 18.9747 26.0732 18.3421 25.4711C17.9146 25.0436 17.9146 24.3505 18.3421 23.9229L18.3422 23.9229C18.7491 23.4383 19.4329 23.4368 19.8675 23.8987C20.3893 24.4498 21.3086 24.3878 21.7409 23.7126C22.0376 23.2553 21.9558 22.6102 21.5725 22.2407C21.145 21.8132 21.1449 21.12 21.5725 20.6925C22 20.265 22.6932 20.265 23.1207 20.6925V20.6925Z" fill="#FE9168"/>
<path d="M3.709 19.3756C4.04321 19.3756 4.35736 19.2454 4.59362 19.0092L7.56372 16.0391C7.5639 16.0389 7.56415 16.0386 7.5644 16.0384L7.84217 15.7607C8.17639 15.4264 8.17639 14.8826 7.84217 14.5483L7.56378 14.27C7.09806 13.7847 6.26025 13.7847 5.79459 14.2699L2.82449 17.24C2.33671 17.7278 2.33677 18.5214 2.82449 19.0092C3.0607 19.2454 3.37485 19.3756 3.709 19.3756V19.3756Z" fill="#FE9168"/>
<path d="M27.4083 14.7636C28.9461 13.3263 30.6307 9.4305 31.8751 7.24703C32.0866 6.876 32.0243 6.40947 31.7204 6.10938L26.3153 0.771299C26.0081 0.467964 25.5343 0.411584 25.1646 0.634351L20.5597 3.40881C19.6527 3.82027 18.8095 4.34556 18.0978 5.04805L13.3765 9.62858C12.8432 10.1237 12.7656 11.0172 13.2174 11.597C13.7438 12.3216 14.852 12.3973 15.4694 11.7584L17.0618 10.1659C17.4893 9.7384 18.1825 9.7384 18.61 10.1659L25.2494 16.8052L27.4083 14.7636Z" fill="#FE9168"/>
<path d="M14.1983 22.6737C14.686 22.1859 14.686 21.3923 14.1983 20.9045C13.7327 20.4192 12.8948 20.4192 12.4292 20.9045L9.45909 23.8746C8.97136 24.3624 8.97136 25.156 9.45909 25.6438C9.94681 26.1314 10.7404 26.1315 11.2282 25.6438L14.1983 22.6737Z" fill="#FE9168"/>
<path d="M7.02643 22.6928C7.36064 22.6928 7.67479 22.5628 7.91106 22.3265L11.1596 19.078C11.4921 18.7589 11.4921 18.1848 11.1596 17.8657L10.8811 17.5873C10.3936 17.0998 9.60012 17.0996 9.11228 17.587L6.1418 20.5574C5.65408 21.0452 5.65408 21.8388 6.1418 22.3266C6.37807 22.5628 6.69222 22.6928 7.02643 22.6928V22.6928Z" fill="#FE9168"/>
</svg>
