<svg width="109" height="31" viewBox="0 0 109 31" fill="none" xmlns="http://www.w3.org/2000/svg">
<path d="M33.584 25H39.416C41.352 25 43.032 24.616 44.456 23.848C45.88 23.08 46.984 22.024 47.768 20.68C48.552 19.32 48.944 17.776 48.944 16.048C48.944 14.32 48.552 12.784 47.768 11.44C46.984 10.096 45.88 9.04 44.456 8.272C43.032 7.504 41.352 7.12 39.416 7.12H33.584V25ZM37.304 21.76V10.36H39.512C40.68 10.36 41.688 10.592 42.536 11.056C43.384 11.52 44.04 12.176 44.504 13.024C44.984 13.872 45.224 14.88 45.224 16.048C45.224 17.2 44.984 18.208 44.504 19.072C44.04 19.92 43.384 20.584 42.536 21.064C41.688 21.528 40.68 21.76 39.512 21.76H37.304ZM51.0622 10.72H54.6622V7.12H51.0622V10.72ZM51.0622 25H54.6622V11.896H51.0622V25ZM57.2966 25H60.8966V17.344C60.8966 16.592 61.1206 15.992 61.5686 15.544C62.0166 15.08 62.5926 14.848 63.2966 14.848C64.0006 14.848 64.5766 15.08 65.0246 15.544C65.4726 15.992 65.6966 16.592 65.6966 17.344V25H69.2966V16.576C69.2966 15.584 69.0886 14.72 68.6726 13.984C68.2566 13.232 67.6726 12.648 66.9206 12.232C66.1846 11.816 65.3206 11.608 64.3286 11.608C63.4966 11.608 62.7606 11.768 62.1206 12.088C61.4806 12.392 60.9926 12.864 60.6566 13.504V11.896H57.2966V25ZM77.9758 25.288C79.3198 25.288 80.4958 25 81.5038 24.424C82.5118 23.832 83.2158 23.056 83.6158 22.096L80.7358 20.728C80.4798 21.176 80.1198 21.528 79.6558 21.784C79.2078 22.04 78.6638 22.168 78.0238 22.168C77.1438 22.168 76.4238 21.92 75.8638 21.424C75.3038 20.928 74.9758 20.272 74.8798 19.456H84.0478C84.1118 19.28 84.1518 19.072 84.1678 18.832C84.1998 18.576 84.2158 18.32 84.2158 18.064C84.2158 16.848 83.9598 15.76 83.4478 14.8C82.9518 13.824 82.2238 13.048 81.2638 12.472C80.3038 11.896 79.1278 11.608 77.7358 11.608C76.4878 11.608 75.3678 11.904 74.3758 12.496C73.3838 13.088 72.5918 13.896 71.9998 14.92C71.4238 15.944 71.1357 17.112 71.1357 18.424C71.1357 19.688 71.4158 20.84 71.9758 21.88C72.5358 22.92 73.3278 23.752 74.3518 24.376C75.3758 24.984 76.5838 25.288 77.9758 25.288ZM77.7358 14.488C78.4718 14.488 79.0798 14.704 79.5598 15.136C80.0398 15.568 80.3198 16.128 80.3998 16.816H74.9518C75.1278 16.064 75.4558 15.488 75.9358 15.088C76.4318 14.688 77.0318 14.488 77.7358 14.488ZM86.3356 25H89.9356V17.944C89.9356 16.968 90.2076 16.216 90.7516 15.688C91.2956 15.144 92.0076 14.872 92.8876 14.872H94.0156V11.752H93.2476C92.4476 11.752 91.7356 11.904 91.1116 12.208C90.5036 12.496 90.0316 13.048 89.6956 13.864V11.896H86.3356V25ZM97.6334 30.328C100.033 30.328 101.769 28.96 102.841 26.224L108.457 11.896H104.593L101.497 20.32L98.4014 11.896H94.5374L99.6974 25L99.4574 25.552C99.2654 25.984 99.0174 26.368 98.7134 26.704C98.4094 27.04 97.9054 27.208 97.2014 27.208C96.6254 27.208 96.0814 27.128 95.5694 26.968V29.92C95.8414 30.064 96.1534 30.168 96.5054 30.232C96.8734 30.296 97.2494 30.328 97.6334 30.328Z" fill="#282B6D"/>
<rect y="4" width="24" height="24" rx="12" fill="#5735D2"/>
<path d="M16 18C16 18.5253 15.8965 19.0454 15.6955 19.5307C15.4945 20.016 15.1999 20.457 14.8284 20.8284C14.457 21.1999 14.016 21.4945 13.5307 21.6955C13.0454 21.8965 12.5253 22 12 22C11.4747 22 10.9546 21.8965 10.4693 21.6955C9.98396 21.4945 9.54301 21.1999 9.17157 20.8284C8.80014 20.457 8.5055 20.016 8.30448 19.5307C8.10346 19.0454 8 18.5253 8 18L16 18Z" fill="#FEFFFF"/>
<circle cx="12" cy="14" r="4" fill="#FEFFFF"/>
</svg>
