<svg width="40" height="24" viewBox="0 0 40 24" fill="none" xmlns="http://www.w3.org/2000/svg">
<g clip-path="url(#clip0_1_1006)">
<path d="M18.4909 16.7201H16.5163L17.7504 9.13553H19.7253L18.4909 16.7201ZM14.855 9.13553L12.9725 14.3523L12.7497 13.2289L12.7499 13.2293L12.0855 9.81843C12.0855 9.81843 12.0051 9.13553 11.1488 9.13553H8.03652L8 9.26395C8 9.26395 8.95173 9.46197 10.0656 10.1309L11.7811 16.7203H13.8386L16.9803 9.13553H14.855ZM30.3868 16.7201H32.2L30.6191 9.13532H29.0318C28.2987 9.13532 28.1202 9.70056 28.1202 9.70056L25.1751 16.7201H27.2336L27.6453 15.5935H30.1555L30.3868 16.7201ZM28.2139 14.0372L29.2515 11.1989L29.8352 14.0372H28.2139ZM25.3295 10.9595L25.6113 9.3307C25.6113 9.3307 24.7418 9 23.8353 9C22.8554 9 20.5283 9.42829 20.5283 11.5109C20.5283 13.4703 23.2595 13.4947 23.2595 14.5239C23.2595 15.5532 20.8097 15.3687 20.0012 14.7197L19.7076 16.4227C19.7076 16.4227 20.5894 16.851 21.9365 16.851C23.2841 16.851 25.317 16.1533 25.317 14.2543C25.317 12.2823 22.5612 12.0986 22.5612 11.2413C22.5614 10.3837 24.4845 10.4938 25.3295 10.9595Z" fill="#2566AF"/>
<path d="M13.9644 12.5296L13.4099 9.68277C13.4099 9.68277 13.3428 9.11279 12.6281 9.11279H10.0305L10 9.21998C10 9.21998 11.2485 9.47872 12.446 10.4482C13.591 11.3747 13.9644 12.5296 13.9644 12.5296Z" fill="#E6A540"/>
</g>
<rect x="0.5" y="0.5" width="39" height="23" rx="6.5" stroke="#EEF1F7"/>
<defs>
<clipPath id="clip0_1_1006">
<rect width="40" height="24" rx="7" fill="white"/>
</clipPath>
</defs>
</svg>
