<svg width="24" height="24" viewBox="0 0 24 24" fill="none" xmlns="http://www.w3.org/2000/svg">
<path fill-rule="evenodd" clip-rule="evenodd" d="M-0.000549316 11.9999C-0.000549316 5.37254 5.37199 0 11.9994 0C18.6267 0 23.9993 5.37254 23.9993 11.9999C23.9993 18.6273 18.6267 23.9998 11.9994 23.9998C5.37199 23.9998 -0.000549316 18.6273 -0.000549316 11.9999Z" fill="white"/>
<path fill-rule="evenodd" clip-rule="evenodd" d="M11.9994 0C5.37199 0 -0.000549316 5.37254 -0.000549316 11.9999C-0.000549316 18.6273 5.37199 23.9998 11.9994 23.9998C18.6267 23.9998 23.9993 18.6273 23.9993 11.9999C23.9993 5.37254 18.6267 0 11.9994 0ZM17.0002 7.87504C17.5509 8.02617 17.9847 8.47148 18.1319 9.03698C18.3994 10.0619 18.3994 12.2003 18.3994 12.2003C18.3994 12.2003 18.3994 14.3387 18.1319 15.3637C17.9847 15.9292 17.5509 16.3745 17.0002 16.5257C16.0021 16.8003 11.9994 16.8003 11.9994 16.8003C11.9994 16.8003 7.99676 16.8003 6.99859 16.5257C6.44783 16.3745 6.01408 15.9292 5.86688 15.3637C5.59947 14.3387 5.59947 12.2003 5.59947 12.2003C5.59947 12.2003 5.59947 10.0619 5.86688 9.03698C6.01408 8.47148 6.44783 8.02617 6.99859 7.87504C7.99676 7.60038 11.9994 7.60038 11.9994 7.60038C11.9994 7.60038 16.0021 7.60038 17.0002 7.87504Z" fill="#DEE2E8"/>
<path fill-rule="evenodd" clip-rule="evenodd" d="M10.7993 14.3994V10.3994L13.9992 12.3995L10.7993 14.3994Z" fill="#DEE2E8"/>
</svg>
