<svg width="1920" height="1080" viewBox="0 0 1920 1080" fill="none" xmlns="http://www.w3.org/2000/svg">
<g opacity="0.2" clip-path="url(#clip0_2620_458)">
<path d="M71.0975 896C-7.45572 896 -71 959.544 -71 1038.1C-71 1116.46 -7.45572 1180.19 71.0975 1180.19C149.456 1180.19 213.195 1116.65 213.195 1038.1C213 959.544 149.456 896 71.0975 896ZM71.0975 1171.03C-2.38778 1171.03 -61.8387 1111.58 -61.8387 1038.1C-61.8387 964.612 -2.38778 905.161 71.0975 905.161C144.583 905.161 204.034 964.612 204.034 1038.1C204.034 1111.39 144.388 1171.03 71.0975 1171.03Z" fill="white"/>
<path d="M71.0988 926.603C9.69862 926.603 -40.2012 976.502 -40.2012 1037.9C-40.2012 1099.3 9.69862 1149.2 71.0988 1149.2C132.499 1149.2 182.399 1099.5 182.399 1038.1C182.399 976.502 132.499 926.603 71.0988 926.603ZM71.0988 1132.24C19.0548 1132.24 -23.243 1089.95 -23.243 1037.9C-23.243 985.859 19.0548 943.561 71.0988 943.561C123.143 943.561 165.441 985.859 165.441 1037.9C165.441 1089.95 123.143 1132.24 71.0988 1132.24Z" fill="white"/>
<path d="M71.098 975.527C36.597 975.527 8.52832 1003.6 8.52832 1038.1C8.52832 1072.6 36.402 1100.67 71.098 1100.67C105.599 1100.67 133.668 1072.6 133.668 1038.1C133.473 1003.6 105.599 975.527 71.098 975.527ZM71.098 1071.62C52.5805 1071.62 37.5716 1056.61 37.5716 1038.1C37.5716 1019.58 52.5805 1004.57 71.098 1004.57C89.6155 1004.57 104.624 1019.58 104.624 1038.1C104.624 1056.61 89.6155 1071.62 71.098 1071.62Z" fill="white"/>
</g>
<g opacity="0.8" clip-path="url(#clip1_2620_458)">
<path d="M1809.34 789.264C1809.34 790.784 1808.19 791.923 1806.67 791.923C1805.14 791.923 1804 790.784 1804 789.264C1804 787.745 1805.14 786.605 1806.67 786.605C1808.19 786.605 1809.34 787.872 1809.34 789.264Z" fill="white"/>
<path d="M1832.08 789.264C1832.08 790.784 1830.93 791.923 1829.41 791.923C1827.88 791.923 1826.74 790.784 1826.74 789.264C1826.74 787.745 1827.88 786.605 1829.41 786.605C1830.8 786.605 1832.08 787.872 1832.08 789.264Z" fill="white"/>
<path d="M1854.69 789.264C1854.69 790.784 1853.54 791.923 1852.02 791.923C1850.5 791.923 1849.35 790.784 1849.35 789.264C1849.35 787.745 1850.5 786.605 1852.02 786.605C1853.54 786.605 1854.69 787.872 1854.69 789.264Z" fill="white"/>
<path d="M1877.43 789.264C1877.43 790.784 1876.28 791.923 1874.76 791.923C1873.24 791.923 1872.09 790.784 1872.09 789.264C1872.09 787.745 1873.24 786.605 1874.76 786.605C1876.28 786.605 1877.43 787.872 1877.43 789.264Z" fill="white"/>
<path d="M1900.17 789.264C1900.17 790.784 1899.02 791.923 1897.5 791.923C1895.98 791.923 1894.83 790.784 1894.83 789.264C1894.83 787.745 1895.98 786.605 1897.5 786.605C1898.9 786.605 1900.17 787.872 1900.17 789.264Z" fill="white"/>
<path d="M1922.91 789.264C1922.91 790.784 1921.76 791.923 1920.24 791.923C1918.72 791.923 1917.57 790.784 1917.57 789.264C1917.57 787.745 1918.72 786.605 1920.24 786.605C1921.76 786.605 1922.91 787.872 1922.91 789.264Z" fill="white"/>
<path d="M1809.34 808.131C1809.34 809.65 1808.19 810.79 1806.67 810.79C1805.14 810.79 1804 809.65 1804 808.131C1804 806.611 1805.14 805.472 1806.67 805.472C1808.19 805.472 1809.34 806.611 1809.34 808.131Z" fill="white"/>
<path d="M1832.08 808.131C1832.08 809.65 1830.93 810.79 1829.41 810.79C1827.88 810.79 1826.74 809.65 1826.74 808.131C1826.74 806.611 1827.88 805.472 1829.41 805.472C1830.8 805.472 1832.08 806.611 1832.08 808.131Z" fill="white"/>
<path d="M1854.69 808.131C1854.69 809.65 1853.54 810.79 1852.02 810.79C1850.5 810.79 1849.35 809.65 1849.35 808.131C1849.35 806.611 1850.5 805.472 1852.02 805.472C1853.54 805.472 1854.69 806.611 1854.69 808.131Z" fill="white"/>
<path d="M1877.43 808.131C1877.43 809.65 1876.28 810.79 1874.76 810.79C1873.24 810.79 1872.09 809.65 1872.09 808.131C1872.09 806.611 1873.24 805.472 1874.76 805.472C1876.28 805.472 1877.43 806.611 1877.43 808.131Z" fill="white"/>
<path d="M1900.17 808.131C1900.17 809.65 1899.02 810.79 1897.5 810.79C1895.98 810.79 1894.83 809.65 1894.83 808.131C1894.83 806.611 1895.98 805.472 1897.5 805.472C1898.9 805.472 1900.17 806.611 1900.17 808.131Z" fill="white"/>
<path d="M1922.91 808.131C1922.91 809.65 1921.76 810.79 1920.24 810.79C1918.72 810.79 1917.57 809.65 1917.57 808.131C1917.57 806.611 1918.72 805.472 1920.24 805.472C1921.76 805.472 1922.91 806.611 1922.91 808.131Z" fill="white"/>
<path d="M1809.34 751.659C1809.34 753.178 1808.19 754.318 1806.67 754.318C1805.14 754.318 1804 753.178 1804 751.659C1804 750.14 1805.14 749 1806.67 749C1808.19 749 1809.34 750.14 1809.34 751.659Z" fill="white"/>
<path d="M1832.08 751.659C1832.08 753.178 1830.93 754.318 1829.41 754.318C1827.88 754.318 1826.74 753.178 1826.74 751.659C1826.74 750.14 1827.88 749 1829.41 749C1830.8 749 1832.08 750.14 1832.08 751.659Z" fill="white"/>
<path d="M1854.69 751.659C1854.69 753.178 1853.54 754.318 1852.02 754.318C1850.5 754.318 1849.35 753.178 1849.35 751.659C1849.35 750.14 1850.62 749 1852.02 749C1853.54 749 1854.69 750.14 1854.69 751.659Z" fill="white"/>
<path d="M1877.43 751.659C1877.43 753.178 1876.28 754.318 1874.76 754.318C1873.24 754.318 1872.09 753.178 1872.09 751.659C1872.09 750.14 1873.36 749 1874.76 749C1876.16 749 1877.43 750.14 1877.43 751.659Z" fill="white"/>
<path d="M1900.17 751.659C1900.17 753.178 1899.02 754.318 1897.5 754.318C1895.98 754.318 1894.83 753.178 1894.83 751.659C1894.83 750.14 1895.98 749 1897.5 749C1898.9 749 1900.17 750.14 1900.17 751.659Z" fill="white"/>
<path d="M1922.91 751.659C1922.91 753.178 1921.76 754.318 1920.24 754.318C1918.72 754.318 1917.57 753.178 1917.57 751.659C1917.57 750.14 1918.72 749 1920.24 749C1921.76 749 1922.91 750.14 1922.91 751.659Z" fill="white"/>
<path d="M1809.34 770.525C1809.34 772.045 1808.19 773.184 1806.67 773.184C1805.14 773.184 1804 771.918 1804 770.525C1804 769.006 1805.14 767.866 1806.67 767.866C1808.19 767.866 1809.34 769.006 1809.34 770.525Z" fill="white"/>
<path d="M1832.08 770.525C1832.08 772.045 1830.93 773.184 1829.41 773.184C1827.88 773.184 1826.74 772.045 1826.74 770.525C1826.74 769.006 1827.88 767.866 1829.41 767.866C1830.8 767.866 1832.08 769.006 1832.08 770.525Z" fill="white"/>
<path d="M1854.69 770.525C1854.69 772.045 1853.54 773.184 1852.02 773.184C1850.5 773.184 1849.35 772.045 1849.35 770.525C1849.35 769.006 1850.5 767.866 1852.02 767.866C1853.54 767.866 1854.69 769.006 1854.69 770.525Z" fill="white"/>
<path d="M1877.43 770.525C1877.43 772.045 1876.28 773.184 1874.76 773.184C1873.24 773.184 1872.09 772.045 1872.09 770.525C1872.09 769.006 1873.24 767.866 1874.76 767.866C1876.28 767.866 1877.43 769.006 1877.43 770.525Z" fill="white"/>
<path d="M1900.17 770.525C1900.17 772.045 1899.02 773.184 1897.5 773.184C1895.98 773.184 1894.83 772.045 1894.83 770.525C1894.83 769.006 1895.98 767.866 1897.5 767.866C1898.9 767.866 1900.17 769.006 1900.17 770.525Z" fill="white"/>
<path d="M1922.91 770.525C1922.91 772.045 1921.76 773.184 1920.24 773.184C1918.72 773.184 1917.57 772.045 1917.57 770.525C1917.57 769.006 1918.72 767.866 1920.24 767.866C1921.76 767.866 1922.91 769.006 1922.91 770.525Z" fill="white"/>
<path d="M1809.34 826.87C1809.34 828.389 1808.19 829.529 1806.67 829.529C1805.14 829.529 1804 828.389 1804 826.87C1804 825.35 1805.14 824.211 1806.67 824.211C1808.19 824.211 1809.34 825.477 1809.34 826.87Z" fill="white"/>
<path d="M1832.08 826.87C1832.08 828.389 1830.93 829.529 1829.41 829.529C1827.88 829.529 1826.74 828.389 1826.74 826.87C1826.74 825.35 1827.88 824.211 1829.41 824.211C1830.8 824.211 1832.08 825.477 1832.08 826.87Z" fill="white"/>
<path d="M1854.69 826.87C1854.69 828.389 1853.54 829.529 1852.02 829.529C1850.5 829.529 1849.35 828.389 1849.35 826.87C1849.35 825.35 1850.5 824.211 1852.02 824.211C1853.54 824.211 1854.69 825.477 1854.69 826.87Z" fill="white"/>
<path d="M1877.43 826.87C1877.43 828.389 1876.28 829.529 1874.76 829.529C1873.24 829.529 1872.09 828.389 1872.09 826.87C1872.09 825.35 1873.24 824.211 1874.76 824.211C1876.28 824.211 1877.43 825.477 1877.43 826.87Z" fill="white"/>
<path d="M1900.17 826.87C1900.17 828.389 1899.02 829.529 1897.5 829.529C1895.98 829.529 1894.83 828.389 1894.83 826.87C1894.83 825.35 1895.98 824.211 1897.5 824.211C1898.9 824.211 1900.17 825.477 1900.17 826.87Z" fill="white"/>
<path d="M1922.91 826.87C1922.91 828.389 1921.76 829.529 1920.24 829.529C1918.72 829.529 1917.57 828.389 1917.57 826.87C1917.57 825.35 1918.72 824.211 1920.24 824.211C1921.76 824.211 1922.91 825.477 1922.91 826.87Z" fill="white"/>
<path d="M1809.34 845.736C1809.34 847.256 1808.19 848.395 1806.67 848.395C1805.14 848.395 1804 847.256 1804 845.736C1804 844.217 1805.14 843.077 1806.67 843.077C1808.19 843.077 1809.34 844.217 1809.34 845.736Z" fill="white"/>
<path d="M1832.08 845.736C1832.08 847.256 1830.93 848.395 1829.41 848.395C1827.88 848.395 1826.74 847.256 1826.74 845.736C1826.74 844.217 1827.88 843.077 1829.41 843.077C1830.8 843.077 1832.08 844.217 1832.08 845.736Z" fill="white"/>
<path d="M1854.69 845.736C1854.69 847.256 1853.54 848.395 1852.02 848.395C1850.5 848.395 1849.35 847.256 1849.35 845.736C1849.35 844.217 1850.5 843.077 1852.02 843.077C1853.54 843.077 1854.69 844.217 1854.69 845.736Z" fill="white"/>
<path d="M1874.76 848.395C1876.23 848.395 1877.43 847.205 1877.43 845.736C1877.43 844.268 1876.23 843.077 1874.76 843.077C1873.29 843.077 1872.09 844.268 1872.09 845.736C1872.09 847.205 1873.29 848.395 1874.76 848.395Z" fill="white"/>
<path d="M1900.17 845.736C1900.17 847.256 1899.02 848.395 1897.5 848.395C1895.98 848.395 1894.83 847.256 1894.83 845.736C1894.83 844.217 1895.98 843.077 1897.5 843.077C1898.9 843.077 1900.17 844.217 1900.17 845.736Z" fill="white"/>
<path d="M1922.91 845.736C1922.91 847.256 1921.76 848.395 1920.24 848.395C1918.72 848.395 1917.57 847.256 1917.57 845.736C1917.57 844.217 1918.72 843.077 1920.24 843.077C1921.76 843.077 1922.91 844.217 1922.91 845.736Z" fill="white"/>
<path d="M1809.34 864.601C1809.34 866.121 1808.19 867.26 1806.67 867.26C1805.14 867.26 1804 866.121 1804 864.601C1804 863.082 1805.14 861.942 1806.67 861.942C1808.19 861.942 1809.34 863.082 1809.34 864.601Z" fill="white"/>
<path d="M1832.08 864.601C1832.08 866.121 1830.93 867.26 1829.41 867.26C1827.88 867.26 1826.74 866.121 1826.74 864.601C1826.74 863.082 1827.88 861.942 1829.41 861.942C1830.8 861.942 1832.08 863.082 1832.08 864.601Z" fill="white"/>
<path d="M1854.69 864.601C1854.69 866.121 1853.54 867.26 1852.02 867.26C1850.5 867.26 1849.35 866.121 1849.35 864.601C1849.35 863.082 1850.5 861.942 1852.02 861.942C1853.54 861.942 1854.69 863.082 1854.69 864.601Z" fill="white"/>
<path d="M1877.43 864.601C1877.43 866.121 1876.28 867.26 1874.76 867.26C1873.24 867.26 1872.09 866.121 1872.09 864.601C1872.09 863.082 1873.24 861.942 1874.76 861.942C1876.28 861.942 1877.43 863.082 1877.43 864.601Z" fill="white"/>
<path d="M1900.17 864.601C1900.17 866.121 1899.02 867.26 1897.5 867.26C1895.98 867.26 1894.83 866.121 1894.83 864.601C1894.83 863.082 1895.98 861.942 1897.5 861.942C1898.9 861.942 1900.17 863.082 1900.17 864.601Z" fill="white"/>
<path d="M1922.91 864.601C1922.91 866.121 1921.76 867.26 1920.24 867.26C1918.72 867.26 1917.57 866.121 1917.57 864.601C1917.57 863.082 1918.72 861.942 1920.24 861.942C1921.76 861.942 1922.91 863.082 1922.91 864.601Z" fill="white"/>
<path d="M1809.34 883.341C1809.34 884.86 1808.19 886 1806.67 886C1805.14 886 1804 884.86 1804 883.341C1804 881.821 1805.14 880.682 1806.67 880.682C1808.19 880.682 1809.34 881.948 1809.34 883.341Z" fill="white"/>
<path d="M1832.08 883.341C1832.08 884.86 1830.93 886 1829.41 886C1827.88 886 1826.74 884.86 1826.74 883.341C1826.74 881.821 1827.88 880.682 1829.41 880.682C1830.8 880.682 1832.08 881.948 1832.08 883.341Z" fill="white"/>
<path d="M1854.69 883.341C1854.69 884.86 1853.54 886 1852.02 886C1850.5 886 1849.35 884.86 1849.35 883.341C1849.35 881.821 1850.5 880.682 1852.02 880.682C1853.54 880.682 1854.69 881.948 1854.69 883.341Z" fill="white"/>
<path d="M1877.43 883.341C1877.43 884.86 1876.28 886 1874.76 886C1873.24 886 1872.09 884.86 1872.09 883.341C1872.09 881.821 1873.24 880.682 1874.76 880.682C1876.28 880.682 1877.43 881.948 1877.43 883.341Z" fill="white"/>
<path d="M1900.17 883.341C1900.17 884.86 1899.02 886 1897.5 886C1895.98 886 1894.83 884.86 1894.83 883.341C1894.83 881.821 1895.98 880.682 1897.5 880.682C1898.9 880.682 1900.17 881.948 1900.17 883.341Z" fill="white"/>
<path d="M1922.91 883.341C1922.91 884.86 1921.76 886 1920.24 886C1918.72 886 1917.57 884.86 1917.57 883.341C1917.57 881.821 1918.72 880.682 1920.24 880.682C1921.76 880.682 1922.91 881.948 1922.91 883.341Z" fill="white"/>
</g>
<g opacity="0.3">
<path d="M1802.81 75.2212L1812.47 84.8799L1786.78 110.563L1761.1 84.8799L1770.68 75.2943L1786.71 91.319L1802.81 75.2212Z" fill="white"/>
<path d="M1802.81 40.5386L1812.39 50.1241L1786.71 75.8075L1761.1 50.1973L1770.76 40.5386L1786.78 56.5632L1802.81 40.5386Z" fill="white"/>
<path d="M1802.73 5.78165L1812.39 15.4404L1786.78 41.0506L1761.1 15.3672L1770.68 5.78165L1786.71 21.8063L1802.73 5.78165Z" fill="white"/>
<path d="M1802.81 -28.9761L1812.46 -19.3174L1786.78 6.36601L1761.1 -19.3174L1770.76 -28.9761L1786.78 -12.9514L1802.81 -28.9761Z" fill="white"/>
</g>
<path opacity="0.3" d="M835 808.553C821.071 822.482 798.377 822.482 784.447 808.553C770.518 794.623 770.518 771.929 784.447 758L835 808.553Z" fill="white"/>
<g opacity="0.3">
<path d="M889.486 529.89C900.205 529.89 908.937 521.165 908.937 510.453C908.937 499.742 900.205 491.017 889.486 491.017L889.486 529.89Z" fill="white"/>
<path d="M859.141 529.89C869.861 529.89 878.592 521.165 878.592 510.453C878.592 499.742 869.861 491.017 859.141 491.017L859.141 529.89Z" fill="white"/>
<path d="M828.796 529.89C839.515 529.89 848.247 521.165 848.247 510.453C848.247 499.742 839.515 491.017 828.796 491.017V529.89Z" fill="white"/>
</g>
<g opacity="0.3">
<path d="M187.301 144.921L187.301 133L219 133L219 164.699L207.169 164.699L207.169 144.921L187.301 144.921Z" fill="white"/>
<path d="M165.898 166.325L165.898 154.494L197.597 154.494L197.597 186.103L185.676 186.103L185.676 166.325L165.898 166.325Z" fill="white"/>
<path d="M144.495 187.819L144.495 175.898L176.103 175.898L176.103 207.597L164.272 207.597L164.272 187.819L144.495 187.819Z" fill="white"/>
<path d="M123 209.222L123 197.301L154.699 197.301L154.699 229L142.778 229L142.778 209.222L123 209.222Z" fill="white"/>
</g>
<defs>
<clipPath id="clip0_2620_458">
<rect width="284" height="284" fill="white" transform="translate(-112 896)"/>
</clipPath>
<clipPath id="clip1_2620_458">
<rect width="187" height="137" fill="white" transform="translate(1763 749)"/>
</clipPath>
</defs>
</svg>
