<svg width="17" height="17" fill="none" xmlns="http://www.w3.org/2000/svg"><path d="M8.5 0A8.5 8.5 0 1 0 17 8.5 8.51 8.51 0 0 0 8.5 0Zm.365 16.253v-1.496a.365.365 0 0 0-.73 0v1.496A7.767 7.767 0 0 1 .748 8.865h1.495a.365.365 0 0 0 0-.73H.748A7.767 7.767 0 0 1 8.135.748v1.495a.365.365 0 0 0 .73 0V.748a7.767 7.767 0 0 1 7.388 7.387h-1.496a.365.365 0 0 0 0 .73h1.499a7.767 7.767 0 0 1-7.391 7.388Z" fill="#005FA3"/><path d="m12.347 11.891-3.482-3.54V4.67a.365.365 0 0 0-.73 0V8.5c0 .096.039.187.106.255l3.585 3.647a.365.365 0 0 0 .521-.51Z" fill="#005FA3"/></svg>