<svg width="357" height="234" fill="none" xmlns="http://www.w3.org/2000/svg"><g clip-path="url(#a)"><path d="M337.3 225.4H24.1c-4.2 0-7.6-3.4-7.6-7.6V7.6c0-4.2 3.4-7.6 7.6-7.6h313.2c4.2 0 7.6 3.4 7.6 7.6v210.1c.1 4.3-3.4 7.7-7.6 7.7Z" fill="#00D5E4"/><path d="M326.2 217.8h-291c-4.2 0-7.6-3.4-7.6-7.6V15.3c0-4.2 3.4-7.6 7.6-7.6h291c4.2 0 7.6 3.4 7.6 7.6v194.9c.1 4.1-3.4 7.6-7.6 7.6Z" fill="#065090"/><path d="M115.6 28.9H75.4v4.5h40.2v-4.5ZM101 38.9H75.4v4.5H101v-4.5ZM218.5 38.9H115.4v4.5h103.1v-4.5Z" fill="#FCFDFD"/><path d="M282.5 38.9h-54v4.5h54v-4.5Z" fill="#FF6452"/><path d="M150.5 48.9H85.4v4.5h65.1v-4.5Z" fill="#00D050"/><path d="M267.5 48.9h-97v4.5h97v-4.5Z" fill="#FCFDFD"/><path d="M167 58.9H75.4v4.5H167v-4.5Z" fill="#FF6452"/><path d="M240.5 58.9h-65.1v4.5h65.1v-4.5Z" fill="#00D5E4"/><path d="M150.5 68.9H85.4v4.5h65.1v-4.5ZM170.5 78.9H75.4v4.5h95.1v-4.5ZM140.5 88.9H75.4v4.5h65.1v-4.5Z" fill="#FCFDFD"/><path d="M204 98.9H95.4v4.5H204v-4.5Z" fill="#FF6452"/><path d="M250.5 98.9h-35.1v4.5h35.1v-4.5ZM300.5 98.9h-35.1v4.5h35.1v-4.5ZM149.7 108.9h-44.3v4.5h44.3v-4.5Z" fill="#FCFDFD"/><path d="M164.5 118.9h-59.1v4.5h59.1v-4.5Z" fill="#FF6452"/><path d="M250.5 118.9h-65.1v4.5h65.1v-4.5Z" fill="#FCFDFD"/><path d="M292.5 118.9h-27.1v4.5h27.1v-4.5Z" fill="#FF6452"/><path d="M115.4 128.9h-40v4.5h40v-4.5ZM140.5 138.9H75.4v4.5h65.1v-4.5ZM223.5 148.9H105.4v4.5h118.1v-4.5Z" fill="#FCFDFD"/><path d="M308.5 148.9h-73.1v4.5h73.1v-4.5Z" fill="#00D5E4"/><path d="M145.5 158.9h-40.1v4.5h40.1v-4.5Z" fill="#FCFDFD"/><path d="M195.5 158.9h-40.1v4.5h40.1v-4.5Z" fill="#00D050"/><path d="M245.5 158.9h-40.1v4.5h40.1v-4.5ZM140.5 168.9H75.4v4.5h65.1v-4.5Z" fill="#FCFDFD"/><path d="M160.5 178.9H95.4v4.5h65.1v-4.5ZM238 178.9h-65.1v4.5H238v-4.5Z" fill="#00D050"/><path d="M208 198.9h-36.5v4.5H208v-4.5ZM192 188.9H95.4v4.5H192v-4.5Z" fill="#FCFDFD"/><path d="M50.3 28.9h-4.5v4.5h4.5v-4.5ZM50.3 38.9h-4.5v4.5h4.5v-4.5ZM50.3 48.9h-4.5v4.5h4.5v-4.5ZM50.3 58.9h-4.5v4.5h4.5v-4.5ZM50.3 68.9h-4.5v4.5h4.5v-4.5ZM50.3 78.9h-4.5v4.5h4.5v-4.5ZM50.3 88.9h-4.5v4.5h4.5v-4.5ZM50.3 98.9h-4.5v4.5h4.5v-4.5ZM50.3 108.9h-4.5v4.5h4.5v-4.5ZM50.3 118.9h-4.5v4.5h4.5v-4.5ZM50.3 128.9h-4.5v4.5h4.5v-4.5ZM50.3 138.9h-4.5v4.5h4.5v-4.5ZM50.3 148.9h-4.5v4.5h4.5v-4.5ZM50.3 158.9h-4.5v4.5h4.5v-4.5ZM50.3 168.9h-4.5v4.5h4.5v-4.5ZM50.3 178.9h-4.5v4.5h4.5v-4.5ZM50.3 188.9h-4.5v4.5h4.5v-4.5ZM50.3 198.9h-4.5v4.5h4.5v-4.5Z" fill="#5E94C1"/><path d="M143.7 198.9H95.4v4.5h48.3v-4.5ZM284.7 203.3l-19-8.1v-3.3l19-8.1v3.5l-15.1 6.2 15.1 6.2v3.6ZM298.1 179l-8.3 28.7H287l8.3-28.7h2.8ZM319.3 195.2l-19 8.1v-3.5l15.1-6.2-15.1-6.2v-3.5l19 8.1v3.2Z" fill="#FCFDFD"/><path d="M337 233.7H20c-11 0-20-9-20-20h357c0 11.1-9 20-20 20Z" fill="#00BBD3"/><g opacity=".1"><path opacity=".1" d="M129.4 217.8 204 7.6h-28.3l-74.6 210.2h28.3ZM35.3 217.8h13.3L123.2 7.6H35.3c-4.2 0-7.6 3.4-7.6 7.6v194.9c-.1 4.2 3.4 7.7 7.6 7.7ZM287.6 217.8h38.7c4.2 0 7.6-3.4 7.6-7.6V87.4l-46.3 130.4Z" fill="#fff"/></g><path opacity=".1" d="M184.3 217.8h51.9L310.8 7.6h-51.9l-74.6 210.2Z" fill="#fff"/><path d="M354.3 223.7c1.7-2.9 2.7-6.4 2.7-10H0c0 3.6 1 7.1 2.7 10h351.6Z" fill="#15D7E2"/></g><defs><clipPath id="a"><path fill="#fff" d="M0 0h357v233.7H0z"/></clipPath></defs></svg>