<svg width="50" height="50" fill="none" xmlns="http://www.w3.org/2000/svg"><path d="M49.166 0h-37.5a.833.833 0 0 0-.833.833v12.5H12.5V1.667h35.833V47.5a.82.82 0 0 1-.767.833c-.072 0-.144-.006-.215-.007-.148-.004-.295-.008-.44-.023-.013 0-.024 0-.037-.005a5.842 5.842 0 0 1-5.172-5.166c0-.012-.004-.025-.005-.036a5.812 5.812 0 0 1-.03-.596v-1.667a.833.833 0 0 0-.834-.833H12.5V25h-1.667v15H4.167a.833.833 0 0 0-.834.833V42.5a7.508 7.508 0 0 0 7.5 7.5h36.75A2.482 2.482 0 0 0 50 47.5V.833A.833.833 0 0 0 49.166 0ZM10.834 48.333A5.84 5.84 0 0 1 5 42.5v-.833h35v.833c.001.275.017.55.047.822.008.073.022.143.032.215.028.201.06.402.105.6.015.069.034.137.052.206a7.63 7.63 0 0 0 .235.76c.076.207.161.409.256.608.02.04.038.083.058.12.104.212.22.417.344.616.017.027.032.055.048.084.136.213.283.418.44.616l.026.036a7.332 7.332 0 0 0 1.142 1.153l-31.952-.003Z" fill="#fff"/><path d="M27.5 23.333a.833.833 0 0 0 .59-.244l3.332-3.333a.833.833 0 0 0 0-1.178l-3.333-3.334A.833.833 0 0 0 27.5 15H4.168a4.167 4.167 0 0 0 0 8.333H27.5Zm-.215-6.536 2.37 2.37-2.37 2.37-.593-2.37.593-2.37Zm-20.618-.13H25.6l-.417 1.666H8.333V20h16.85l.417 1.667H6.667v-5Zm-5 2.5a2.5 2.5 0 0 1 2.5-2.5H5v5h-.833a2.5 2.5 0 0 1-2.5-2.5ZM19.167 35.833h25c.46 0 .833-.373.833-.833V10a.833.833 0 0 0-1.423-.59l-25 25a.833.833 0 0 0 .59 1.423Zm24.166-23.821v2.155h-1.666v1.666h1.666V17.5h-1.666v1.667h1.666v1.666h-1.666V22.5h1.666v1.667h-1.666v1.666h1.666V27.5h-1.666v1.667h1.666v1.666h-1.666V32.5h1.666v1.667h-1.666V32.5H40v1.667h-1.667V32.5h-1.666v1.667H35V32.5h-1.667v1.667h-1.666V32.5H30v1.667h-1.667V32.5h-1.666v1.667H25V32.5h-1.667v1.667h-2.155l22.155-22.155Z" fill="#fff"/><path d="M31.238 30.833h7.929c.46 0 .833-.373.833-.833v-7.93a.833.833 0 0 0-1.422-.588l-7.93 7.929a.833.833 0 0 0 .59 1.422Zm7.095-6.75v5.084H33.25l5.083-5.084ZM38.333 5H21.667v1.667h16.666V5ZM40.833 8.333H19.167V10h21.666V8.333ZM19.167 25.833h-5V27.5h5v-1.667ZM17.5 29.167h-3.333v1.666H17.5v-1.666Z" fill="#fff"/></svg>